<svg xmlns="http://www.w3.org/2000/svg" xmlns:xlink="http://www.w3.org/1999/xlink" contentStyleType="text/css" height="1547px" preserveAspectRatio="none" style="width:1273px;height:1547px;background:#FFFFFF;" version="1.1" viewBox="0 0 1273 1547" width="1273px" zoomAndPan="magnify"><defs/><g><!--class Asset--><g id="elem_Asset"><rect codeLine="35" fill="#F1F1F1" height="77.2188" id="Asset" rx="2.5" ry="2.5" style="stroke:#181818;stroke-width:0.5;" width="109.0566" x="964.5" y="7"/><text fill="#000000" font-family="sans-serif" font-size="16" font-weight="bold" lengthAdjust="spacing" textLength="49.9297" x="994.0635" y="26.8516">Asset</text><line style="stroke:#181818;stroke-width:0.5;" x1="965.5" x2="1072.5566" y1="35.625" y2="35.625"/><text fill="#000000" font-family="sans-serif" font-size="14" lengthAdjust="spacing" textLength="55.6787" x="970.5" y="52.6201">Content</text><line style="stroke:#181818;stroke-width:1.0;stroke-dasharray:1.0,2.0;" x1="965.5" x2="1072.5566" y1="59.9219" y2="59.9219"/><text fill="#000000" font-family="sans-serif" font-size="14" lengthAdjust="spacing" textLength="97.0566" x="970.5" y="76.917">ManifestStore</text></g><!--class Assertion--><g id="elem_Assertion"><rect codeLine="42" fill="#F1F1F1" height="77.2188" id="Assertion" rx="2.5" ry="2.5" style="stroke:#181818;stroke-width:0.5;" width="91.6875" x="983.5" y="977"/><text fill="#000000" font-family="sans-serif" font-size="16" font-weight="bold" lengthAdjust="spacing" textLength="85.6875" x="986.5" y="996.8516">Assertion</text><line style="stroke:#181818;stroke-width:0.5;" x1="984.5" x2="1074.1875" y1="1005.625" y2="1005.625"/><text fill="#000000" font-family="sans-serif" font-size="14" lengthAdjust="spacing" textLength="33.4277" x="989.5" y="1022.6201">Data</text><line style="stroke:#181818;stroke-width:1.0;stroke-dasharray:1.0,2.0;" x1="984.5" x2="1074.1875" y1="1029.9219" y2="1029.9219"/><text fill="#000000" font-family="sans-serif" font-size="14" font-style="italic" lengthAdjust="spacing" textLength="66.2949" x="989.5" y="1046.917">Metadata</text></g><!--class Binding--><g id="elem_Binding"><rect codeLine="49" fill="#F1F1F1" height="28.625" id="Binding" rx="2.5" ry="2.5" style="stroke:#181818;stroke-width:0.5;" width="74.8516" x="1134.5" y="595"/><text fill="#000000" font-family="sans-serif" font-size="16" font-weight="bold" lengthAdjust="spacing" textLength="68.8516" x="1137.5" y="614.8516">Binding</text></g><!--class Ingredient--><g id="elem_Ingredient"><rect codeLine="51" fill="#F1F1F1" height="125.8125" id="Ingredient" rx="2.5" ry="2.5" style="stroke:#181818;stroke-width:0.5;" width="191.625" x="826.5" y="1201"/><text fill="#000000" font-family="sans-serif" font-size="16" font-weight="bold" lengthAdjust="spacing" textLength="185.625" x="829.5" y="1220.8516">Ingredient Assertion</text><line style="stroke:#181818;stroke-width:0.5;" x1="827.5" x2="1017.125" y1="1229.625" y2="1229.625"/><text fill="#000000" font-family="sans-serif" font-size="14" lengthAdjust="spacing" textLength="81.2861" x="832.5" y="1246.6201">Information</text><line style="stroke:#181818;stroke-width:1.0;stroke-dasharray:1.0,2.0;" x1="827.5" x2="1017.125" y1="1253.9219" y2="1253.9219"/><text fill="#000000" font-family="sans-serif" font-size="14" font-style="italic" lengthAdjust="spacing" textLength="33.4277" x="832.5" y="1270.917">Data</text><line style="stroke:#181818;stroke-width:1.0;stroke-dasharray:1.0,2.0;" x1="827.5" x2="1017.125" y1="1278.2188" y2="1278.2188"/><text fill="#000000" font-family="sans-serif" font-size="14" font-style="italic" lengthAdjust="spacing" textLength="74.0537" x="832.5" y="1295.2139">Thumbnail</text><line style="stroke:#181818;stroke-width:1.0;stroke-dasharray:1.0,2.0;" x1="827.5" x2="1017.125" y1="1302.5156" y2="1302.5156"/><text fill="#000000" font-family="sans-serif" font-size="14" font-style="italic" lengthAdjust="spacing" textLength="59.7461" x="832.5" y="1319.5107">Manifest</text></g><!--class Claim--><g id="elem_Claim"><rect codeLine="61" fill="#F1F1F1" height="101.5156" id="Claim" rx="2.5" ry="2.5" style="stroke:#181818;stroke-width:0.5;" width="119.6182" x="660.5" y="701"/><text fill="#000000" font-family="sans-serif" font-size="16" font-weight="bold" lengthAdjust="spacing" textLength="50.1797" x="695.2192" y="720.8516">Claim</text><line style="stroke:#181818;stroke-width:0.5;" x1="661.5" x2="779.1182" y1="729.625" y2="729.625"/><text fill="#000000" font-family="sans-serif" font-size="14" lengthAdjust="spacing" textLength="72.6455" x="666.5" y="746.6201">Assertions</text><line style="stroke:#181818;stroke-width:1.0;stroke-dasharray:1.0,2.0;" x1="661.5" x2="779.1182" y1="753.9219" y2="753.9219"/><text fill="#000000" font-family="sans-serif" font-size="14" font-style="italic" lengthAdjust="spacing" textLength="77.6152" x="666.5" y="770.917">Redactions</text><line style="stroke:#181818;stroke-width:1.0;stroke-dasharray:1.0,2.0;" x1="661.5" x2="779.1182" y1="778.2188" y2="778.2188"/><text fill="#000000" font-family="sans-serif" font-size="14" lengthAdjust="spacing" textLength="107.6182" x="666.5" y="795.2139">ClaimSignature</text></g><!--class ClaimSignature--><g id="elem_ClaimSignature"><rect codeLine="68" fill="#F1F1F1" height="77.2188" id="ClaimSignature" rx="2.5" ry="2.5" style="stroke:#181818;stroke-width:0.5;" width="150.1797" x="333" y="977"/><text fill="#000000" font-family="sans-serif" font-size="16" font-weight="bold" lengthAdjust="spacing" textLength="144.1797" x="336" y="996.8516">Claim Signature</text><line style="stroke:#181818;stroke-width:0.5;" x1="334" x2="482.1797" y1="1005.625" y2="1005.625"/><text fill="#000000" font-family="sans-serif" font-size="14" lengthAdjust="spacing" textLength="130.6348" x="339" y="1022.6201">Trusted Certificate</text><line style="stroke:#181818;stroke-width:1.0;stroke-dasharray:1.0,2.0;" x1="334" x2="482.1797" y1="1029.9219" y2="1029.9219"/><text fill="#000000" font-family="sans-serif" font-size="14" font-style="italic" lengthAdjust="spacing" textLength="138.0859" x="339" y="1046.917">Trusted TimeStamp</text></g><!--class ManifestStore--><g id="elem_ManifestStore"><rect codeLine="74" fill="#F1F1F1" height="101.5156" id="ManifestStore" rx="2.5" ry="2.5" style="stroke:#181818;stroke-width:0.5;" width="151.0498" x="222.5" y="215"/><text fill="#000000" font-family="sans-serif" font-size="16" font-weight="bold" lengthAdjust="spacing" textLength="133.0547" x="231.4976" y="234.8516">Manifest Store</text><line style="stroke:#181818;stroke-width:0.5;" x1="223.5" x2="372.5498" y1="243.625" y2="243.625"/><text fill="#000000" font-family="sans-serif" font-size="14" lengthAdjust="spacing" textLength="103.2979" x="228.5" y="260.6201">ActiveManifest</text><line style="stroke:#181818;stroke-width:1.0;stroke-dasharray:1.0,2.0;" x1="223.5" x2="372.5498" y1="267.9219" y2="267.9219"/><text fill="#000000" font-family="sans-serif" font-size="14" font-style="italic" lengthAdjust="spacing" textLength="139.0498" x="228.5" y="284.917">IngredientManifests</text><line style="stroke:#181818;stroke-width:1.0;stroke-dasharray:1.0,2.0;" x1="223.5" x2="372.5498" y1="292.2188" y2="292.2188"/><text fill="#000000" font-family="sans-serif" font-size="14" font-style="italic" lengthAdjust="spacing" textLength="97.1934" x="228.5" y="309.2139">DataBoxStore</text></g><!--class Manifest--><g id="elem_Manifest"><rect codeLine="81" fill="#F1F1F1" height="101.5156" id="Manifest" rx="2.5" ry="2.5" style="stroke:#181818;stroke-width:0.5;" width="119.6182" x="772.5" y="401"/><text fill="#000000" font-family="sans-serif" font-size="16" font-weight="bold" lengthAdjust="spacing" textLength="78.5781" x="793.02" y="420.8516">Manifest</text><line style="stroke:#181818;stroke-width:0.5;" x1="773.5" x2="891.1182" y1="429.625" y2="429.625"/><text fill="#000000" font-family="sans-serif" font-size="14" lengthAdjust="spacing" textLength="102.6621" x="778.5" y="446.6201">AssertionStore</text><line style="stroke:#181818;stroke-width:1.0;stroke-dasharray:1.0,2.0;" x1="773.5" x2="891.1182" y1="453.9219" y2="453.9219"/><text fill="#000000" font-family="sans-serif" font-size="14" lengthAdjust="spacing" textLength="39.7715" x="778.5" y="470.917">Claim</text><line style="stroke:#181818;stroke-width:1.0;stroke-dasharray:1.0,2.0;" x1="773.5" x2="891.1182" y1="478.2188" y2="478.2188"/><text fill="#000000" font-family="sans-serif" font-size="14" lengthAdjust="spacing" textLength="107.6182" x="778.5" y="495.2139">ClaimSignature</text></g><!--class IngredientManifest--><g id="elem_IngredientManifest"><rect codeLine="90" fill="#F1F1F1" height="28.625" id="IngredientManifest" rx="2.5" ry="2.5" style="stroke:#181818;stroke-width:0.5;" width="178.9453" x="149.5" y="1407"/><text fill="#000000" font-family="sans-serif" font-size="16" font-weight="bold" lengthAdjust="spacing" textLength="172.9453" x="152.5" y="1426.8516">IngredientManifest</text></g><!--class Redaction--><g id="elem_Redaction"><rect codeLine="93" fill="#F1F1F1" height="28.625" id="Redaction" rx="2.5" ry="2.5" style="stroke:#181818;stroke-width:0.5;" width="96.4219" x="615" y="883"/><text fill="#000000" font-family="sans-serif" font-size="16" font-weight="bold" lengthAdjust="spacing" textLength="90.4219" x="618" y="902.8516">Redaction</text></g><!--class Signer--><g id="elem_Signer"><rect codeLine="96" fill="#F1F1F1" height="28.625" id="Signer" rx="2.5" ry="2.5" style="stroke:#181818;stroke-width:0.5;" width="64.5938" x="514.5" y="883"/><text fill="#000000" font-family="sans-serif" font-size="16" font-weight="bold" lengthAdjust="spacing" textLength="58.5938" x="517.5" y="902.8516">Signer</text></g><!--class DataBoxStore--><g id="elem_DataBoxStore"><rect codeLine="99" fill="#F1F1F1" height="52.9219" id="DataBoxStore" rx="2.5" ry="2.5" style="stroke:#181818;stroke-width:0.5;" width="142.0781" x="7" y="425.5"/><text fill="#000000" font-family="sans-serif" font-size="16" font-weight="bold" lengthAdjust="spacing" textLength="136.0781" x="10" y="445.3516">Data Box Store</text><line style="stroke:#181818;stroke-width:0.5;" x1="8" x2="148.0781" y1="454.125" y2="454.125"/><text fill="#000000" font-family="sans-serif" font-size="14" lengthAdjust="spacing" textLength="75.79" x="13" y="471.1201">DataBoxes</text></g><!--class DataBox--><g id="elem_DataBox"><rect codeLine="102" fill="#F1F1F1" height="52.9219" id="DataBox" rx="2.5" ry="2.5" style="stroke:#181818;stroke-width:0.5;" width="87.6016" x="34" y="583"/><text fill="#000000" font-family="sans-serif" font-size="16" font-weight="bold" lengthAdjust="spacing" textLength="81.6016" x="37" y="602.8516">Data Box</text><line style="stroke:#181818;stroke-width:0.5;" x1="35" x2="120.6016" y1="611.625" y2="611.625"/><text fill="#000000" font-family="sans-serif" font-size="14" lengthAdjust="spacing" textLength="33.4277" x="40" y="628.6201">Data</text></g><!--link Asset to ManifestStore--><g id="link_Asset_ManifestStore"><path codeLine="106" d="M964,71.5 C747.16,71.5 511.2081,164.5581 387.1481,221.1981 " fill="none" id="Asset-to-ManifestStore" style="stroke:#181818;stroke-width:1.0;"/><polygon fill="#181818" points="381.69,223.69,391.5384,223.5909,386.2384,221.6134,388.2158,216.3134,381.69,223.69" style="stroke:#181818;stroke-width:1.0;"/></g><!--link Assertion to Ingredient--><g id="link_Assertion_Ingredient"><path codeLine="108" d="M983,1017.5 C948.88,1017.5 956.37,1133.92 948,1167 C945.55,1176.66 944.4321,1181.0542 941.7621,1191.0242 " fill="none" id="Assertion-to-Ingredient" style="stroke:#0000FF;stroke-width:1.0;"/><polygon fill="#0000FF" points="940.21,1196.82,946.402,1189.1611,941.5034,1191.9902,938.6743,1187.0916,940.21,1196.82" style="stroke:#0000FF;stroke-width:1.0;"/><text fill="#0000FF" font-family="sans-serif" font-size="13" lengthAdjust="spacing" textLength="95.1006" x="953" y="1132.0669">may reference</text></g><!--link Binding to Asset--><g id="link_Binding_Asset"><path codeLine="111" d="M1175.39,594.83 C1181.79,567.81 1195,505.61 1195,452.5 C1195,149 1195,149 1195,149 C1195,79.15 1150.85,47.5 1081,47.5 " fill="none" id="Binding-to-Asset" style="stroke:#0000FF;stroke-width:1.0;"/><polygon fill="#0000FF" points="1075,47.5,1084,51.5,1080,47.5,1084,43.5,1075,47.5" style="stroke:#0000FF;stroke-width:1.0;"/><text fill="#0000FF" font-family="sans-serif" font-size="13" lengthAdjust="spacing" textLength="69.418" x="1196" y="270.0669">references</text></g><!--link ManifestStore to Manifest--><g id="link_ManifestStore_Manifest"><path codeLine="114" d="M375,255.5 C523.15,255.5 673.229,339.9248 759.249,397.6948 " fill="none" id="ManifestStore-to-Manifest" style="stroke:#008000;stroke-width:1.0;"/><polygon fill="#008000" points="764.23,401.04,758.9887,392.7016,760.0792,398.2524,754.5285,399.3429,764.23,401.04" style="stroke:#008000;stroke-width:1.0;"/><text fill="#008000" font-family="sans-serif" font-size="13" lengthAdjust="spacing" textLength="55.0278" x="707" y="363.0669">contains</text></g><!--link ManifestStore to IngredientManifest--><g id="link_ManifestStore_IngredientManifest"><path codeLine="115" d="M222,279.5 C145.81,279.5 210,374.31 210,450.5 C210,450.5 210,450.5 210,1264.5 C210,1317.94 224.9271,1374.2227 232.9971,1401.1427 " fill="none" id="ManifestStore-to-IngredientManifest" style="stroke:#008000;stroke-width:1.0;"/><polygon fill="#008000" points="234.72,1406.89,235.9672,1397.1204,233.2842,1402.1006,228.3041,1399.4176,234.72,1406.89" style="stroke:#008000;stroke-width:1.0;"/><text fill="#008000" font-family="sans-serif" font-size="13" lengthAdjust="spacing" textLength="55.0278" x="211" y="902.0669">contains</text><text fill="#008000" font-family="sans-serif" font-size="13" lengthAdjust="spacing" textLength="36.5625" x="190.618" y="1395.8975">many</text></g><!--link ManifestStore to DataBoxStore--><g id="link_ManifestStore_DataBoxStore"><path codeLine="116" d="M222,304.5 C175.18,304.5 160.22,317.01 127,350 C107.03,369.83 95.9185,393.7686 88.3385,415.7186 " fill="none" id="ManifestStore-to-DataBoxStore" style="stroke:#008000;stroke-width:1.0;"/><polygon fill="#008000" points="86.38,421.39,93.0986,414.1886,88.0121,416.6639,85.5368,411.5773,86.38,421.39" style="stroke:#008000;stroke-width:1.0;"/><text fill="#008000" font-family="sans-serif" font-size="13" lengthAdjust="spacing" textLength="55.0278" x="128" y="363.0669">contains</text></g><!--link Manifest to Assertion--><g id="link_Manifest_Assertion"><path codeLine="118" d="M893,441.5 C997.03,441.5 1057,504.47 1057,608.5 C1057,608.5 1057,608.5 1057,898.5 C1057,923.67 1052.4298,945.3378 1045.8098,967.1878 " fill="none" id="Manifest-to-Assertion" style="stroke:#008000;stroke-width:1.0;"/><polygon fill="#008000" points="1044.07,972.93,1050.5078,965.4765,1045.5198,968.1448,1042.8515,963.1568,1044.07,972.93" style="stroke:#008000;stroke-width:1.0;"/><text fill="#008000" font-family="sans-serif" font-size="13" lengthAdjust="spacing" textLength="55.0278" x="1058" y="756.0669">contains</text><text fill="#008000" font-family="sans-serif" font-size="13" lengthAdjust="spacing" textLength="36.5625" x="1007.8315" y="966.0035">many</text></g><!--link Manifest to Binding--><g id="link_Manifest_Binding"><path codeLine="119" d="M893,441.5 C984.54,441.5 998.53,487.24 1076,536 C1105.34,554.47 1132.3633,575.662 1150.9933,590.962 " fill="none" id="Manifest-to-Binding" style="stroke:#008000;stroke-width:1.0;"/><polygon fill="#008000" points="1155.63,594.77,1151.2135,585.9669,1151.766,591.5967,1146.1362,592.1492,1155.63,594.77" style="stroke:#008000;stroke-width:1.0;"/><text fill="#008000" font-family="sans-serif" font-size="13" lengthAdjust="spacing" textLength="55.0278" x="1101" y="549.0669">contains</text></g><!--link Manifest to Ingredient--><g id="link_Manifest_Ingredient"><path codeLine="120" d="M893,441.5 C968.33,441.5 922,533.17 922,608.5 C922,608.5 922,608.5 922,1128.5 C922,1150.72 922,1169.01 922,1190.73 " fill="none" id="Manifest-to-Ingredient" style="stroke:#008000;stroke-width:1.0;"/><polygon fill="#008000" points="922,1196.73,926,1187.73,922,1191.73,918,1187.73,922,1196.73" style="stroke:#008000;stroke-width:1.0;"/><text fill="#008000" font-family="sans-serif" font-size="13" lengthAdjust="spacing" textLength="80.7104" x="923" y="902.0669">may contain</text><text fill="#008000" font-family="sans-serif" font-size="13" lengthAdjust="spacing" textLength="36.5625" x="885.0703" y="1189.9498">many</text></g><!--link Manifest to Claim--><g id="link_Manifest_Claim"><path codeLine="122" d="M772,465.5 C678.95,465.5 692.1518,608.4377 707.2318,690.9877 " fill="none" id="Manifest-to-Claim" style="stroke:#181818;stroke-width:1.0;"/><polygon fill="#181818" points="708.31,696.89,710.6276,687.3177,707.4115,691.9714,702.7578,688.7553,708.31,696.89" style="stroke:#181818;stroke-width:1.0;"/></g><!--link Manifest to ClaimSignature--><g id="link_Manifest_ClaimSignature"><path codeLine="123" d="M772,490.5 C668.19,490.5 320,504.69 320,608.5 C320,608.5 320,608.5 320,898.5 C320,928.83 335.0963,951.9784 355.6363,972.5084 " fill="none" id="Manifest-to-ClaimSignature" style="stroke:#181818;stroke-width:1.0;"/><polygon fill="#181818" points="359.88,976.75,356.3422,967.5585,356.3436,973.2153,350.6868,973.2167,359.88,976.75" style="stroke:#181818;stroke-width:1.0;"/></g><!--link Ingredient to IngredientManifest--><g id="link_Ingredient_IngredientManifest"><path codeLine="125" d="M826,1314.5 C620.18,1314.5 385.8857,1376.6954 288.8157,1405.2754 " fill="none" id="Ingredient-to-IngredientManifest" style="stroke:#0000FF;stroke-width:1.0;"/><polygon fill="#0000FF" points="283.06,1406.97,292.8233,1408.2652,287.8564,1405.5578,290.5638,1400.5909,283.06,1406.97" style="stroke:#0000FF;stroke-width:1.0;"/><text fill="#0000FF" font-family="sans-serif" font-size="13" lengthAdjust="spacing" textLength="95.1006" x="461" y="1373.0669">may reference</text></g><!--link Claim to Assertion--><g id="link_Claim_Assertion"><path codeLine="127" d="M781,741.5 C857.72,741.5 761.77,850.77 808,912 C848.53,965.66 918.1279,990.8005 969.4779,1003.2105 " fill="none" id="Claim-to-Assertion" style="stroke:#0000FF;stroke-width:1.0;"/><polygon fill="#0000FF" points="975.31,1004.62,967.5015,998.6177,970.4499,1003.4454,965.6222,1006.3939,975.31,1004.62" style="stroke:#0000FF;stroke-width:1.0;"/><text fill="#0000FF" font-family="sans-serif" font-size="13" lengthAdjust="spacing" textLength="69.418" x="809" y="902.0669">references</text><text fill="#0000FF" font-family="sans-serif" font-size="13" lengthAdjust="spacing" textLength="36.5625" x="938.9737" y="1001.6005">many</text></g><!--link Claim to Redaction--><g id="link_Claim_Redaction"><path codeLine="128" d="M660,765.5 C613.36,765.5 641.0529,843.953 654.8529,877.423 " fill="none" id="Claim-to-Redaction" style="stroke:#0000FF;stroke-width:1.0;"/><polygon fill="#0000FF" points="657.14,882.97,657.4074,873.1248,655.2341,878.3475,650.0114,876.1742,657.14,882.97" style="stroke:#0000FF;stroke-width:1.0;"/><text fill="#0000FF" font-family="sans-serif" font-size="13" lengthAdjust="spacing" textLength="95.1006" x="646" y="849.0669">may reference</text><text fill="#0000FF" font-family="sans-serif" font-size="13" lengthAdjust="spacing" textLength="36.5625" x="612.3676" y="872.007">many</text></g><!--link Claim to ClaimSignature--><g id="link_Claim_ClaimSignature"><path codeLine="129" d="M660,790.5 C548.17,790.5 495.02,795.01 426,883 C405.31,909.38 402.0521,942.256 403.3321,970.896 " fill="none" id="Claim-to-ClaimSignature" style="stroke:#0000FF;stroke-width:1.0;"/><polygon fill="#0000FF" points="403.6,976.89,407.1942,967.7204,403.3768,971.895,399.2022,968.0776,403.6,976.89" style="stroke:#0000FF;stroke-width:1.0;"/><text fill="#0000FF" font-family="sans-serif" font-size="13" lengthAdjust="spacing" textLength="69.418" x="427" y="902.0669">references</text></g><!--link Signer to ClaimSignature--><g id="link_Signer_ClaimSignature"><path codeLine="131" d="M530.78,912.03 C511.88,927.81 484.4263,950.7153 457.8163,972.9253 " fill="none" id="Signer-to-ClaimSignature" style="stroke:#181818;stroke-width:1.0;"/><polygon fill="#181818" points="453.21,976.77,462.6826,974.0739,457.0486,973.5661,457.5564,967.9321,453.21,976.77" style="stroke:#181818;stroke-width:1.0;"/></g><!--link DataBoxStore to DataBox--><g id="link_DataBoxStore_DataBox"><path codeLine="133" d="M150,465.5 C157.12,465.5 151.01,474.66 149,481.5 C137.88,519.3 117.3592,553.2527 100.3592,577.8727 " fill="none" id="DataBoxStore-to-DataBox" style="stroke:#008000;stroke-width:1.0;"/><polygon fill="#008000" points="96.95,582.81,105.3554,577.6768,99.791,578.6956,98.7723,573.1312,96.95,582.81" style="stroke:#008000;stroke-width:1.0;"/><text fill="#008000" font-family="sans-serif" font-size="13" lengthAdjust="spacing" textLength="55.0278" x="126" y="549.0669">contains</text><text fill="#008000" font-family="sans-serif" font-size="13" lengthAdjust="spacing" textLength="36.5625" x="61.2808" y="571.9948">many</text></g><rect fill="#DDDDDD" height="75.1875" id="_legend" rx="7.5" ry="7.5" style="stroke:#000000;stroke-width:1.0;" width="411.0195" x="424.1992" y="1452.625"/><ellipse cx="434.6992" cy="1466.4219" fill="#000000" rx="2.5" ry="2.5" style="stroke:#000000;stroke-width:0.0;"/><text fill="#000000" font-family="sans-serif" font-size="14" lengthAdjust="spacing" textLength="389.0195" x="441.1992" y="1470.6201">All relationships are singular unless otherwise specified</text><ellipse cx="434.6992" cy="1482.7188" fill="#000000" rx="2.5" ry="2.5" style="stroke:#000000;stroke-width:0.0;"/><text fill="#000000" font-family="sans-serif" font-size="14" lengthAdjust="spacing" textLength="295.5107" x="441.1992" y="1486.917">Green lines represent embedded/contains</text><ellipse cx="434.6992" cy="1499.0156" fill="#000000" rx="2.5" ry="2.5" style="stroke:#000000;stroke-width:0.0;"/><text fill="#000000" font-family="sans-serif" font-size="14" lengthAdjust="spacing" textLength="266.2529" x="441.1992" y="1503.2139">Blue lines represent linked references</text><ellipse cx="434.6992" cy="1515.3125" fill="#000000" rx="2.5" ry="2.5" style="stroke:#000000;stroke-width:0.0;"/><text fill="#000000" font-family="sans-serif" font-size="14" lengthAdjust="spacing" textLength="48.1523" x="441.1992" y="1519.5107">Text in</text><text fill="#000000" font-family="sans-serif" font-size="14" font-style="italic" lengthAdjust="spacing" textLength="40.7285" x="493.8018" y="1519.5107">italics</text><text fill="#000000" font-family="sans-serif" font-size="14" lengthAdjust="spacing" textLength="177.6592" x="538.9805" y="1519.5107">means optional elements</text><!--SRC=[fLNRQXin47tU_Oh1UJ0KagKlVTWMG-Aq9GzfeV4FoAknBQAL5acEuuRyUqVQYxIsiLiQ25cDD6VEdBba2Zz-BhwMWCe9jmTXWIbWKZ0BAssWaipQ_8jrUucpF9pk1LiRLiDR3krr-F8_Ks3E6R7SElGm76fq6yrjV_rDApVNac2NSekzzOvLpskZjugtTtkKKk_o0REDeLZTUsoGSJH3L02F-oH-8tpyDDYIO2z2ItJZrpuVM6h9E_Dxxd_Vyoz5bsgUILoZudcMVO1RAS6WP4vePJUYeUmCWXLglPNCm5P998hQRT3iXAMR1Ykn4jXwVpU82gHGf8h1ng0biG7h9NAElAY83nFAXhTt9CpHKpe_8oV32Wsg2jkd2tnr81GKXN1KiCeM1GdE515fF54c0INM143lAPCkdpoRmaPm169BHBKR34pjYLL3NU0sb9gzkRd9it1J2LD9x0xjazhpDpR0iHSjE3H6BocUXPrm6m9RI-9S6RsZJaBqOUopK0tplUCpTFi6GHlgaDpp2-rtQoqwgcoMpKaLCjBN53mF-lE8Zd7c61s2vP4fiK9BnTI6oBsFK8oN823T9ov5qOCKHV2Ozeq_DyZz9wdsviqHxKueJd9uSpG-g3Kv25yTcfH9SXo2JqBq1qLZL8VEYIJkEmBzUR7Pral5X4oDVNejqo7oN39H1-WXaerElv2pAjWYLF1u4cl5t7OirFWcPDB23xOsYONPMaVLdFjuAr4nXmdvxd8XQdnoh6uE28_A56Bq5WYcDiGjiNx1_YQYHsNxEvkAv9Myqwy1g2lfGTYnL5slnAOgYbZv0INHxRA8nmpRLXaU33Kvi7kqiCTIOvfG4CiRW2ofMDqZlmZU3pr7JfDa0doGC5zbEIx9zVKrdy71DELHix8CSFHiblRzbL_YdnrjeT9_GGarsySbvOVe66AM3jebX3phPo_4xiXtc-64TxeWft3Ajv_-yyxvUBMKvRWvGnh3uMhjrtiB5Ju9Awxq0w0JtHpG9ZKjtycfLled-57pUDoHuInKnA9qHzEI4eoRzUzudSJg2_CV44TwdGJptTG1-eQ8Y0SZdqAE-lCIPe8OrcPejMvj7Dp5BHiVnNMIPp6LE9umdhZO4nVd9i0dojaswd4Lpum1333ndqggL5nh5pT1XtDPY4jpsQtCamgclJwC0euezoloNEVz0G00]--></g></svg>