<svg xmlns="http://www.w3.org/2000/svg" xmlns:xlink="http://www.w3.org/1999/xlink" contentStyleType="text/css" height="1085px" preserveAspectRatio="none" style="width:487px;height:1085px;background:#FFFFFF;" version="1.1" viewBox="0 0 487 1085" width="487px" zoomAndPan="magnify"><defs/><g><!--cluster c2pa--><g id="cluster_c2pa"><rect fill="#E6E6FA" height="1072" rx="2.5" ry="2.5" style="stroke:#800080;stroke-width:1.0;" width="473" x="7" y="7"/><line style="stroke:#800080;stroke-width:1.0;" x1="7" x2="480" y1="27.2969" y2="27.2969"/><text fill="#000000" font-family="Source Sans Pro" font-size="14" font-weight="bold" lengthAdjust="spacing" textLength="251.9043" x="117.5479" y="21.9951">Manifest Store - JUMBF (`c2pa`)</text></g><!--cluster ic2ma--><g id="cluster_ic2ma"><rect fill="#90EE90" height="187" rx="2.5" ry="2.5" style="stroke:#008000;stroke-width:1.0;" width="410" x="38" y="50"/><line style="stroke:#008000;stroke-width:1.0;" x1="38" x2="448" y1="70.2969" y2="70.2969"/><text fill="#000000" font-family="Source Sans Pro" font-size="14" font-weight="bold" lengthAdjust="spacing" textLength="306.8174" x="94.4653" y="64.9951">Ingredient Manifest (`urn:c2pa:ABCD`)</text></g><!--cluster c2ma--><g id="cluster_c2ma"><rect fill="#90EE90" height="794" rx="2.5" ry="2.5" style="stroke:#008000;stroke-width:1.0;" width="425" x="31" y="261"/><line style="stroke:#008000;stroke-width:1.0;" x1="31" x2="456" y1="281.2969" y2="281.2969"/><text fill="#000000" font-family="Source Sans Pro" font-size="14" font-weight="bold" lengthAdjust="spacing" textLength="276.6162" x="105.1919" y="275.9951">Active Manifest (`urn:c2pa:WXYZ`)</text></g><!--cluster c2cs--><g id="cluster_c2cs"><rect fill="#FFE4B5" height="87" rx="2.5" ry="2.5" style="stroke:#FF4500;stroke-width:1.0;" width="356" x="65" y="304"/><line style="stroke:#FF4500;stroke-width:1.0;" x1="65" x2="421" y1="324.2969" y2="324.2969"/><text fill="#000000" font-family="Source Sans Pro" font-size="14" font-weight="bold" lengthAdjust="spacing" textLength="340.2998" x="72.8501" y="318.9951">Claim Signature (`c2cs` : `c2pa.signature`)</text></g><!--cluster c2cl--><g id="cluster_c2cl"><rect fill="#FFB6C1" height="87" rx="2.5" ry="2.5" style="stroke:#FF0000;stroke-width:1.0;" width="377" x="55" y="415"/><line style="stroke:#FF0000;stroke-width:1.0;" x1="55" x2="432" y1="435.2969" y2="435.2969"/><text fill="#000000" font-family="Source Sans Pro" font-size="14" font-weight="bold" lengthAdjust="spacing" textLength="245.0068" x="62.5083" y="429.9951">Claim (`c2cl` : `c2pa.claim.v2`)</text></g><!--cluster c2as--><g id="cluster_c2as"><rect fill="#ADD8E6" height="505" rx="2.5" ry="2.5" style="stroke:#0000FF;stroke-width:1.0;" width="360" x="63" y="526"/><line style="stroke:#0000FF;stroke-width:1.0;" x1="63" x2="423" y1="546.2969" y2="546.2969"/><text fill="#000000" font-family="Source Sans Pro" font-size="14" font-weight="bold" lengthAdjust="spacing" textLength="344.2305" x="70.8848" y="540.9951">Assertion Store (`c2as` : `c2pa.assertions`)</text></g><!--cluster c2pa.metadata --><g id="cluster_c2pa.metadata "><rect fill="#E0FFFF" height="87" rx="2.5" ry="2.5" style="stroke:#0000FF;stroke-width:1.0;" width="139" x="174" y="569"/><line style="stroke:#0000FF;stroke-width:1.0;" x1="174" x2="313" y1="589.2969" y2="589.2969"/><text fill="#000000" font-family="Source Sans Pro" font-size="14" font-weight="bold" lengthAdjust="spacing" textLength="118.6582" x="181.7339" y="583.9951">c2pa.metadata</text></g><!--cluster c2pa.ingredient        --><g id="cluster_c2pa.ingredient        "><rect fill="#E0FFFF" height="105" rx="2.5" ry="2.5" style="stroke:#0000FF;stroke-width:1.0;" width="306" x="90" y="680"/><line style="stroke:#0000FF;stroke-width:1.0;" x1="90" x2="396" y1="700.2969" y2="700.2969"/><text fill="#000000" font-family="Source Sans Pro" font-size="14" font-weight="bold" lengthAdjust="spacing" textLength="124.9883" x="161.0098" y="694.9951">c2pa.ingredient</text></g><!--cluster c2pa.actions                           --><g id="cluster_c2pa.actions                           "><rect fill="#E0FFFF" height="87" rx="2.5" ry="2.5" style="stroke:#0000FF;stroke-width:1.0;" width="247" x="120" y="809"/><line style="stroke:#0000FF;stroke-width:1.0;" x1="120" x2="367" y1="829.2969" y2="829.2969"/><text fill="#000000" font-family="Source Sans Pro" font-size="14" font-weight="bold" lengthAdjust="spacing" textLength="99.9824" x="127.7095" y="823.9951">c2pa.actions</text></g><!--cluster c2pa.hash.data                        --><g id="cluster_c2pa.hash.data                        "><rect fill="#E0FFFF" height="87" rx="2.5" ry="2.5" style="stroke:#0000FF;stroke-width:1.0;" width="254" x="116" y="920"/><line style="stroke:#0000FF;stroke-width:1.0;" x1="116" x2="370" y1="940.2969" y2="940.2969"/><text fill="#000000" font-family="Source Sans Pro" font-size="14" font-weight="bold" lengthAdjust="spacing" textLength="121.4678" x="123.7778" y="934.9951">c2pa.hash.data</text></g><!--entity ic2cs--><g id="elem_ic2cs"><rect fill="#FFE4B5" height="22.2969" rx="2.5" ry="2.5" style="stroke:#FF4500;stroke-width:0.5;" width="132.0684" x="177" y="85"/><text fill="#000000" font-family="Source Sans Pro" font-size="14" lengthAdjust="spacing" textLength="112.0684" x="187" y="100.9951">Claim Signature</text></g><!--entity ic2cl--><g id="elem_ic2cl"><rect fill="#FFB6C1" height="22.2969" rx="2.5" ry="2.5" style="stroke:#FF0000;stroke-width:0.5;" width="130.9746" x="177.5" y="142"/><text fill="#000000" font-family="Source Sans Pro" font-size="14" lengthAdjust="spacing" textLength="39.7715" x="223.1016" y="157.9951">Claim</text></g><!--entity ic2as--><g id="elem_ic2as"><rect fill="#ADD8E6" height="22.2969" rx="2.5" ry="2.5" style="stroke:#0000FF;stroke-width:0.5;" width="127.1123" x="179.5" y="199"/><text fill="#000000" font-family="Source Sans Pro" font-size="14" lengthAdjust="spacing" textLength="107.1123" x="189.5" y="214.9951">Assertion Store</text></g><!--entity CS--><g id="elem_CS"><rect fill="#F1F1F1" height="36.2969" rx="2.5" ry="2.5" style="stroke:#181818;stroke-width:0.5;" width="196.4622" x="145" y="339"/><path d="M162.4167,352.4635 C160.8067,352.4635 159.5,353.7702 159.5,355.3802 C159.5,355.5669 159.5,355.7535 159.535,355.9285 L156,359.4635 L156,361.7969 L159.5,361.7969 L159.5,359.4635 L161.8333,359.4635 L161.8333,358.2969 L161.8683,358.2619 C162.0433,358.2969 162.23,358.2969 162.4167,358.2969 C164.0267,358.2969 165.3333,356.9902 165.3333,355.3802 C165.3333,353.7702 164.0267,352.4635 162.4167,352.4635 M163,353.6302 C163.6417,353.6302 164.1667,354.1552 164.1667,354.7969 C164.1667,355.4385 163.6417,355.9635 163,355.9635 C162.3583,355.9635 161.8333,355.4385 161.8333,354.7969 C161.8333,354.1552 162.3583,353.6302 163,353.6302 " fill="#000000" style="stroke:;stroke-width:0.0;stroke-dasharray:;"/><text fill="#000000" font-family="Source Sans Pro" font-size="14" lengthAdjust="spacing" textLength="160.6787" x="170.7835" y="361.9951">COSE Digital Signature</text></g><!--entity C--><g id="elem_C"><rect fill="#F1F1F1" height="36.2969" rx="2.5" ry="2.5" style="stroke:#181818;stroke-width:0.5;" width="75.9105" x="205" y="450"/><path d="M221.8333,463.4635 L218.3333,470.4635 L219.5,470.4635 L223,463.4635 L221.8333,463.4635 M217.1667,464.6302 L216,466.9635 L217.1667,469.2969 L218.3333,469.2969 L217.1667,466.9635 L218.3333,464.6302 L217.1667,464.6302 M223,464.6302 L224.1667,466.9635 L223,469.2969 L224.1667,469.2969 L225.3333,466.9635 L224.1667,464.6302 L223,464.6302 " fill="#000000" style="stroke:;stroke-width:0.0;stroke-dasharray:;"/><text fill="#000000" font-family="Source Sans Pro" font-size="14" lengthAdjust="spacing" textLength="40.127" x="230.7835" y="472.9951">CBOR</text></g><!--entity A1--><g id="elem_A1"><rect fill="#F1F1F1" height="36.2969" rx="2.5" ry="2.5" style="stroke:#181818;stroke-width:0.5;" width="93.9232" x="196" y="604"/><path d="M212.8333,617.4635 L209.3333,624.4635 L210.5,624.4635 L214,617.4635 L212.8333,617.4635 M208.1667,618.6302 L207,620.9635 L208.1667,623.2969 L209.3333,623.2969 L208.1667,620.9635 L209.3333,618.6302 L208.1667,618.6302 M214,618.6302 L215.1667,620.9635 L214,623.2969 L215.1667,623.2969 L216.3333,620.9635 L215.1667,618.6302 L214,618.6302 " fill="#000000" style="stroke:;stroke-width:0.0;stroke-dasharray:;"/><text fill="#000000" font-family="Source Sans Pro" font-size="14" lengthAdjust="spacing" textLength="58.1396" x="221.7835" y="626.9951">JSON-LD</text></g><!--entity A2--><g id="elem_A2"><rect fill="#F1F1F1" height="52.5938" rx="2.5" ry="2.5" style="stroke:#181818;stroke-width:0.5;" width="273.8184" x="106" y="715.5"/><path d="M122.8333,728.9635 L119.3333,735.9635 L120.5,735.9635 L124,728.9635 L122.8333,728.9635 M118.1667,730.1302 L117,732.4635 L118.1667,734.7969 L119.3333,734.7969 L118.1667,732.4635 L119.3333,730.1302 L118.1667,730.1302 M124,730.1302 L125.1667,732.4635 L124,734.7969 L125.1667,734.7969 L126.3333,732.4635 L125.1667,730.1302 L124,730.1302 " fill="#000000" style="stroke:;stroke-width:0.0;stroke-dasharray:;"/><text fill="#000000" font-family="Source Sans Pro" font-size="14" lengthAdjust="spacing" textLength="40.127" x="131.7835" y="738.4951">CBOR</text><text fill="#000000" font-family="Source Sans Pro" font-size="14" lengthAdjust="spacing" textLength="253.8184" x="116" y="754.792">Reference to an ingredient manifest</text></g><!--entity A3--><g id="elem_A3"><rect fill="#F1F1F1" height="36.2969" rx="2.5" ry="2.5" style="stroke:#181818;stroke-width:0.5;" width="75.9105" x="205" y="844"/><path d="M221.8333,857.4635 L218.3333,864.4635 L219.5,864.4635 L223,857.4635 L221.8333,857.4635 M217.1667,858.6302 L216,860.9635 L217.1667,863.2969 L218.3333,863.2969 L217.1667,860.9635 L218.3333,858.6302 L217.1667,858.6302 M223,858.6302 L224.1667,860.9635 L223,863.2969 L224.1667,863.2969 L225.3333,860.9635 L224.1667,858.6302 L223,858.6302 " fill="#000000" style="stroke:;stroke-width:0.0;stroke-dasharray:;"/><text fill="#000000" font-family="Source Sans Pro" font-size="14" lengthAdjust="spacing" textLength="40.127" x="230.7835" y="866.9951">CBOR</text></g><!--entity A4--><g id="elem_A4"><rect fill="#F1F1F1" height="36.2969" rx="2.5" ry="2.5" style="stroke:#181818;stroke-width:0.5;" width="75.9105" x="205" y="955"/><path d="M221.8333,968.4635 L218.3333,975.4635 L219.5,975.4635 L223,968.4635 L221.8333,968.4635 M217.1667,969.6302 L216,971.9635 L217.1667,974.2969 L218.3333,974.2969 L217.1667,971.9635 L218.3333,969.6302 L217.1667,969.6302 M223,969.6302 L224.1667,971.9635 L223,974.2969 L224.1667,974.2969 L225.3333,971.9635 L224.1667,969.6302 L223,969.6302 " fill="#000000" style="stroke:;stroke-width:0.0;stroke-dasharray:;"/><text fill="#000000" font-family="Source Sans Pro" font-size="14" lengthAdjust="spacing" textLength="40.127" x="230.7835" y="977.9951">CBOR</text></g><!--SRC=[ZP5TRu8m68MluLUyUeDUp0ilZJ71ZoqiKnDnsSUDl9RAkhI5jCNDBFxt0LKoChF9HKFfEG-dvmK0y00vJpyq2FR9P09xL2pDDQJRTqgC1YO1GHSdd4BCC54etC9cNHjhSgil7fWtfi7aIXRstQxOKi3Sf08D8v2eDC_AFsmFuFKy2vOeQ6NMr5GRdI6X8SrGeKaLo5HIIsynINWUKn0esOvgiz7cm0jUZ-M2kwxZmTJ6QrLwWYe6qiyGK4DxVZ91M50ftC3zutny2vseL4JTDWo7vTje15-LkoOmqXSM0VKJo4JHc55feEPsekBQWv8nyCUJQTGzYorQDD4_yKHN-0b79Y1aYSIYGMfjHF-o7Iz3U2EZXJKI47ub2cqUNskg34kbhSn2yAyyHxTPNTsSJmpRqujTFJs_l9xhFtNaECvvrZhVrkEknjoQFFZ1F0pk5lxwSJLphn3_e_73SBPQ1yj5k5wkPdstUIsxVWC0]--></g></svg>