<svg id="Layer_1" data-name="Layer 1" xmlns="http://www.w3.org/2000/svg" viewBox="0 0 792 279.04"><defs><style>.cls-1,.cls-2{fill:#231f20;stroke:#231f20;}.cls-1{stroke-miterlimit:10;}</style></defs><circle class="cls-1" cx="128.58" cy="102.15" r="6"/><path class="cls-1" d="M99.68,112.05a14,14,0,1,1,14-14A14,14,0,0,1,99.68,112.05Zm0-19.9a5.91,5.91,0,0,0-5.9,5.9,5.9,5.9,0,1,0,5.9-5.9Z"/><path class="cls-1" d="M99.68,246.85a61.37,61.37,0,0,1-61.3-61.3v-58a3.92,3.92,0,0,1,2.1-3.5,4,4,0,0,1,4.1.2c14,9.1,34,14.4,55,14.4,20.3,0,40.9-5.4,55.1-14.4a4.06,4.06,0,0,1,6.2,3.4v58A61.33,61.33,0,0,1,99.68,246.85Zm-53.3-112.2v51a53.2,53.2,0,0,0,106.4,0v-51c-14.9,7.7-33.9,12.1-53.2,12.1C80.08,146.65,61.08,142.35,46.38,134.65Z"/><path class="cls-1" d="M99.68,128.45c-20.4,0-39.9-4.6-54.9-13.1a12.09,12.09,0,0,1-6.2-11.6,61.34,61.34,0,0,1,122.2,0h0a12.09,12.09,0,0,1-6.2,11.6C139.48,123.75,120,128.45,99.68,128.45Zm0-72.5a53.74,53.74,0,0,0-53.1,48.5,4.17,4.17,0,0,0,2.1,3.9c13.9,7.8,32,12,51,12s37.1-4.3,51-12a4.17,4.17,0,0,0,2.1-3.9h0A53.74,53.74,0,0,0,99.68,56Z"/><path class="cls-1" d="M89.68,101.85h-.3c-15.5-1.2-30.1-5.1-42.1-11.3a4,4,0,0,1,3.7-7.1c11.1,5.7,24.6,9.3,39,10.4a4,4,0,0,1,3.7,4.3A4,4,0,0,1,89.68,101.85Z"/><path class="cls-1" d="M99.68,187.65c-22.5,0-44.1-5.7-59.3-15.6a4,4,0,1,1,4.4-6.8c14,9.1,34,14.3,54.9,14.3s41-5.2,54.9-14.3a4,4,0,0,1,4.4,6.8C143.68,182,122.08,187.65,99.68,187.65Z"/><path class="cls-1" d="M99.68,205.75c-22.4,0-43.9-5.7-59.2-15.5a4,4,0,1,1,4.4-6.8c14,9,33.9,14.2,54.8,14.2s40.8-5.2,54.8-14.2a4,4,0,0,1,4.4,6.8C143.58,200.15,122,205.75,99.68,205.75Z"/><path class="cls-2" d="M230.44,104.86c-1.35,6.23-6.34,10.7-15.84,10.7-10.95,0-16.45-7-16.45-15.46,0-8.09,5.42-15.44,16.85-15.44,10,0,14.74,5.23,15.51,10.59h-9.68c-.42-1.64-1.64-4.06-5.86-4.06-4.49,0-6.69,3.51-6.69,8.7,0,4.71,1.75,9.06,6.71,9.06,3.58,0,5-1.58,5.9-4.09Z"/><path class="cls-2" d="M260.54,103.84c0,7-4.8,11.63-13.72,11.63-9.26,0-13.22-5.83-13.22-11.58,0-6.2,4.39-11.62,13.5-11.62C256.39,92.27,260.54,98.36,260.54,103.84Zm-17.47,0c0,3.47,1.31,5.78,4,5.78S251,107.33,251,104s-1.05-5.85-3.95-5.85C244.31,98.14,243.07,100.33,243.07,103.83Z"/><path class="cls-2" d="M288.15,108c0,3.3.16,6.49.21,6.91h-8.62a18.85,18.85,0,0,1-.28-2.26c-1.35,1.84-3.84,2.84-7.72,2.84-5.6,0-8.45-3.24-8.45-7.14,0-5.55,4.78-7.45,12-7.45h4v-.72c0-1.5-.58-2.59-3-2.59-2.26,0-2.77.92-3,1.94h-8.72c.14-2.7,2-7.25,11.69-7.25,10.41,0,11.95,4.6,11.95,8.28Zm-8.92-2.43c-.4,0-1.54,0-3.35,0-2.65,0-3.72.8-3.72,2.18,0,1.17.91,2,2.76,2,2.69,0,4.31-1.11,4.31-3.9Z"/><path class="cls-2" d="M293.38,114.89v-31h9.34v31Z"/><path class="cls-2" d="M307.91,83.85h9.34v6h-9.34Zm0,9h9.34v22h-9.34Z"/><path class="cls-2" d="M320.78,92.86h3.66V86.71h9.34v6.15h4.51v6h-4.51v7.92c0,1.55.39,2.3,2.28,2.3a7.8,7.8,0,0,0,1.5-.11v5.66a22,22,0,0,1-5.38.55c-6.33,0-7.76-2.78-7.76-7.07V98.84h-3.64Z"/><path class="cls-2" d="M341.89,83.85h9.34v6h-9.34Zm0,9h9.34v22h-9.34Z"/><path class="cls-2" d="M382.21,103.84c0,7-4.8,11.63-13.72,11.63-9.26,0-13.21-5.83-13.21-11.58,0-6.2,4.39-11.62,13.49-11.62C378.06,92.27,382.21,98.36,382.21,103.84Zm-17.47,0c0,3.47,1.31,5.78,4,5.78s3.91-2.28,3.91-5.62-1.05-5.85-3.95-5.85C366,98.14,364.74,100.33,364.74,103.83Z"/><path class="cls-2" d="M386.24,98.59c0-1.93,0-4.29,0-5.73h9.17c.1.6.17,1.79.21,2.43,1-1.28,3-3,7.19-3,5.55,0,8.64,3.36,8.64,9v13.59H402v-12.7c0-2-.73-3.62-3-3.62s-3.42,1.45-3.42,4.81v11.51h-9.36Z"/><path class="cls-2" d="M428.63,114.89V98.83h-3.39v-6h3.39V91.78c0-5.93,3.45-8.27,9.32-8.27a17.07,17.07,0,0,1,3.36.27v5.64a10.39,10.39,0,0,0-1.11,0c-1.72,0-2.19.65-2.19,2.07v1.41h4.07v6H438v16.06Z"/><path class="cls-2" d="M470.88,103.84c0,7-4.81,11.63-13.73,11.63-9.26,0-13.21-5.83-13.21-11.58,0-6.2,4.39-11.62,13.49-11.62C466.72,92.27,470.88,98.36,470.88,103.84Zm-17.48,0c0,3.47,1.31,5.78,4,5.78s3.91-2.28,3.91-5.62-1.05-5.85-3.95-5.85C454.64,98.14,453.4,100.33,453.4,103.83Z"/><path class="cls-2" d="M474.93,99.2c0-2.11,0-4.53,0-6.34H484a39.21,39.21,0,0,1,.25,4.2c1-2.34,3.21-4.84,8-4.76v8.11c-5.07-.16-8,1.22-8,7.25v7.23h-9.34Z"/><path class="cls-2" d="M230.44,155.26c-1.35,6.23-6.34,10.7-15.84,10.7-10.95,0-16.45-7-16.45-15.46,0-8.09,5.42-15.44,16.85-15.44,10,0,14.74,5.23,15.51,10.59h-9.68c-.42-1.64-1.64-4.06-5.86-4.06-4.49,0-6.69,3.51-6.69,8.7,0,4.71,1.75,9.05,6.71,9.05,3.58,0,5-1.57,5.9-4.08Z"/><path class="cls-2" d="M260.54,154.24c0,7-4.8,11.63-13.72,11.63-9.26,0-13.22-5.83-13.22-11.58,0-6.2,4.39-11.62,13.5-11.62C256.39,142.67,260.54,148.76,260.54,154.24Zm-17.47,0c0,3.47,1.31,5.78,4,5.78s3.91-2.28,3.91-5.62-1.05-5.85-3.95-5.85C244.31,148.54,243.07,150.73,243.07,154.23Z"/><path class="cls-2" d="M264.57,149c0-1.93,0-4.29,0-5.73h9.17c.09.6.16,1.79.21,2.43,1-1.28,3-3,7.18-3,5.56,0,8.65,3.36,8.65,9v13.58h-9.41V152.59c0-2-.73-3.62-3-3.62s-3.42,1.45-3.42,4.81v11.5h-9.36Z"/><path class="cls-2" d="M292.51,143.26h3.66v-6.15h9.35v6.15H310v6h-4.5v7.92c0,1.55.38,2.3,2.28,2.3a7.76,7.76,0,0,0,1.49-.11V165a21.93,21.93,0,0,1-5.37.55c-6.33,0-7.76-2.78-7.76-7.07v-9.25h-3.65Z"/><path class="cls-2" d="M321.54,156.28a3.73,3.73,0,0,0,4,3.84c2.11,0,3-.67,3.56-1.7h9c-1.26,3.74-4.28,7.45-12.65,7.45-10,0-13.18-6-13.18-11.63,0-6.06,4-11.57,13.14-11.57,9.34,0,12.91,6,12.91,11.66,0,.38,0,1.46,0,1.95Zm7.67-4.73c-.08-1.63-.81-3.46-3.71-3.46s-3.8,1.51-3.91,3.46Z"/><path class="cls-2" d="M342.23,149c0-1.93,0-4.29,0-5.73h9.16c.1.6.17,1.79.21,2.43,1-1.28,3.05-3,7.19-3,5.55,0,8.64,3.36,8.64,9v13.58H358V152.59c0-2-.74-3.62-3-3.62s-3.41,1.45-3.41,4.81v11.5h-9.36Z"/><path class="cls-2" d="M370.17,143.26h3.66v-6.15h9.35v6.15h4.5v6h-4.5v7.92c0,1.55.38,2.3,2.27,2.3a7.8,7.8,0,0,0,1.5-.11V165a22,22,0,0,1-5.38.55c-6.32,0-7.76-2.78-7.76-7.07v-9.25h-3.64Z"/><path class="cls-2" d="M403.34,135.74H420c7.1,0,12.05,3.53,12.05,9.63,0,6.28-4.66,9.89-12,9.89h-7.09v10h-9.57Zm9.57,13h5.56c2.59,0,4.09-1.06,4.09-3.32,0-1.89-1.14-3.24-4.09-3.24h-5.56Z"/><path class="cls-2" d="M435.66,149.6c0-2.11,0-4.53,0-6.34h9.08a39.21,39.21,0,0,1,.25,4.2c1-2.34,3.21-4.84,8-4.76v8.11c-5.08-.16-8,1.22-8,7.25v7.22h-9.34Z"/><path class="cls-2" d="M482.3,154.24c0,7-4.8,11.63-13.72,11.63-9.26,0-13.22-5.83-13.22-11.58,0-6.2,4.39-11.62,13.5-11.62C478.14,142.67,482.3,148.76,482.3,154.24Zm-17.47,0c0,3.47,1.3,5.78,4,5.78s3.9-2.28,3.9-5.62-1-5.85-4-5.85C466.07,148.54,464.83,150.73,464.83,154.23Z"/><path class="cls-2" d="M493.18,143.26a151.71,151.71,0,0,1,4.29,14.92h.14c.73-3.18,2-8,4.11-14.92h9.4l-8.56,22H491.69l-8.51-22Z"/><path class="cls-2" d="M521.41,156.28a3.74,3.74,0,0,0,4,3.84c2.11,0,3-.67,3.56-1.7h9c-1.25,3.74-4.28,7.45-12.64,7.45-10,0-13.18-6-13.18-11.63,0-6.06,4-11.57,13.13-11.57,9.34,0,12.92,6,12.92,11.66,0,.38,0,1.46,0,1.95Zm7.67-4.73c-.08-1.63-.8-3.46-3.71-3.46s-3.79,1.51-3.9,3.46Z"/><path class="cls-2" d="M542.1,149c0-1.93,0-4.29,0-5.73h9.17c.1.6.17,1.79.21,2.43,1-1.28,3-3,7.19-3,5.55,0,8.64,3.36,8.64,9v13.58h-9.4V152.59c0-2-.74-3.62-3-3.62s-3.41,1.45-3.41,4.81v11.5H542.1Z"/><path class="cls-2" d="M596.05,158.38c0,3.3.16,6.49.21,6.9h-8.62a18.44,18.44,0,0,1-.28-2.25c-1.35,1.84-3.85,2.84-7.72,2.84-5.6,0-8.45-3.24-8.45-7.14,0-5.55,4.78-7.45,12-7.45h4v-.72c0-1.5-.58-2.59-3-2.59-2.26,0-2.77.92-3,1.94h-8.72c.14-2.7,2-7.25,11.69-7.25,10.41,0,11.95,4.6,11.95,8.28ZM587.13,156c-.4,0-1.54,0-3.35,0-2.65,0-3.72.8-3.72,2.18,0,1.17.91,2,2.76,2,2.69,0,4.31-1.11,4.31-3.9Z"/><path class="cls-2" d="M601.28,149c0-1.93,0-4.29,0-5.73h9.17c.1.6.17,1.79.21,2.43,1-1.28,3-3,7.18-3,5.56,0,8.65,3.36,8.65,9v13.58H617V152.59c0-2-.73-3.62-3-3.62s-3.42,1.45-3.42,4.81v11.5h-9.36Z"/><path class="cls-2" d="M656,157.47c-.8,4.3-4.3,8.4-12.58,8.4-9.59,0-13-5.7-13-11.68,0-6.14,4.38-11.52,13-11.52,10,0,12.25,6.15,12.42,8.49H647a3.08,3.08,0,0,0-3.28-2.73c-2.7,0-3.76,2.21-3.76,5.73s1,6,3.73,6c1.91,0,2.83-.77,3.45-2.65Z"/><path class="cls-2" d="M668,156.28a3.74,3.74,0,0,0,4,3.84c2.11,0,3-.67,3.56-1.7h9c-1.25,3.74-4.28,7.45-12.65,7.45-10,0-13.17-6-13.17-11.63,0-6.06,4-11.57,13.13-11.57,9.34,0,12.91,6,12.91,11.66,0,.38,0,1.46,0,1.95Zm7.67-4.73c-.08-1.63-.8-3.46-3.71-3.46s-3.8,1.51-3.91,3.46Z"/><path class="cls-2" d="M222.71,208.78c0,3.3.16,6.49.22,6.9h-8.62a16.67,16.67,0,0,1-.29-2.25c-1.35,1.84-3.84,2.84-7.71,2.84-5.6,0-8.45-3.24-8.45-7.14,0-5.55,4.78-7.45,12-7.45h4V201c0-1.5-.58-2.59-3-2.59-2.25,0-2.77.92-3,1.94h-8.71c.14-2.7,2-7.25,11.69-7.25,10.4,0,11.94,4.6,11.94,8.28Zm-8.91-2.43c-.41,0-1.55,0-3.36,0-2.64,0-3.72.8-3.72,2.18,0,1.17.92,2,2.76,2,2.7,0,4.32-1.11,4.32-3.9Z"/><path class="cls-2" d="M228,199.39c0-1.93,0-4.29,0-5.73h9.17c.1.6.17,1.79.21,2.43,1-1.28,3.05-3,7.19-3,5.55,0,8.64,3.36,8.64,9v13.58h-9.4V203c0-2-.74-3.62-3-3.62s-3.41,1.45-3.41,4.81v11.5H228Z"/><path class="cls-2" d="M284,184.65V208.9c0,2.25,0,5,.06,6.78H274.8c-.1-.61-.15-1.53-.2-2.24-1.44,1.75-3,2.85-7,2.85-6.3,0-10.47-4.78-10.47-11.51,0-7.41,5.46-11.69,11.13-11.69,3.93,0,5.64,1.21,6.32,2V184.65Zm-17.26,20c0,3.08,1.41,5.3,4.13,5.3s4-2,4-5.31-1.07-5.27-4-5.27S266.69,201.78,266.69,204.67Z"/><path class="cls-2" d="M308.63,210.18l-1.86,5.5h-9.63l11.17-29.54h12.52l11.9,29.54H322.42l-2-5.5Zm9.55-6.84c-1.93-5.32-3-8.68-3.79-11.15h-.14c-.64,2.44-1.95,6.63-3.52,11.15Z"/><path class="cls-2" d="M359.67,208.63c0,2.34,0,5.16,0,7.05h-9.16c-.1-.58-.11-1.55-.15-2.31-1.26,1.59-2.91,2.9-7.38,2.9-4.78,0-8.25-2.88-8.25-9V193.66h9.35v12.43c0,2.46.82,3.91,2.9,3.91,2.45,0,3.33-1.52,3.33-5.37v-11h9.34Z"/><path class="cls-2" d="M363.57,193.66h3.66v-6.15h9.35v6.15h4.5v6h-4.5v7.92c0,1.55.38,2.3,2.28,2.3a7.86,7.86,0,0,0,1.5-.11v5.66A22.08,22.08,0,0,1,375,216c-6.33,0-7.76-2.78-7.76-7.07v-9.25h-3.65Z"/><path class="cls-2" d="M393.91,184.65V196c1-1.11,3-2.91,7.24-2.91,5.5,0,8.59,3.14,8.59,9.23v13.38h-9.4V203c0-2.19-.57-3.65-2.86-3.65-2.46,0-3.54,1.87-3.54,5.14v11.17H384.6v-31Z"/><path class="cls-2" d="M423,206.68a3.73,3.73,0,0,0,4,3.84c2.11,0,3-.67,3.57-1.7h9c-1.26,3.74-4.28,7.45-12.65,7.45-10,0-13.18-6-13.18-11.63,0-6.06,4-11.57,13.14-11.57,9.34,0,12.91,6,12.91,11.66,0,.38,0,1.46,0,2Zm7.67-4.73c-.08-1.63-.81-3.46-3.71-3.46s-3.8,1.51-3.91,3.46Z"/><path class="cls-2" d="M443.7,199.39c0-1.93,0-4.29,0-5.73h9.16c.1.6.17,1.79.21,2.43,1-1.28,3.05-3,7.19-3,5.55,0,8.64,3.36,8.64,9v13.58h-9.4V203c0-2-.74-3.62-3-3.62s-3.41,1.45-3.41,4.81v11.5H443.7Z"/><path class="cls-2" d="M471.64,193.66h3.66v-6.15h9.35v6.15h4.5v6h-4.5v7.92c0,1.55.38,2.3,2.27,2.3a7.8,7.8,0,0,0,1.5-.11v5.66A22,22,0,0,1,483,216c-6.32,0-7.76-2.78-7.76-7.07v-9.25h-3.64Z"/><path class="cls-2" d="M492.75,184.65h9.34v6h-9.34Zm0,9h9.34v22h-9.34Z"/><path class="cls-2" d="M531.68,207.87c-.8,4.3-4.3,8.4-12.58,8.4-9.59,0-13-5.7-13-11.68,0-6.14,4.38-11.52,13-11.52,10,0,12.25,6.15,12.42,8.49h-8.88a3.08,3.08,0,0,0-3.28-2.74c-2.7,0-3.76,2.22-3.76,5.74s1,6,3.73,6c1.91,0,2.83-.77,3.45-2.65Z"/><path class="cls-2" d="M535.42,184.65h9.34v6h-9.34Zm0,9h9.34v22h-9.34Z"/><path class="cls-2" d="M548.29,193.66H552v-6.15h9.35v6.15h4.5v6h-4.5v7.92c0,1.55.38,2.3,2.27,2.3a7.8,7.8,0,0,0,1.5-.11v5.66a22,22,0,0,1-5.38.55c-6.32,0-7.76-2.78-7.76-7.07v-9.25h-3.64Z"/><path class="cls-2" d="M577.92,193.66a134.67,134.67,0,0,1,4.41,15.22h.2c.5-2.37,1.85-8.56,3.87-15.22h9.4L588.63,213c-3.36,9-5.14,12.05-13,12.05a28.42,28.42,0,0,1-4.19-.27v-6.57c.76.06,1.36.07,2,.07,2.48,0,3.13-.63,3.86-2l-9.44-22.63Z"/></svg>