<svg xmlns="http://www.w3.org/2000/svg" xmlns:xlink="http://www.w3.org/1999/xlink" contentStyleType="text/css" height="1499px" preserveAspectRatio="none" style="width:1077px;height:1499px;background:#FFFFFF;" version="1.1" viewBox="0 0 1077 1499" width="1077px" zoomAndPan="magnify"><defs/><g><!--class Asset--><g id="elem_Asset"><rect codeLine="35" fill="#F1F1F1" height="77.2188" id="Asset" rx="2.5" ry="2.5" style="stroke:#181818;stroke-width:0.5;" width="109.0566" x="864" y="7"/><text fill="#000000" font-family="sans-serif" font-size="16" font-weight="bold" lengthAdjust="spacing" textLength="49.9297" x="893.5635" y="26.8516">Asset</text><line style="stroke:#181818;stroke-width:0.5;" x1="865" x2="972.0566" y1="35.625" y2="35.625"/><text fill="#000000" font-family="sans-serif" font-size="14" lengthAdjust="spacing" textLength="55.6787" x="870" y="52.6201">Content</text><line style="stroke:#181818;stroke-width:1.0;stroke-dasharray:1.0,2.0;" x1="865" x2="972.0566" y1="59.9219" y2="59.9219"/><text fill="#000000" font-family="sans-serif" font-size="14" lengthAdjust="spacing" textLength="97.0566" x="870" y="76.917">ManifestStore</text></g><!--class Assertion--><g id="elem_Assertion"><rect codeLine="42" fill="#F1F1F1" height="77.2188" id="Assertion" rx="2.5" ry="2.5" style="stroke:#181818;stroke-width:0.5;" width="91.6875" x="635" y="929"/><text fill="#000000" font-family="sans-serif" font-size="16" font-weight="bold" lengthAdjust="spacing" textLength="85.6875" x="638" y="948.8516">Assertion</text><line style="stroke:#181818;stroke-width:0.5;" x1="636" x2="725.6875" y1="957.625" y2="957.625"/><text fill="#000000" font-family="sans-serif" font-size="14" lengthAdjust="spacing" textLength="33.4277" x="641" y="974.6201">Data</text><line style="stroke:#181818;stroke-width:1.0;stroke-dasharray:1.0,2.0;" x1="636" x2="725.6875" y1="981.9219" y2="981.9219"/><text fill="#000000" font-family="sans-serif" font-size="14" font-style="italic" lengthAdjust="spacing" textLength="66.2949" x="641" y="998.917">Metadata</text></g><!--class Binding--><g id="elem_Binding"><rect codeLine="47" fill="#F1F1F1" height="28.625" id="Binding" rx="2.5" ry="2.5" style="stroke:#181818;stroke-width:0.5;" width="74.8516" x="939" y="559"/><text fill="#000000" font-family="sans-serif" font-size="16" font-weight="bold" lengthAdjust="spacing" textLength="68.8516" x="942" y="578.8516">Binding</text></g><!--class Ingredient--><g id="elem_Ingredient"><rect codeLine="49" fill="#F1F1F1" height="125.8125" id="Ingredient" rx="2.5" ry="2.5" style="stroke:#181818;stroke-width:0.5;" width="191.625" x="586" y="1153"/><text fill="#000000" font-family="sans-serif" font-size="16" font-weight="bold" lengthAdjust="spacing" textLength="185.625" x="589" y="1172.8516">Ingredient Assertion</text><line style="stroke:#181818;stroke-width:0.5;" x1="587" x2="776.625" y1="1181.625" y2="1181.625"/><text fill="#000000" font-family="sans-serif" font-size="14" lengthAdjust="spacing" textLength="81.2861" x="592" y="1198.6201">Information</text><line style="stroke:#181818;stroke-width:1.0;stroke-dasharray:1.0,2.0;" x1="587" x2="776.625" y1="1205.9219" y2="1205.9219"/><text fill="#000000" font-family="sans-serif" font-size="14" font-style="italic" lengthAdjust="spacing" textLength="33.4277" x="592" y="1222.917">Data</text><line style="stroke:#181818;stroke-width:1.0;stroke-dasharray:1.0,2.0;" x1="587" x2="776.625" y1="1230.2188" y2="1230.2188"/><text fill="#000000" font-family="sans-serif" font-size="14" font-style="italic" lengthAdjust="spacing" textLength="74.0537" x="592" y="1247.2139">Thumbnail</text><line style="stroke:#181818;stroke-width:1.0;stroke-dasharray:1.0,2.0;" x1="587" x2="776.625" y1="1254.5156" y2="1254.5156"/><text fill="#000000" font-family="sans-serif" font-size="14" font-style="italic" lengthAdjust="spacing" textLength="59.7461" x="592" y="1271.5107">Manifest</text></g><!--class Claim--><g id="elem_Claim"><rect codeLine="59" fill="#F1F1F1" height="101.5156" id="Claim" rx="2.5" ry="2.5" style="stroke:#181818;stroke-width:0.5;" width="119.6182" x="496" y="653"/><text fill="#000000" font-family="sans-serif" font-size="16" font-weight="bold" lengthAdjust="spacing" textLength="50.1797" x="530.7192" y="672.8516">Claim</text><line style="stroke:#181818;stroke-width:0.5;" x1="497" x2="614.6182" y1="681.625" y2="681.625"/><text fill="#000000" font-family="sans-serif" font-size="14" lengthAdjust="spacing" textLength="72.6455" x="502" y="698.6201">Assertions</text><line style="stroke:#181818;stroke-width:1.0;stroke-dasharray:1.0,2.0;" x1="497" x2="614.6182" y1="705.9219" y2="705.9219"/><text fill="#000000" font-family="sans-serif" font-size="14" font-style="italic" lengthAdjust="spacing" textLength="77.6152" x="502" y="722.917">Redactions</text><line style="stroke:#181818;stroke-width:1.0;stroke-dasharray:1.0,2.0;" x1="497" x2="614.6182" y1="730.2188" y2="730.2188"/><text fill="#000000" font-family="sans-serif" font-size="14" lengthAdjust="spacing" textLength="107.6182" x="502" y="747.2139">ClaimSignature</text></g><!--class ClaimSignature--><g id="elem_ClaimSignature"><rect codeLine="66" fill="#F1F1F1" height="77.2188" id="ClaimSignature" rx="2.5" ry="2.5" style="stroke:#181818;stroke-width:0.5;" width="150.1797" x="203.5" y="929"/><text fill="#000000" font-family="sans-serif" font-size="16" font-weight="bold" lengthAdjust="spacing" textLength="144.1797" x="206.5" y="948.8516">Claim Signature</text><line style="stroke:#181818;stroke-width:0.5;" x1="204.5" x2="352.6797" y1="957.625" y2="957.625"/><text fill="#000000" font-family="sans-serif" font-size="14" lengthAdjust="spacing" textLength="130.6348" x="209.5" y="974.6201">Trusted Certificate</text><line style="stroke:#181818;stroke-width:1.0;stroke-dasharray:1.0,2.0;" x1="204.5" x2="352.6797" y1="981.9219" y2="981.9219"/><text fill="#000000" font-family="sans-serif" font-size="14" font-style="italic" lengthAdjust="spacing" textLength="138.0859" x="209.5" y="998.917">Trusted TimeStamp</text></g><!--class ManifestStore--><g id="elem_ManifestStore"><rect codeLine="72" fill="#F1F1F1" height="77.2188" id="ManifestStore" rx="2.5" ry="2.5" style="stroke:#181818;stroke-width:0.5;" width="151.0498" x="674" y="215"/><text fill="#000000" font-family="sans-serif" font-size="16" font-weight="bold" lengthAdjust="spacing" textLength="133.0547" x="682.9976" y="234.8516">Manifest Store</text><line style="stroke:#181818;stroke-width:0.5;" x1="675" x2="824.0498" y1="243.625" y2="243.625"/><text fill="#000000" font-family="sans-serif" font-size="14" lengthAdjust="spacing" textLength="103.2979" x="680" y="260.6201">ActiveManifest</text><line style="stroke:#181818;stroke-width:1.0;stroke-dasharray:1.0,2.0;" x1="675" x2="824.0498" y1="267.9219" y2="267.9219"/><text fill="#000000" font-family="sans-serif" font-size="14" font-style="italic" lengthAdjust="spacing" textLength="139.0498" x="680" y="284.917">IngredientManifests</text></g><!--class Manifest--><g id="elem_Manifest"><rect codeLine="77" fill="#F1F1F1" height="101.5156" id="Manifest" rx="2.5" ry="2.5" style="stroke:#181818;stroke-width:0.5;" width="119.6182" x="691" y="377"/><text fill="#000000" font-family="sans-serif" font-size="16" font-weight="bold" lengthAdjust="spacing" textLength="78.5781" x="711.52" y="396.8516">Manifest</text><line style="stroke:#181818;stroke-width:0.5;" x1="692" x2="809.6182" y1="405.625" y2="405.625"/><text fill="#000000" font-family="sans-serif" font-size="14" lengthAdjust="spacing" textLength="102.6621" x="697" y="422.6201">AssertionStore</text><line style="stroke:#181818;stroke-width:1.0;stroke-dasharray:1.0,2.0;" x1="692" x2="809.6182" y1="429.9219" y2="429.9219"/><text fill="#000000" font-family="sans-serif" font-size="14" lengthAdjust="spacing" textLength="39.7715" x="697" y="446.917">Claim</text><line style="stroke:#181818;stroke-width:1.0;stroke-dasharray:1.0,2.0;" x1="692" x2="809.6182" y1="454.2188" y2="454.2188"/><text fill="#000000" font-family="sans-serif" font-size="14" lengthAdjust="spacing" textLength="107.6182" x="697" y="471.2139">ClaimSignature</text></g><!--class IngredientManifest--><g id="elem_IngredientManifest"><rect codeLine="84" fill="#F1F1F1" height="28.625" id="IngredientManifest" rx="2.5" ry="2.5" style="stroke:#181818;stroke-width:0.5;" width="178.9453" x="7" y="1359"/><text fill="#000000" font-family="sans-serif" font-size="16" font-weight="bold" lengthAdjust="spacing" textLength="172.9453" x="10" y="1378.8516">IngredientManifest</text></g><!--class Redaction--><g id="elem_Redaction"><rect codeLine="87" fill="#F1F1F1" height="28.625" id="Redaction" rx="2.5" ry="2.5" style="stroke:#181818;stroke-width:0.5;" width="96.4219" x="331.5" y="835"/><text fill="#000000" font-family="sans-serif" font-size="16" font-weight="bold" lengthAdjust="spacing" textLength="90.4219" x="334.5" y="854.8516">Redaction</text></g><!--class Signer--><g id="elem_Signer"><rect codeLine="90" fill="#F1F1F1" height="28.625" id="Signer" rx="2.5" ry="2.5" style="stroke:#181818;stroke-width:0.5;" width="64.5938" x="160" y="835"/><text fill="#000000" font-family="sans-serif" font-size="16" font-weight="bold" lengthAdjust="spacing" textLength="58.5938" x="163" y="854.8516">Signer</text></g><!--link Asset to ManifestStore--><g id="link_Asset_ManifestStore"><path codeLine="93" d="M863.5,71.5 C797.95,71.5 769.9054,151.6837 757.9954,205.1137 " fill="none" id="Asset-to-ManifestStore" style="stroke:#181818;stroke-width:1.0;"/><polygon fill="#181818" points="756.69,210.97,762.5523,203.0559,757.7778,206.0898,754.7439,201.3153,756.69,210.97" style="stroke:#181818;stroke-width:1.0;"/></g><!--link Assertion to Ingredient--><g id="link_Assertion_Ingredient"><path codeLine="95" d="M727.5,969.5 C764.07,969.5 734.3206,1070.6169 708.5106,1143.1869 " fill="none" id="Assertion-to-Ingredient" style="stroke:#0000FF;stroke-width:1.0;"/><polygon fill="#0000FF" points="706.5,1148.84,713.2846,1141.7007,708.1755,1144.1291,705.7471,1139.02,706.5,1148.84" style="stroke:#0000FF;stroke-width:1.0;"/><text fill="#0000FF" font-family="sans-serif" font-size="13" lengthAdjust="spacing" textLength="95.1006" x="732.5" y="1084.0669">may reference</text></g><!--link Binding to Asset--><g id="link_Binding_Asset"><path codeLine="97" d="M980.2,558.72 C986.7,533.21 999.5,476.86 999.5,428.5 C999.5,149 999.5,149 999.5,149 C999.5,102.54 1026.96,47.5 980.5,47.5 " fill="none" id="Binding-to-Asset" style="stroke:#0000FF;stroke-width:1.0;"/><polygon fill="#0000FF" points="974.5,47.5,983.5,51.5,979.5,47.5,983.5,43.5,974.5,47.5" style="stroke:#0000FF;stroke-width:1.0;"/><text fill="#0000FF" font-family="sans-serif" font-size="13" lengthAdjust="spacing" textLength="69.418" x="1000.5" y="258.0669">references</text></g><!--link ManifestStore to Manifest--><g id="link_ManifestStore_Manifest"><path codeLine="100" d="M826.5,255.5 C878.64,255.5 839.2383,318.0032 799.8183,368.1432 " fill="none" id="ManifestStore-to-Manifest" style="stroke:#008000;stroke-width:1.0;"/><polygon fill="#008000" points="796.11,372.86,804.817,368.257,799.2003,368.9293,798.528,363.3126,796.11,372.86" style="stroke:#008000;stroke-width:1.0;"/><text fill="#008000" font-family="sans-serif" font-size="13" lengthAdjust="spacing" textLength="55.0278" x="828.5" y="339.0669">contains</text></g><!--link ManifestStore to IngredientManifest--><g id="link_ManifestStore_IngredientManifest"><path codeLine="101" d="M673.5,279.5 C534.93,279.5 67.5,287.93 67.5,426.5 C67.5,426.5 67.5,426.5 67.5,1216.5 C67.5,1269.94 82.4271,1326.2227 90.4971,1353.1427 " fill="none" id="ManifestStore-to-IngredientManifest" style="stroke:#008000;stroke-width:1.0;"/><polygon fill="#008000" points="92.22,1358.89,93.4672,1349.1204,90.7842,1354.1006,85.8041,1351.4176,92.22,1358.89" style="stroke:#008000;stroke-width:1.0;"/><text fill="#008000" font-family="sans-serif" font-size="13" lengthAdjust="spacing" textLength="55.0278" x="68.5" y="854.0669">contains</text><text fill="#008000" font-family="sans-serif" font-size="13" lengthAdjust="spacing" textLength="36.5625" x="48.118" y="1347.8975">many</text></g><!--link Manifest to Assertion--><g id="link_Manifest_Assertion"><path codeLine="103" d="M811.5,417.5 C840.17,417.5 813.43,453.48 810.5,482 C802.77,557.18 792.19,574.68 778.5,649 C760.92,744.43 773.98,772.92 740.5,864 C732.75,885.1 723.9046,901.7249 712.6446,919.7049 " fill="none" id="Manifest-to-Assertion" style="stroke:#008000;stroke-width:1.0;"/><polygon fill="#008000" points="709.46,924.79,717.6269,919.2854,712.1138,920.5524,710.8468,915.0393,709.46,924.79" style="stroke:#008000;stroke-width:1.0;"/><text fill="#008000" font-family="sans-serif" font-size="13" lengthAdjust="spacing" textLength="55.0278" x="779.5" y="708.0669">contains</text><text fill="#008000" font-family="sans-serif" font-size="13" lengthAdjust="spacing" textLength="36.5625" x="674.2943" y="918.0094">many</text></g><!--link Manifest to Binding--><g id="link_Manifest_Binding"><path codeLine="104" d="M811.5,417.5 C879.57,417.5 865.39,484.05 916.5,529 C928.87,539.88 938.9216,547.3568 950.8216,555.5168 " fill="none" id="Manifest-to-Binding" style="stroke:#008000;stroke-width:1.0;"/><polygon fill="#008000" points="955.77,558.91,950.6096,550.5213,951.6464,556.0824,946.0853,557.1192,955.77,558.91" style="stroke:#008000;stroke-width:1.0;"/><text fill="#008000" font-family="sans-serif" font-size="13" lengthAdjust="spacing" textLength="55.0278" x="917.5" y="525.0669">contains</text></g><!--link Manifest to Ingredient--><g id="link_Manifest_Ingredient"><path codeLine="105" d="M811.5,417.5 C883.88,417.5 861.5,500.12 861.5,572.5 C861.5,572.5 861.5,572.5 861.5,1080.5 C861.5,1125.3 830.4815,1154.0803 790.4615,1175.2903 " fill="none" id="Manifest-to-Ingredient" style="stroke:#008000;stroke-width:1.0;"/><polygon fill="#008000" points="785.16,1178.1,794.9853,1177.4198,789.5779,1175.7586,791.2391,1170.3511,785.16,1178.1" style="stroke:#008000;stroke-width:1.0;"/><text fill="#008000" font-family="sans-serif" font-size="13" lengthAdjust="spacing" textLength="80.7104" x="862.5" y="854.0669">may contain</text><text fill="#008000" font-family="sans-serif" font-size="13" lengthAdjust="spacing" textLength="36.5625" x="785.7301" y="1174.9548">many</text></g><!--link Manifest to Claim--><g id="link_Manifest_Claim"><path codeLine="106" d="M690.5,441.5 C598.04,441.5 569.5449,566.3727 560.3749,642.7827 " fill="none" id="Manifest-to-Claim" style="stroke:#181818;stroke-width:1.0;"/><polygon fill="#181818" points="559.66,648.74,564.7039,640.2807,560.2558,643.7756,556.7609,639.3275,559.66,648.74" style="stroke:#181818;stroke-width:1.0;"/></g><!--link Manifest to ClaimSignature--><g id="link_Manifest_ClaimSignature"><path codeLine="107" d="M690.5,466.5 C595.96,466.5 278.5,477.96 278.5,572.5 C278.5,572.5 278.5,572.5 278.5,850.5 C278.5,876.68 278.5,900.18 278.5,922.89 " fill="none" id="Manifest-to-ClaimSignature" style="stroke:#181818;stroke-width:1.0;"/><polygon fill="#181818" points="278.5,928.89,282.5,919.89,278.5,923.89,274.5,919.89,278.5,928.89" style="stroke:#181818;stroke-width:1.0;"/></g><!--link Ingredient to IngredientManifest--><g id="link_Ingredient_IngredientManifest"><path codeLine="109" d="M585.5,1266.5 C412.85,1266.5 219.1943,1328.3828 138.6843,1356.9628 " fill="none" id="Ingredient-to-IngredientManifest" style="stroke:#0000FF;stroke-width:1.0;"/><polygon fill="#0000FF" points="133.03,1358.97,142.8496,1359.7287,137.7419,1357.2973,140.1733,1352.1897,133.03,1358.97" style="stroke:#0000FF;stroke-width:1.0;"/><text fill="#0000FF" font-family="sans-serif" font-size="13" lengthAdjust="spacing" textLength="95.1006" x="282.5" y="1325.0669">may reference</text></g><!--link Claim to Assertion--><g id="link_Claim_Assertion"><path codeLine="111" d="M616.5,693.5 C628.23,693.5 657.4787,842.3619 671.7587,918.8419 " fill="none" id="Claim-to-Assertion" style="stroke:#0000FF;stroke-width:1.0;"/><polygon fill="#0000FF" points="672.86,924.74,675.1402,915.1587,671.9423,919.8249,667.2761,916.6271,672.86,924.74" style="stroke:#0000FF;stroke-width:1.0;"/><text fill="#0000FF" font-family="sans-serif" font-size="13" lengthAdjust="spacing" textLength="69.418" x="662.5" y="854.0669">references</text><text fill="#0000FF" font-family="sans-serif" font-size="13" lengthAdjust="spacing" textLength="36.5625" x="634.8922" y="917.9556">many</text></g><!--link Claim to Redaction--><g id="link_Claim_Redaction"><path codeLine="112" d="M495.5,717.5 C433.64,717.5 406.23,734.31 375.5,788 C367.34,802.25 368.9194,815.8431 372.7194,828.7831 " fill="none" id="Claim-to-Redaction" style="stroke:#0000FF;stroke-width:1.0;"/><polygon fill="#0000FF" points="374.41,834.54,375.7121,824.7776,373.0012,829.7426,368.0362,827.0317,374.41,834.54" style="stroke:#0000FF;stroke-width:1.0;"/><text fill="#0000FF" font-family="sans-serif" font-size="13" lengthAdjust="spacing" textLength="95.1006" x="376.5" y="801.0669">may reference</text><text fill="#0000FF" font-family="sans-serif" font-size="13" lengthAdjust="spacing" textLength="36.5625" x="330.497" y="823.9735">many</text></g><!--link Claim to ClaimSignature--><g id="link_Claim_ClaimSignature"><path codeLine="113" d="M495.5,742.5 C466.47,742.5 487.7,778.21 476.5,805 C464.99,832.52 464.99,842.32 444.5,864 C418.91,891.08 389.9019,910.8906 359.1619,928.0106 " fill="none" id="Claim-to-ClaimSignature" style="stroke:#0000FF;stroke-width:1.0;"/><polygon fill="#0000FF" points="353.92,930.93,363.7291,930.0456,358.2882,928.4972,359.8366,923.0564,353.92,930.93" style="stroke:#0000FF;stroke-width:1.0;"/><text fill="#0000FF" font-family="sans-serif" font-size="13" lengthAdjust="spacing" textLength="69.418" x="466.5" y="854.0669">references</text></g><!--link Signer to ClaimSignature--><g id="link_Signer_ClaimSignature"><path codeLine="115" d="M202.7,864.26 C214.45,880.11 230.6558,901.9707 247.0758,924.1107 " fill="none" id="Signer-to-ClaimSignature" style="stroke:#181818;stroke-width:1.0;"/><polygon fill="#181818" points="250.65,928.93,248.5016,919.3183,247.6715,924.9139,242.0759,924.0839,250.65,928.93" style="stroke:#181818;stroke-width:1.0;"/></g><rect fill="#DDDDDD" height="75.1875" id="_legend" rx="7.5" ry="7.5" style="stroke:#000000;stroke-width:1.0;" width="411.0195" x="326.4492" y="1404.625"/><ellipse cx="336.9492" cy="1418.4219" fill="#000000" rx="2.5" ry="2.5" style="stroke:#000000;stroke-width:0.0;"/><text fill="#000000" font-family="sans-serif" font-size="14" lengthAdjust="spacing" textLength="389.0195" x="343.4492" y="1422.6201">All relationships are singular unless otherwise specified</text><ellipse cx="336.9492" cy="1434.7188" fill="#000000" rx="2.5" ry="2.5" style="stroke:#000000;stroke-width:0.0;"/><text fill="#000000" font-family="sans-serif" font-size="14" lengthAdjust="spacing" textLength="295.5107" x="343.4492" y="1438.917">Green lines represent embedded/contains</text><ellipse cx="336.9492" cy="1451.0156" fill="#000000" rx="2.5" ry="2.5" style="stroke:#000000;stroke-width:0.0;"/><text fill="#000000" font-family="sans-serif" font-size="14" lengthAdjust="spacing" textLength="266.2529" x="343.4492" y="1455.2139">Blue lines represent linked references</text><ellipse cx="336.9492" cy="1467.3125" fill="#000000" rx="2.5" ry="2.5" style="stroke:#000000;stroke-width:0.0;"/><text fill="#000000" font-family="sans-serif" font-size="14" lengthAdjust="spacing" textLength="48.1523" x="343.4492" y="1471.5107">Text in</text><text fill="#000000" font-family="sans-serif" font-size="14" font-style="italic" lengthAdjust="spacing" textLength="40.7285" x="396.0518" y="1471.5107">italics</text><text fill="#000000" font-family="sans-serif" font-size="14" lengthAdjust="spacing" textLength="177.6592" x="441.2305" y="1471.5107">means optional elements</text><!--SRC=[fLHTQzim57ssVyKbVGWCMhENFNWbqARRw4CtMFC75El65fKb8ydDij7_lYlvGtOIci4AeTQzL-US-wKbVF-n-P83AYVS0OG5fe19mIpij852CclJM-iE4bTfE3q8LXfMmvyKEdVuydzBOCuPiMqTUXWEDRfASpkulshbrbeIx5QsE5ZlMV5I6jqgtlaEAANUfoDcnw5OFToea74q8ok0ntqMln4-VXfj4x9NeIMwURJF1xPQyjxyblhVMtgRzQccYSGI5K-Jv0FSIGa69ND2Ark9Xh8p25QeifNCGAiaaaJjAZHxOSdJO25s0hlRtmoY0YaKLSLWOz1IiG7hBNAEF2j83nFAXjXxAin9A9rVa9DXXmPLWLte1dyv40goJ3XgM66pZ0hE50bfl50c0INM143nb4cVJveieH8SWTIIKEr60rC7KjNG5BYAKhCtDpTf4Zo5C8N4_j25r5w_iG6ElMh1eJ5wItmMzi9L15PAqbmOlQT9GlGqzaMeXldPyHcwGuEW3Kr8wlM5yRkp5XrrDadML1KoqjSIl0xwzuIESUOO7OBbYIcnGqlDr8R4lSrGZ2z1G7gONCco0IJBfZVkXUAKie-FnaTL6kJ2Tu2sOJ4vZWIBmF2eQ5NgC1sHwA4d6SwRggstYWavDGufT6f6vhLaeWxG8vEDbtuYPqMmHQXmurcKYhbsNeov9sJImO-sBecDQQsZZgqztquKpE54VE_SY1gV7QkR8y6pLWIEmGB1r57SaUfN73mHFLPsyDbvUqQmMKdwlayASBaQfrHTpyU0iRX7TeyM7frW37EQv_Eqhw-l-GgEfZADUlFSpuGFMqrdwye_XfyTRNFklo27cXtYiXFRC9tXPa_TxyUPszDdOWddxWuxyFxbTBvWUJvl7tZ0yN1L-aUkWmgVX1KVjYEWC_qEQ8kQdg35kHwz2n_nIUDiEAQeyL7uDwrdiOPg_WV4IP9dmVm8z81Jl6vpGo_xWJ_onKMFGN4HqYJInkc5-K36ebySp00_oT9shASLVsVEO8I9xzgqK74XB-aPS2uNujBWzyj-fe9_0G00]--></g></svg>