<svg xmlns="http://www.w3.org/2000/svg" viewBox="0 0 25 25">
  <title>Algolia logo</title>
  <desc>Algolia logo - https://algolia.com - License: All rights reserved</desc>
  <metadata
    xmlns:dc="http://purl.org/dc/elements/1.1/"
    xmlns:cc="http://creativecommons.org/ns#"
    xmlns:rdf="http://www.w3.org/1999/02/22-rdf-syntax-ns#">
    <rdf:RDF>
      <cc:Work rdf:about="">
        <dc:title>Algolia logo</dc:title>
        <dc:format>image/svg+xml</dc:format>
        <dc:creator>
          <cc:Agent>
            <dc:title>Algolia</dc:title>
          </cc:Agent>
        </dc:creator>
        <dc:rights>
          <cc:Agent>
            <dc:title>Copyright (c) 2020 Algolia, Inc.</dc:title>
          </cc:Agent>
        </dc:rights>
        <dc:relation>https://algolia.com</dc:relation>
      </cc:Work>
    </rdf:RDF>
  </metadata>
  <g>
    <path
       fill="#5468ff"
       d="M 3.29186 0 L 21.708 0 C 23.5277 0.00284869 25.0011 1.47594 24.9999 3.29135 L 24.9999 21.7097 C 25.0005 23.5243 23.528 24.9966 21.7091 25.0001 L 3.29082 25.0001 C 1.47154 24.9966 -0.00114528 23.5237 0 21.7087 L 0 3.2831 C -4.3143e-08 2.41219 0.346853 1.57696 0.964226 0.961231 C 1.5816 0.345502 2.4189 -0.000273871 3.29186 0 Z" />
    <path
       fill="#ffffff"
       d="M 12.5838 6.80675 C 8.68653 6.80675 5.52299 9.96802 5.52299 13.8737 C 5.52299 17.7783 8.68653 20.9323 12.5848 20.9323 C 16.4831 20.9323 19.6466 17.771 19.6466 13.8654 C 19.6505 11.9945 18.9081 10.1989 17.5833 8.87469 C 16.2585 7.55048 14.4601 6.80647 12.5848 6.80675 Z M 12.5838 18.8479 C 9.83411 18.8427 7.60811 16.6169 7.60925 13.8737 C 7.60811 11.1304 9.83411 8.90459 12.5838 8.89946 C 15.3338 8.90402 17.5605 11.13 17.5593 13.8737 C 17.5613 15.1917 17.038 16.4565 16.1048 17.3894 C 15.1716 18.3224 13.9049 18.847 12.5838 18.8479 Z M 12.5838 9.91536 L 12.5838 13.6228 C 12.5838 13.7291 12.6976 13.8055 12.797 13.7518 L 16.0888 12.0463 C 16.1644 12.0081 16.1871 11.9172 16.1499 11.8408 C 15.4495 10.6066 14.1576 9.82299 12.7369 9.77082 C 12.6604 9.77082 12.5848 9.83277 12.5848 9.91536 Z M 7.97455 7.19287 L 7.54199 6.76132 C 7.33936 6.5578 7.06372 6.44335 6.7762 6.44335 C 6.48867 6.44335 6.21303 6.5578 6.01041 6.76132 L 5.49298 7.2765 C 5.28899 7.47949 5.17435 7.75511 5.17435 8.04255 C 5.17435 8.32999 5.28899 8.60562 5.49298 8.80861 L 5.91831 9.2319 C 5.98661 9.30107 6.08595 9.28559 6.14597 9.21745 C 6.39673 8.87337 6.67349 8.54893 6.97385 8.24697 C 7.28431 7.93621 7.60201 7.66365 7.95179 7.41278 C 8.02733 7.36735 8.03458 7.26101 7.97455 7.19287 Z M 14.8987 6.07063 L 14.8987 5.21372 C 14.8987 4.61492 14.4134 4.12968 13.8142 4.12968 L 11.2892 4.12968 C 10.689 4.12968 10.2036 4.61492 10.2036 5.21372 L 10.2036 6.09334 C 10.2036 6.19246 10.2947 6.26059 10.394 6.23788 C 11.1087 6.03137 11.8491 5.92674 12.5931 5.92712 C 13.3144 5.92712 14.0274 6.0252 14.7176 6.21517 C 14.7617 6.22568 14.8082 6.21531 14.8436 6.18706 C 14.879 6.15881 14.8993 6.11585 14.8987 6.07063 Z" />
  </g>
</svg>
