<svg xmlns="http://www.w3.org/2000/svg" viewBox="0 0 105.833 105.833"><path d="M26.157 0C11.721 0 0 11.72 0 26.157v53.52c0 14.436 11.721 26.156 26.157 26.156h53.52c14.437 0 26.156-11.72 26.156-26.157v-53.52C105.833 11.72 94.113 0 79.677 0z" clip-rule="evenodd" fill="#e40046" fill-rule="evenodd"/><path style="line-height:normal;font-variant-ligatures:normal;font-variant-position:normal;font-variant-caps:normal;font-variant-numeric:normal;font-variant-alternates:normal;font-feature-settings:normal;text-indent:0;text-align:start;text-decoration-line:none;text-decoration-style:solid;text-decoration-color:#000;text-transform:none;text-orientation:mixed;white-space:normal;shape-padding:0;isolation:auto;mix-blend-mode:normal;solid-color:#000;solid-opacity:1" d="M55.626 19.402a2.23 2.23 0 00-2.015 1.373L40.283 52.83a2.23 2.23 0 104.118 1.712l11.252-27.067 23.6 57.544a2.23 2.23 0 104.126-1.693l-25.648-62.54a2.23 2.23 0 00-2.105-1.384z" color="#000" font-weight="400" font-family="sans-serif" clip-rule="evenodd" overflow="visible" fill="#fff" fill-rule="evenodd"/><path d="M36.734 64.87a2.23 2.23 0 00-2.024 1.404l-7.084 17.042a2.23 2.23 0 104.118 1.712l7.084-17.042a2.23 2.23 0 00-2.094-3.115z" style="line-height:normal;font-variant-ligatures:normal;font-variant-position:normal;font-variant-caps:normal;font-variant-numeric:normal;font-variant-alternates:normal;font-feature-settings:normal;text-indent:0;text-align:start;text-decoration-line:none;text-decoration-style:solid;text-decoration-color:#000;text-transform:none;text-orientation:mixed;white-space:normal;shape-padding:0;isolation:auto;mix-blend-mode:normal;solid-color:#000;solid-opacity:1" color="#000" font-weight="400" font-family="sans-serif" overflow="visible" fill="#fff"/><path style="line-height:normal;font-variant-ligatures:normal;font-variant-position:normal;font-variant-caps:normal;font-variant-numeric:normal;font-variant-alternates:normal;font-feature-settings:normal;text-indent:0;text-align:start;text-decoration-line:none;text-decoration-style:solid;text-decoration-color:#000;text-transform:none;text-orientation:mixed;white-space:normal;shape-padding:0;isolation:auto;mix-blend-mode:normal;solid-color:#000;solid-opacity:1" d="M21.465 63.467a2.23 2.23 0 100 4.46H47.22a2.23 2.23 0 100-4.46zM26.18 52.88a2.23 2.23 0 100 4.459h25.751a2.23 2.23 0 100-4.46z" color="#000" font-weight="400" font-family="sans-serif" clip-rule="evenodd" overflow="visible" fill="#fff" fill-rule="evenodd"/></svg>