<svg version="1.1" id="Layer_1" xmlns="http://www.w3.org/2000/svg" x="0" y="0" viewBox="0 0 792 612" xml:space="preserve"><style>.st0{fill:#fff}.st1{fill:#231f20}</style><path class="st0" d="M390.3 279.4v58c0 31.6-25.6 57.2-57.2 57.2s-57.2-25.6-57.2-57.2v-58c14.1 9.2 34.5 15 57.2 15 22.3.1 43.1-6 57.2-15zm-.1-23.5c.3 3.2-1.4 6.2-4.1 7.7-13.8 7.7-32.4 12.6-53 12.6s-39.1-4.8-53-12.6c-2.8-1.6-4.4-4.6-4.1-7.7 2.6-29.2 27.2-52.2 57.1-52.2 29.9 0 54.5 23 57.1 52.2z"/><circle class="st0" cx="333.1" cy="249.9" r="10"/><circle class="st1" cx="362" cy="254" r="6"/><path class="st1" d="M333.1 263.9c-7.7 0-14-6.3-14-14s6.3-14 14-14 14 6.3 14 14-6.3 14-14 14zm0-19.9c-3.3 0-5.9 2.7-5.9 5.9s2.7 5.9 5.9 5.9 5.9-2.7 5.9-5.9-2.7-5.9-5.9-5.9zm0 154.7c-33.8 0-61.3-27.5-61.3-61.3v-58c0-1.5.8-2.8 2.1-3.5s2.9-.6 4.1.2c14 9.1 34 14.4 55 14.4 20.3 0 40.9-5.4 55.1-14.4 1.2-.8 2.8-.8 4.1-.1 1.3.7 2.1 2.1 2.1 3.5v58c0 33.7-27.5 61.2-61.2 61.2zm-53.3-112.2v51c0 29.3 23.9 53.2 53.2 53.2s53.2-23.9 53.2-53.2v-51c-14.9 7.7-33.9 12.1-53.2 12.1-19.5-.1-38.5-4.4-53.2-12.1z"/><path class="st1" d="M333.1 280.3c-20.4 0-39.9-4.6-54.9-13.1-4.2-2.3-6.6-6.9-6.2-11.6 1.3-15.2 8.3-29.3 19.6-39.7 11.4-10.5 26.1-16.2 41.5-16.2s30.2 5.8 41.5 16.2c11.3 10.4 18.2 24.5 19.6 39.7.4 4.7-2 9.3-6.2 11.6-15.1 8.4-34.6 13.1-54.9 13.1zm0-72.5c-27.3 0-50.6 21.3-53.1 48.5-.1 1.6.7 3.1 2.1 3.9 13.9 7.8 32 12 51 12s37.1-4.3 51-12c1.4-.8 2.2-2.3 2.1-3.9-2.5-27.2-25.8-48.5-53.1-48.5z"/><path class="st1" d="M323.1 253.7h-.3c-15.5-1.2-30.1-5.1-42.1-11.3-2-1-2.8-3.5-1.7-5.4 1-2 3.5-2.8 5.4-1.7 11.1 5.7 24.6 9.3 39 10.4 2.2.2 3.9 2.1 3.7 4.3-.1 2.1-1.9 3.7-4 3.7zm10 85.8c-22.5 0-44.1-5.7-59.3-15.6-1.9-1.2-2.4-3.7-1.2-5.6s3.7-2.4 5.6-1.2c14 9.1 34 14.3 54.9 14.3s41-5.2 54.9-14.3c1.9-1.2 4.4-.7 5.6 1.2 1.2 1.9.7 4.4-1.2 5.6-15.3 9.9-36.9 15.6-59.3 15.6z"/><path class="st1" d="M333.1 357.6c-22.4 0-43.9-5.7-59.2-15.5-1.9-1.2-2.4-3.7-1.2-5.6s3.7-2.4 5.6-1.2c14 9 33.9 14.2 54.8 14.2s40.8-5.2 54.8-14.2c1.9-1.2 4.4-.7 5.6 1.2 1.2 1.9.7 4.4-1.2 5.6-15.3 9.9-36.9 15.5-59.2 15.5z"/><path d="M434.9 295.7c2.9 1.4 6.4 2.1 10.4 2.1s7.5-.7 10.2-2.1c2.7-1.4 5-3.1 6.7-5 1.7-1.9 2.9-4 3.7-6s1.1-3.8 1.1-5.1c0-.4-.2-.6-.6-.6h-7c-.4 0-.7.2-.8.6-.3 1-.7 2.2-1.3 3.5-.5 1.3-1.3 2.5-2.3 3.6-1 1.1-2.3 2-3.8 2.8-1.5.8-3.5 1.1-5.8 1.1-4.7 0-8.3-1.9-10.8-5.8s-3.8-9.3-3.8-16.1c0-6.9 1.3-12.3 3.8-16.1 2.5-3.8 6.1-5.8 10.8-5.8 2.4 0 4.4.4 5.9 1.2 1.5.8 2.8 1.8 3.8 3 1 1.1 1.7 2.4 2.2 3.6.5 1.3.9 2.3 1.2 3.2.1.4.4.6.8.6h7c.4 0 .6-.2.6-.7 0-1.1-.3-2.7-1-4.8-.7-2-1.9-4.1-3.5-6-1.7-2-3.9-3.7-6.7-5.2-2.8-1.5-6.3-2.2-10.5-2.2-4 0-7.5.7-10.4 2.2-2.9 1.5-5.3 3.5-7.2 6.1-1.9 2.6-3.3 5.7-4.2 9.2-.9 3.5-1.3 7.5-1.3 11.7 0 4.3.4 8.2 1.3 11.8.9 3.6 2.3 6.7 4.2 9.2 1.9 2.5 4.4 4.6 7.3 6zm45 1.3h38c.4 0 .7-.2.7-.6v-6c0-.4-.2-.6-.7-.6h-27.2v-.2l18.5-16.2c.7-.7 1.6-1.6 2.7-2.6s2.1-2.3 3.1-3.7c1-1.4 1.8-3 2.5-4.7.7-1.7 1.1-3.6 1.1-5.7 0-2.3-.4-4.5-1.3-6.6-.9-2.1-2.2-3.9-3.8-5.5-1.6-1.5-3.7-2.8-6.1-3.7-2.4-.9-5.2-1.4-8.2-1.4-2.7 0-5.2.4-7.5 1.2-2.3.8-4.3 1.9-6 3.4-1.7 1.4-3 3.2-4 5.2-.9 2-1.4 4.3-1.4 6.7 0 .4.2.6.7.6h7.1c.4 0 .7-.2.7-.6 0-1.2.2-2.3.7-3.4.5-1.1 1.2-2.1 2.1-2.9.9-.9 2-1.5 3.3-2.1 1.3-.5 2.7-.8 4.3-.8 1.9 0 3.6.3 4.9 1 1.4.6 2.5 1.5 3.4 2.5.9 1 1.5 2.1 2 3.2.4 1.2.7 2.2.7 3.2 0 1.2-.3 2.4-.8 3.5-.5 1.2-1.2 2.3-2 3.3s-1.6 1.9-2.4 2.6l-25.2 23.4c-.2.1-.3.4-.3.6-.1.3-.1.4-.1.6v5.6c-.2.5.1.7.5.7zm-17.1 17.3c-1.5-1.6-3.3-2.8-5.3-3.7-2-.9-4.1-1.3-6.3-1.3h-22.6c-.4 0-.7.2-.7.7v55.5c0 .4.2.7.7.7h6.8c.4 0 .7-.2.7-.7v-21.6c0-.1 0-.2.1-.2h15c2.2 0 4.3-.4 6.3-1.3s3.8-2.1 5.3-3.6 2.7-3.4 3.6-5.4c.9-2 1.3-4.3 1.3-6.7 0-2.4-.5-4.7-1.3-6.8-.9-2.2-2.1-4.1-3.6-5.6zm-3.2 12.3c0 1.3-.3 2.6-.8 3.8-.5 1.2-1.2 2.2-2.1 3.1-.9.9-1.9 1.6-3 2.1s-2.3.8-3.5.8h-14c-.1 0-.1 0-.1-.1v-19.5c0-.1 0-.1.1-.1h14c1.2 0 2.4.3 3.5.8s2.1 1.3 3 2.2c.9.9 1.6 2 2.1 3.2.5 1 .8 2.3.8 3.7zm64.6 38.6l-18.6-55.5c-.2-.5-.5-.6-.7-.6H495c-.2 0-.5.1-.7.6l-18.9 55.4c-.1.2-.1.4 0 .6.1.2.3.2.6.2h7.5c.3 0 .5-.2.6-.6l3.8-11.4c.1-.2.2-.2.2-.2h23.2c.3 0 .3.1.3.2l3.7 11.5c.2.5.4.6.6.6h7.5c.3 0 .5-.1.6-.2.2-.1.2-.3.2-.6zm-14.8-18.3h-19.2v-.1l9.4-29.2c.1-.3.2-.3.3 0l9.4 29.2c.1 0 .1.1.1.1z"/></svg>