<?xml version="1.0" encoding="utf-8"?>
<!-- Generator: Adobe Illustrator 25.2.0, SVG Export Plug-In . SVG Version: 6.00 Build 0)  -->
<svg version="1.1" id="Layer_1" xmlns="http://www.w3.org/2000/svg" xmlns:xlink="http://www.w3.org/1999/xlink" x="0px" y="0px"
	 viewBox="0 0 792 612" style="enable-background:new 0 0 792 612;" xml:space="preserve">
<style type="text/css">
	.st0{fill:#FFFFFF;}
	.st1{fill:#231F20;}
	.st2{fill:none;stroke:#231F20;stroke-width:8.0705;stroke-linecap:round;stroke-linejoin:round;stroke-miterlimit:10;}
</style>
<g>
	<path class="st0" d="M390.3,279.4v58c0,31.6-25.6,57.2-57.2,57.2h0c-31.6,0-57.2-25.6-57.2-57.2l0-58c14.1,9.2,34.5,15,57.2,15
		C355.4,294.5,376.2,288.4,390.3,279.4z"/>
	<path class="st0" d="M390.2,255.9c0.3,3.2-1.4,6.2-4.1,7.7c-13.8,7.7-32.4,12.6-53,12.6s-39.1-4.8-53-12.6
		c-2.8-1.6-4.4-4.6-4.1-7.7c2.6-29.2,27.2-52.2,57.1-52.2h0C363,203.7,387.6,226.7,390.2,255.9z"/>
	<circle class="st0" cx="333.1" cy="249.9" r="10"/>
	<path class="st0" d="M275.8,261.1"/>
</g>
<g>
	<circle class="st1" cx="362" cy="254" r="6"/>
	<path class="st1" d="M333.1,263.9c-7.7,0-14-6.3-14-14s6.3-14,14-14s14,6.3,14,14S340.8,263.9,333.1,263.9z M333.1,244
		c-3.3,0-5.9,2.7-5.9,5.9s2.7,5.9,5.9,5.9s5.9-2.7,5.9-5.9S336.3,244,333.1,244z"/>
	<path class="st1" d="M333.1,398.7c-33.8,0-61.3-27.5-61.3-61.3v-58c0-1.5,0.8-2.8,2.1-3.5s2.9-0.6,4.1,0.2c14,9.1,34,14.4,55,14.4
		c20.3,0,40.9-5.4,55.1-14.4c1.2-0.8,2.8-0.8,4.1-0.1c1.3,0.7,2.1,2.1,2.1,3.5v58C394.3,371.2,366.8,398.7,333.1,398.7z
		 M279.8,286.5v51c0,29.3,23.9,53.2,53.2,53.2s53.2-23.9,53.2-53.2v-51c-14.9,7.7-33.9,12.1-53.2,12.1
		C313.5,298.5,294.5,294.2,279.8,286.5z"/>
	<path class="st1" d="M333.1,280.3c-20.4,0-39.9-4.6-54.9-13.1c-4.2-2.3-6.6-6.9-6.2-11.6c1.3-15.2,8.3-29.3,19.6-39.7
		c11.4-10.5,26.1-16.2,41.5-16.2s30.2,5.8,41.5,16.2c11.3,10.4,18.2,24.5,19.6,39.7l0,0c0.4,4.7-2,9.3-6.2,11.6
		C372.9,275.6,353.4,280.3,333.1,280.3z M333.1,207.8c-27.3,0-50.6,21.3-53.1,48.5c-0.1,1.6,0.7,3.1,2.1,3.9c13.9,7.8,32,12,51,12
		s37.1-4.3,51-12c1.4-0.8,2.2-2.3,2.1-3.9l0,0C383.7,229.1,360.4,207.8,333.1,207.8z"/>
	<path class="st1" d="M323.1,253.7c-0.1,0-0.2,0-0.3,0c-15.5-1.2-30.1-5.1-42.1-11.3c-2-1-2.8-3.5-1.7-5.4c1-2,3.5-2.8,5.4-1.7
		c11.1,5.7,24.6,9.3,39,10.4c2.2,0.2,3.9,2.1,3.7,4.3C327,252.1,325.2,253.7,323.1,253.7z"/>
	<path class="st1" d="M333.1,339.5c-22.5,0-44.1-5.7-59.3-15.6c-1.9-1.2-2.4-3.7-1.2-5.6s3.7-2.4,5.6-1.2c14,9.1,34,14.3,54.9,14.3
		s41-5.2,54.9-14.3c1.9-1.2,4.4-0.7,5.6,1.2c1.2,1.9,0.7,4.4-1.2,5.6C377.1,333.8,355.5,339.5,333.1,339.5z"/>
	<path class="st1" d="M333.1,357.6c-22.4,0-43.9-5.7-59.2-15.5c-1.9-1.2-2.4-3.7-1.2-5.6s3.7-2.4,5.6-1.2c14,9,33.9,14.2,54.8,14.2
		s40.8-5.2,54.8-14.2c1.9-1.2,4.4-0.7,5.6,1.2c1.2,1.9,0.7,4.4-1.2,5.6C377,352,355.4,357.6,333.1,357.6z"/>
	<path class="st2" d="M275.8,261.1"/>
</g>
<g>
	<path d="M434.9,295.7c2.9,1.4,6.4,2.1,10.4,2.1c4,0,7.5-0.7,10.2-2.1c2.7-1.4,5-3.1,6.7-5c1.7-1.9,2.9-4,3.7-6s1.1-3.8,1.1-5.1
		c0-0.4-0.2-0.6-0.6-0.6h-7c-0.4,0-0.7,0.2-0.8,0.6c-0.3,1-0.7,2.2-1.3,3.5c-0.5,1.3-1.3,2.5-2.3,3.6c-1,1.1-2.3,2-3.8,2.8
		c-1.5,0.8-3.5,1.1-5.8,1.1c-4.7,0-8.3-1.9-10.8-5.8c-2.5-3.9-3.8-9.3-3.8-16.1c0-6.9,1.3-12.3,3.8-16.1c2.5-3.8,6.1-5.8,10.8-5.8
		c2.4,0,4.4,0.4,5.9,1.2c1.5,0.8,2.8,1.8,3.8,3c1,1.1,1.7,2.4,2.2,3.6c0.5,1.3,0.9,2.3,1.2,3.2c0.1,0.4,0.4,0.6,0.8,0.6h7
		c0.4,0,0.6-0.2,0.6-0.7c0-1.1-0.3-2.7-1-4.8c-0.7-2-1.9-4.1-3.5-6c-1.7-2-3.9-3.7-6.7-5.2c-2.8-1.5-6.3-2.2-10.5-2.2
		c-4,0-7.5,0.7-10.4,2.2c-2.9,1.5-5.3,3.5-7.2,6.1c-1.9,2.6-3.3,5.7-4.2,9.2c-0.9,3.5-1.3,7.5-1.3,11.7c0,4.3,0.4,8.2,1.3,11.8
		c0.9,3.6,2.3,6.7,4.2,9.2C429.5,292.2,432,294.3,434.9,295.7z"/>
	<path d="M479.9,297h38c0.4,0,0.7-0.2,0.7-0.6v-6c0-0.4-0.2-0.6-0.7-0.6h-27c-0.2,0-0.2,0-0.2,0c0-0.1,0-0.1,0-0.2l18.5-16.2
		c0.7-0.7,1.6-1.6,2.7-2.6c1.1-1,2.1-2.3,3.1-3.7c1-1.4,1.8-3,2.5-4.7c0.7-1.7,1.1-3.6,1.1-5.7c0-2.3-0.4-4.5-1.3-6.6
		c-0.9-2.1-2.2-3.9-3.8-5.5c-1.6-1.5-3.7-2.8-6.1-3.7c-2.4-0.9-5.2-1.4-8.2-1.4c-2.7,0-5.2,0.4-7.5,1.2c-2.3,0.8-4.3,1.9-6,3.4
		c-1.7,1.4-3,3.2-4,5.2c-0.9,2-1.4,4.3-1.4,6.7c0,0.4,0.2,0.6,0.7,0.6h7.1c0.4,0,0.7-0.2,0.7-0.6c0-1.2,0.2-2.3,0.7-3.4
		c0.5-1.1,1.2-2.1,2.1-2.9c0.9-0.9,2-1.5,3.3-2.1c1.3-0.5,2.7-0.8,4.3-0.8c1.9,0,3.6,0.3,4.9,1c1.4,0.6,2.5,1.5,3.4,2.5
		c0.9,1,1.5,2.1,2,3.2c0.4,1.2,0.7,2.2,0.7,3.2c0,1.2-0.3,2.4-0.8,3.5c-0.5,1.2-1.2,2.3-2,3.3c-0.8,1-1.6,1.9-2.4,2.6l-25.2,23.4
		c-0.2,0.1-0.3,0.4-0.3,0.6c-0.1,0.3-0.1,0.4-0.1,0.6v5.6C479.2,296.8,479.5,297,479.9,297z"/>
	<path d="M462.8,314.3c-1.5-1.6-3.3-2.8-5.3-3.7c-2-0.9-4.1-1.3-6.3-1.3h-22.6c-0.4,0-0.7,0.2-0.7,0.7v55.5c0,0.4,0.2,0.7,0.7,0.7
		h6.8c0.4,0,0.7-0.2,0.7-0.7v-21.6c0-0.1,0-0.2,0.1-0.2h15c2.2,0,4.3-0.4,6.3-1.3c2-0.9,3.8-2.1,5.3-3.6c1.5-1.5,2.7-3.4,3.6-5.4
		c0.9-2,1.3-4.3,1.3-6.7c0-2.4-0.5-4.7-1.3-6.8C465.5,317.7,464.3,315.8,462.8,314.3z M459.6,326.6c0,1.3-0.3,2.6-0.8,3.8
		c-0.5,1.2-1.2,2.2-2.1,3.1c-0.9,0.9-1.9,1.6-3,2.1c-1.1,0.5-2.3,0.8-3.5,0.8h-14c-0.1,0-0.1,0-0.1-0.1v-19.5c0-0.1,0-0.1,0.1-0.1
		h14c1.2,0,2.4,0.3,3.5,0.8c1.1,0.5,2.1,1.3,3,2.2c0.9,0.9,1.6,2,2.1,3.2C459.3,323.9,459.6,325.2,459.6,326.6z"/>
	<path d="M524.2,365.2l-18.6-55.5c-0.2-0.5-0.5-0.6-0.7-0.6H495c-0.2,0-0.5,0.1-0.7,0.6l-18.9,55.4c-0.1,0.2-0.1,0.4,0,0.6
		c0.1,0.2,0.3,0.2,0.6,0.2h7.5c0.3,0,0.5-0.2,0.6-0.6l3.8-11.4c0.1-0.2,0.2-0.2,0.2-0.2h23.2c0.3,0,0.3,0.1,0.3,0.2l3.7,11.5
		c0.2,0.5,0.4,0.6,0.6,0.6h7.5c0.3,0,0.5-0.1,0.6-0.2C524.2,365.7,524.2,365.5,524.2,365.2z M509.4,346.9c0,0-0.1,0-0.2,0h-18.8
		c-0.1,0-0.2,0-0.2,0c0,0,0,0,0,0c0,0,0,0,0-0.1l9.4-29.2c0.1-0.3,0.2-0.3,0.3,0l9.4,29.2C509.4,346.8,509.4,346.9,509.4,346.9z"/>
</g>
</svg>
