<svg xmlns="http://www.w3.org/2000/svg" viewBox="0 0 25 25"><desc>Algolia logo - https://algolia.com - License: All rights reserved</desc><path fill="#5468ff" d="M3.292 0h18.416A3.293 3.293 0 0125 3.291V21.71A3.293 3.293 0 0121.71 25H3.29A3.293 3.293 0 010 21.71V3.283c0-.87.347-1.706.964-2.322A3.295 3.295 0 013.292 0z"/><path fill="#fff" d="M12.584 6.807a7.064 7.064 0 00-7.061 7.067 7.057 7.057 0 007.062 7.058 7.064 7.064 0 007.062-7.067 7.036 7.036 0 00-2.064-4.99 7.07 7.07 0 00-4.998-2.068zm0 12.04a4.978 4.978 0 01-4.975-4.973 4.978 4.978 0 014.975-4.975 4.978 4.978 0 014.975 4.975 4.96 4.96 0 01-1.454 3.515 4.985 4.985 0 01-3.521 1.459zm0-8.932v3.708c0 .106.114.183.213.129l3.292-1.706c.075-.038.098-.129.06-.205a4.096 4.096 0 00-3.412-2.07c-.077 0-.152.062-.152.144zm-4.61-2.722l-.432-.432a1.08 1.08 0 00-1.532 0l-.517.516a1.08 1.08 0 000 1.532l.425.423c.069.07.168.054.228-.015a8.22 8.22 0 01.828-.97c.31-.31.628-.583.978-.834.075-.046.083-.152.023-.22zM14.9 6.07v-.857c0-.6-.486-1.084-1.085-1.084H11.29c-.6 0-1.085.485-1.085 1.084v.88c0 .098.09.167.19.144a7.908 7.908 0 012.2-.31c.72 0 1.433.097 2.124.287a.147.147 0 00.18-.144z"/></svg>