<svg xmlns="http://www.w3.org/2000/svg" viewBox="0 0 24 144"><desc>Octicons v11.2.0 by GitHub - https://primer.style/octicons/ - License: MIT</desc><symbol id="icon-arrow-left" viewBox="0 0 24 24"><path d="M10.78 19.03a.75.75 0 01-1.06 0l-6.25-6.25a.75.75 0 010-1.06l6.25-6.25a.75.75 0 111.06 1.06L5.81 11.5h14.44a.75.75 0 010 1.5H5.81l4.97 4.97a.75.75 0 010 1.06z" fill-rule="evenodd"/></symbol><symbol id="icon-comment-discussion" viewBox="0 0 24 24"><path d="M1.75 1A1.75 1.75 0 000 2.75v9.5C0 13.216.784 14 1.75 14H3v1.543a1.457 1.457 0 002.487 1.03L8.061 14h6.189A1.75 1.75 0 0016 12.25v-9.5A1.75 1.75 0 0014.25 1H1.75zM1.5 2.75a.25.25 0 01.25-.25h12.5a.25.25 0 01.25.25v9.5a.25.25 0 01-.25.25h-6.5a.75.75 0 00-.53.22L4.5 15.44v-2.19a.75.75 0 00-.75-.75h-2a.25.25 0 01-.25-.25v-9.5z" fill-rule="evenodd"/><path d="M22.5 8.75a.25.25 0 00-.25-.25h-3.5a.75.75 0 010-1.5h3.5c.966 0 1.75.784 1.75 1.75v9.5A1.75 1.75 0 0122.25 20H21v1.543a1.457 1.457 0 01-2.487 1.03L15.939 20H10.75A1.75 1.75 0 019 18.25v-1.465a.75.75 0 011.5 0v1.465c0 .138.112.25.25.25h5.5a.75.75 0 01.53.22l2.72 2.72v-2.19a.75.75 0 01.75-.75h2a.25.25 0 00.25-.25v-9.5z"/></symbol><symbol id="icon-file-directory" viewBox="0 0 24 24"><path d="M3.75 4.5a.25.25 0 00-.25.25v14.5c0 .138.112.25.25.25h16.5a.25.25 0 00.25-.25V7.687a.25.25 0 00-.25-.25h-8.471a1.75 1.75 0 01-1.447-.765L8.928 4.61a.25.25 0 00-.208-.11H3.75zM2 4.75C2 3.784 2.784 3 3.75 3h4.971c.58 0 1.12.286 1.447.765l1.404 2.063a.25.25 0 00.207.11h8.471c.966 0 1.75.783 1.75 1.75V19.25A1.75 1.75 0 0120.25 21H3.75A1.75 1.75 0 012 19.25V4.75z" fill-rule="evenodd"/></symbol><symbol id="icon-fold" viewBox="0 0 24 24"><path d="M12 15a.75.75 0 01.53.22l3.25 3.25a.75.75 0 11-1.06 1.06L12 16.81l-2.72 2.72a.75.75 0 01-1.06-1.06l3.25-3.25A.75.75 0 0112 15z" fill-rule="evenodd"/><path d="M12 15.75a.75.75 0 01.75.75v5.75a.75.75 0 01-1.5 0V16.5a.75.75 0 01.75-.75zm.53-6.97a.75.75 0 01-1.06 0L8.22 5.53a.75.75 0 011.06-1.06L12 7.19l2.72-2.72a.75.75 0 111.06 1.06l-3.25 3.25z" fill-rule="evenodd"/><path d="M12 8.5a.75.75 0 01-.75-.75v-6a.75.75 0 011.5 0v6a.75.75 0 01-.75.75zM10.75 12a.75.75 0 01.75-.75h1a.75.75 0 010 1.5h-1a.75.75 0 01-.75-.75zm-8 0a.75.75 0 01.75-.75h1a.75.75 0 010 1.5h-1a.75.75 0 01-.75-.75zm12 0a.75.75 0 01.75-.75h1a.75.75 0 010 1.5h-1a.75.75 0 01-.75-.75zm-8 0a.75.75 0 01.75-.75h1a.75.75 0 010 1.5h-1a.75.75 0 01-.75-.75zm12 0a.75.75 0 01.75-.75h1a.75.75 0 010 1.5h-1a.75.75 0 01-.75-.75z" fill-rule="evenodd"/></symbol><symbol id="icon-home" viewBox="0 0 24 24"><path d="M11.03 2.59a1.5 1.5 0 011.94 0l7.5 6.363a1.5 1.5 0 01.53 1.144V19.5a1.5 1.5 0 01-1.5 1.5h-5.75a.75.75 0 01-.75-.75V14h-2v6.25a.75.75 0 01-.75.75H4.5A1.5 1.5 0 013 19.5v-9.403c0-.44.194-.859.53-1.144l7.5-6.363zM12 3.734l-7.5 6.363V19.5h5v-6.25a.75.75 0 01.75-.75h3.5a.75.75 0 01.75.75v6.25h5v-9.403L12 3.734z" fill-rule="evenodd"/></symbol><symbol id="icon-home-fill" viewBox="0 0 24 24"><path d="M12.97 2.59a1.5 1.5 0 00-1.94 0l-7.5 6.363A1.5 1.5 0 003 10.097V19.5A1.5 1.5 0 004.5 21h4.75a.75.75 0 00.75-.75V14h4v6.25c0 .414.336.75.75.75h4.75a1.5 1.5 0 001.5-1.5v-9.403a1.5 1.5 0 00-.53-1.144l-7.5-6.363z" fill-rule="evenodd"/></symbol><symbol id="icon-unfold" viewBox="0 0 24 24"><path d="M12 23a.75.75 0 01-.53-.22l-3.25-3.25a.75.75 0 111.06-1.06L12 21.19l2.72-2.72a.75.75 0 111.06 1.06l-3.25 3.25A.75.75 0 0112 23z" fill-rule="evenodd"/><path d="M12 22.25a.75.75 0 01-.75-.75v-5.75a.75.75 0 011.5 0v5.75a.75.75 0 01-.75.75zM10.75 12a.75.75 0 01.75-.75h1a.75.75 0 110 1.5h-1a.75.75 0 01-.75-.75zm-8 0a.75.75 0 01.75-.75h1a.75.75 0 010 1.5h-1a.75.75 0 01-.75-.75zm12 0a.75.75 0 01.75-.75h1a.75.75 0 010 1.5h-1a.75.75 0 01-.75-.75zm-8 0a.75.75 0 01.75-.75h1a.75.75 0 010 1.5h-1a.75.75 0 01-.75-.75zm12 0a.75.75 0 01.75-.75h1a.75.75 0 010 1.5h-1a.75.75 0 01-.75-.75zM11.47 1.22a.75.75 0 011.06 0l3.25 3.25a.75.75 0 01-1.06 1.06L12 2.81 9.28 5.53a.75.75 0 01-1.06-1.06l3.25-3.25z" fill-rule="evenodd"/><path d="M12 1.5a.75.75 0 01.75.75v6a.75.75 0 01-1.5 0v-6A.75.75 0 0112 1.5z" fill-rule="evenodd"/></symbol><use href="#icon-arrow-left" width="24" height="24"/><view id="view-arrow-left" viewBox="0 0 24 24"/><use href="#icon-comment-discussion" width="24" height="24" y="24"/><view id="view-comment-discussion" viewBox="0 24 24 24"/><use href="#icon-file-directory" width="24" height="24" y="48"/><view id="view-file-directory" viewBox="0 48 24 24"/><use href="#icon-fold" width="24" height="24" y="72"/><view id="view-fold" viewBox="0 72 24 24"/><use href="#icon-home" width="24" height="24" y="96"/><view id="view-home" viewBox="0 96 24 24"/><use href="#icon-home-fill" width="24" height="24" y="120"/><view id="view-home-fill" viewBox="0 120 24 24"/><use href="#icon-unfold" width="24" height="24" y="144"/><view id="view-unfold" viewBox="0 144 24 24"/></svg>