<?xml version="1.0" encoding="UTF-8"?>
<svg width="304px" height="741px" viewBox="0 0 304 741" version="1.1" xmlns="http://www.w3.org/2000/svg" xmlns:xlink="http://www.w3.org/1999/xlink">
    <title>JUMBF-Multiple</title>
    <g id="JUMBF-Multiple" stroke="none" stroke-width="1" fill="none" fill-rule="evenodd">
        <g id="Group:-C2PA-Claim-Block" transform="translate(15.000000, 15.000000)">
            <path d="M4,0 L271,0 C273.209139,-4.05812251e-16 275,1.790861 275,4 L275,28 L275,28 L0,28 L0,4 C-2.705415e-16,1.790861 1.790861,4.05812251e-16 4,0 Z" id="Background" fill="#5500FF"></path>
            <text id="Manifest-Block-(JUMB" font-family="SourceSansPro-Bold, Source Sans Pro" font-size="16" font-weight="bold" fill="#FFFFFF">
                <tspan x="8" y="19">Manifest Block (JUMBF)</tspan>
            </text>
            <path d="M274,29 L274,711 C274,711.828427 273.664214,712.578427 273.12132,713.12132 C272.578427,713.664214 271.828427,714 271,714 L271,714 L4,714 C3.17157288,714 2.42157288,713.664214 1.87867966,713.12132 C1.33578644,712.578427 1,711.828427 1,711 L1,711 L1,29 L274,29 Z" id="Rectangle" stroke="#5500FF" stroke-width="2" fill="#FFFFFF"></path>
            <g id="Group:-C2PA-Store" transform="translate(7.000000, 37.000000)">
                <g>
                    <path d="M4,0 L256,0 C258.209139,-4.05812251e-16 260,1.790861 260,4 L260,28 L260,28 L0,28 L0,4 C-2.705415e-16,1.790861 1.790861,4.05812251e-16 4,0 Z" id="Background" fill="#00C700"></path>
                    <text id="C2PA-Store" font-family="SourceSansPro-Bold, Source Sans Pro" font-size="14" font-weight="bold" fill="#FFFFFF">
                        <tspan x="12" y="17">C2PA Manifest (urn:uuid:ABCD)</tspan>
                    </text>
                    <path d="M259,29 L259,212 C259,212.828427 258.664214,213.578427 258.12132,214.12132 C257.578427,214.664214 256.828427,215 256,215 L256,215 L4,215 C3.17157288,215 2.42157288,214.664214 1.87867966,214.12132 C1.33578644,213.578427 1,212.828427 1,212 L1,212 L1,29 L259,29 Z" id="Rectangle" stroke="#00C700" stroke-width="2" fill="#FFFFFF"></path>
                </g>
                <g id="Group:-C2PA-Claim" transform="translate(8.000000, 128.000000)">
                    <rect id="Rectangle" fill="#FF3A01" x="0" y="0" width="244" height="33" rx="3"></rect>
                    <text id="C2PA-Claim" font-family="SourceSansPro-Bold, Source Sans Pro" font-size="16" font-weight="bold" letter-spacing="0.176" fill="#FFFFFF">
                        <tspan x="8" y="18">Claim</tspan>
                    </text>
                </g>
                <g id="Group:-C2PA-Signature" transform="translate(8.000000, 169.000000)">
                    <rect id="Rectangle" fill="#FF9600" x="0" y="0" width="244" height="36" rx="3"></rect>
                    <text id="Claim-Signature" font-family="SourceSansPro-Bold, Source Sans Pro" font-size="16" font-weight="bold" fill="#FFFFFF">
                        <tspan x="33" y="21">Claim Signature</tspan>
                    </text>
                    <g id="lock" transform="translate(8.000000, 8.000000)" fill="#FFFFFF">
                        <path d="M8.5,0 C11.241872,0 13.4794199,2.12234819 13.5952867,4.78311365 L13.6,5 L13.6,6.66666667 L15.3,6.66666667 C16.2384,6.66666667 17,7.41166667 17,8.33333333 L17,18.3333333 C17,19.2533333 16.2384,20 15.3,20 L1.7,20 C0.7599,20 -1.15996102e-12,19.2533333 -1.15996102e-12,18.3333333 L-1.15996102e-12,8.33333333 C-1.15996102e-12,7.41166667 0.7599,6.66666667 1.7,6.66666667 L3.4,6.66666667 L3.4,5 C3.4,2.4337021 5.37692998,0.302139589 7.96935235,0.0281944854 L8.19303556,0.00929593037 L8.5,0 Z M8.5,11.6666667 L8.35314518,11.6727749 C7.48201551,11.7455771 6.8,12.4601754 6.8,13.3333333 C6.8,14.2533333 7.5599,15 8.5,15 C9.4384,15 10.2,14.2533333 10.2,13.3333333 C10.2,12.4116667 9.4384,11.6666667 8.5,11.6666667 L8.5,11.6666667 Z M8.51105,1.66616667 L8.27553844,1.67377891 C6.55807745,1.78302088 5.20009796,3.13822981 5.10529006,4.81268297 L5.1,5 L5.1,6.66666667 L11.9,6.66666667 L11.9,5 C11.9,3.15919768 10.3771977,1.66666667 8.51105,1.66616667 Z" id="Combined-Shape"></path>
                    </g>
                </g>
                <g id="Group:-C2PA-Assertion-Store" transform="translate(8.000000, 38.000000)">
                    <rect id="Rectangle" stroke="#0030FD" fill="#0030FD" x="0.5" y="0.5" width="243" height="81"></rect>
                    <text id="C2PA-Assertion-Store" font-family="SourceSansPro-Bold, Source Sans Pro" font-size="16" font-weight="bold" fill="#FFFFFF">
                        <tspan x="6" y="19">C2PA Assertion Store</tspan>
                    </text>
                    <rect id="Background" fill="#0DBAAC" x="6" y="28" width="230" height="16" rx="3"></rect>
                    <rect id="Background" fill="#0DBAAC" x="6" y="56" width="230" height="16" rx="3"></rect>
                </g>
            </g>
            <g id="Group:-C2PA-Store" transform="translate(7.000000, 262.000000)">
                <g>
                    <path d="M4,0 L256,0 C258.209139,-4.05812251e-16 260,1.790861 260,4 L260,28 L260,28 L0,28 L0,4 C-2.705415e-16,1.790861 1.790861,4.05812251e-16 4,0 Z" id="Background" fill="#00C700"></path>
                    <text id="C2PA-Store" font-family="SourceSansPro-Bold, Source Sans Pro" font-size="14" font-weight="bold" fill="#FFFFFF">
                        <tspan x="8" y="19">C2PA Manifest (urn:uuid:EFGH)</tspan>
                    </text>
                    <path d="M259,29 L259,212 C259,212.828427 258.664214,213.578427 258.12132,214.12132 C257.578427,214.664214 256.828427,215 256,215 L256,215 L4,215 C3.17157288,215 2.42157288,214.664214 1.87867966,214.12132 C1.33578644,213.578427 1,212.828427 1,212 L1,212 L1,29 L259,29 Z" id="Rectangle" stroke="#00C700" stroke-width="2" fill="#FFFFFF"></path>
                </g>
                <g id="Group:-C2PA-Claim" transform="translate(8.000000, 128.000000)">
                    <rect id="Rectangle" fill="#FF3A01" x="0" y="0" width="244" height="33" rx="3"></rect>
                    <text id="C2PA-Claim" font-family="SourceSansPro-Bold, Source Sans Pro" font-size="16" font-weight="bold" letter-spacing="0.176" fill="#FFFFFF">
                        <tspan x="8" y="18">Claim</tspan>
                    </text>
                </g>
                <g id="Group:-C2PA-Signature" transform="translate(8.000000, 169.000000)">
                    <rect id="Rectangle" fill="#FF9600" x="0" y="0" width="244" height="36" rx="3"></rect>
                    <text id="Claim-Signature" font-family="SourceSansPro-Bold, Source Sans Pro" font-size="16" font-weight="bold" fill="#FFFFFF">
                        <tspan x="33" y="21">Claim Signature</tspan>
                    </text>
                    <g id="lock" transform="translate(8.000000, 8.000000)" fill="#FFFFFF">
                        <path d="M8.5,0 C11.241872,0 13.4794199,2.12234819 13.5952867,4.78311365 L13.6,5 L13.6,6.66666667 L15.3,6.66666667 C16.2384,6.66666667 17,7.41166667 17,8.33333333 L17,18.3333333 C17,19.2533333 16.2384,20 15.3,20 L1.7,20 C0.7599,20 -1.15996102e-12,19.2533333 -1.15996102e-12,18.3333333 L-1.15996102e-12,8.33333333 C-1.15996102e-12,7.41166667 0.7599,6.66666667 1.7,6.66666667 L3.4,6.66666667 L3.4,5 C3.4,2.4337021 5.37692998,0.302139589 7.96935235,0.0281944854 L8.19303556,0.00929593037 L8.5,0 Z M8.5,11.6666667 L8.35314518,11.6727749 C7.48201551,11.7455771 6.8,12.4601754 6.8,13.3333333 C6.8,14.2533333 7.5599,15 8.5,15 C9.4384,15 10.2,14.2533333 10.2,13.3333333 C10.2,12.4116667 9.4384,11.6666667 8.5,11.6666667 L8.5,11.6666667 Z M8.51105,1.66616667 L8.27553844,1.67377891 C6.55807745,1.78302088 5.20009796,3.13822981 5.10529006,4.81268297 L5.1,5 L5.1,6.66666667 L11.9,6.66666667 L11.9,5 C11.9,3.15919768 10.3771977,1.66666667 8.51105,1.66616667 Z" id="Combined-Shape"></path>
                    </g>
                </g>
                <g id="Group:-C2PA-Assertion-Store" transform="translate(8.000000, 38.000000)">
                    <rect id="Rectangle" stroke="#0030FD" fill="#0030FD" x="0.5" y="0.5" width="243" height="81"></rect>
                    <text id="C2PA-Assertion-Store" font-family="SourceSansPro-Bold, Source Sans Pro" font-size="16" font-weight="bold" fill="#FFFFFF">
                        <tspan x="6" y="19">C2PA Assertion Store</tspan>
                    </text>
                    <rect id="Background" fill="#0DBAAC" x="6" y="28" width="230" height="16" rx="3"></rect>
                    <rect id="Background" fill="#0DBAAC" x="6" y="56" width="230" height="16" rx="3"></rect>
                </g>
            </g>
            <g id="Group:-C2PA-Store" transform="translate(7.000000, 487.000000)">
                <g>
                    <path d="M4,0 L256,0 C258.209139,-4.05812251e-16 260,1.790861 260,4 L260,28 L260,28 L0,28 L0,4 C-2.705415e-16,1.790861 1.790861,4.05812251e-16 4,0 Z" id="Background" fill="#00C700"></path>
                    <text id="C2PA-Store" font-family="SourceSansPro-Bold, Source Sans Pro" font-size="14" font-weight="bold" fill="#FFFFFF">
                        <tspan x="8" y="19">C2PA Manifest (urn:uuid:IJKL)</tspan>
                    </text>
                    <path d="M259,29 L259,212 C259,212.828427 258.664214,213.578427 258.12132,214.12132 C257.578427,214.664214 256.828427,215 256,215 L256,215 L4,215 C3.17157288,215 2.42157288,214.664214 1.87867966,214.12132 C1.33578644,213.578427 1,212.828427 1,212 L1,212 L1,29 L259,29 Z" id="Rectangle" stroke="#00C700" stroke-width="2" fill="#FFFFFF"></path>
                </g>
                <g id="Group:-C2PA-Claim" transform="translate(8.000000, 128.000000)">
                    <rect id="Rectangle" fill="#FF3A01" x="0" y="0" width="244" height="33" rx="3"></rect>
                    <text id="C2PA-Claim" font-family="SourceSansPro-Bold, Source Sans Pro" font-size="16" font-weight="bold" letter-spacing="0.176" fill="#FFFFFF">
                        <tspan x="8" y="18">Claim</tspan>
                    </text>
                </g>
                <g id="Group:-C2PA-Signature" transform="translate(8.000000, 169.000000)">
                    <rect id="Rectangle" fill="#FF9600" x="0" y="0" width="244" height="36" rx="3"></rect>
                    <text id="Claim-Signature" font-family="SourceSansPro-Bold, Source Sans Pro" font-size="16" font-weight="bold" fill="#FFFFFF">
                        <tspan x="33" y="21">Claim Signature</tspan>
                    </text>
                    <g id="lock" transform="translate(8.000000, 8.000000)" fill="#FFFFFF">
                        <path d="M8.5,0 C11.241872,0 13.4794199,2.12234819 13.5952867,4.78311365 L13.6,5 L13.6,6.66666667 L15.3,6.66666667 C16.2384,6.66666667 17,7.41166667 17,8.33333333 L17,18.3333333 C17,19.2533333 16.2384,20 15.3,20 L1.7,20 C0.7599,20 -1.15996102e-12,19.2533333 -1.15996102e-12,18.3333333 L-1.15996102e-12,8.33333333 C-1.15996102e-12,7.41166667 0.7599,6.66666667 1.7,6.66666667 L3.4,6.66666667 L3.4,5 C3.4,2.4337021 5.37692998,0.302139589 7.96935235,0.0281944854 L8.19303556,0.00929593037 L8.5,0 Z M8.5,11.6666667 L8.35314518,11.6727749 C7.48201551,11.7455771 6.8,12.4601754 6.8,13.3333333 C6.8,14.2533333 7.5599,15 8.5,15 C9.4384,15 10.2,14.2533333 10.2,13.3333333 C10.2,12.4116667 9.4384,11.6666667 8.5,11.6666667 L8.5,11.6666667 Z M8.51105,1.66616667 L8.27553844,1.67377891 C6.55807745,1.78302088 5.20009796,3.13822981 5.10529006,4.81268297 L5.1,5 L5.1,6.66666667 L11.9,6.66666667 L11.9,5 C11.9,3.15919768 10.3771977,1.66666667 8.51105,1.66616667 Z" id="Combined-Shape"></path>
                    </g>
                </g>
                <g id="Group:-C2PA-Assertion-Store" transform="translate(8.000000, 38.000000)">
                    <rect id="Rectangle" stroke="#0030FD" fill="#0030FD" x="0.5" y="0.5" width="243" height="81"></rect>
                    <text id="C2PA-Assertion-Store" font-family="SourceSansPro-Bold, Source Sans Pro" font-size="16" font-weight="bold" fill="#FFFFFF">
                        <tspan x="6" y="19">C2PA Assertion Store</tspan>
                    </text>
                    <rect id="Background" fill="#0DBAAC" x="6" y="28" width="230" height="16" rx="3"></rect>
                    <rect id="Background" fill="#0DBAAC" x="6" y="56" width="230" height="16" rx="3"></rect>
                </g>
            </g>
        </g>
    </g>
</svg>