<?xml version="1.0" encoding="UTF-8" standalone="no"?><svg xmlns="http://www.w3.org/2000/svg" xmlns:xlink="http://www.w3.org/1999/xlink" contentScriptType="application/ecmascript" contentStyleType="text/css" height="1073px" preserveAspectRatio="none" style="width:479px;height:1073px;background:#FFFFFF;" version="1.1" viewBox="0 0 479 1073" width="479px" zoomAndPan="magnify"><defs><filter height="300%" id="f1ldbonrujxz92" width="300%" x="-1" y="-1"><feGaussianBlur result="blurOut" stdDeviation="2.0"/><feColorMatrix in="blurOut" result="blurOut2" type="matrix" values="0 0 0 0 0 0 0 0 0 0 0 0 0 0 0 0 0 0 .4 0"/><feOffset dx="4.0" dy="4.0" in="blurOut2" result="blurOut3"/><feBlend in="SourceGraphic" in2="blurOut3" mode="normal"/></filter></defs><g><!--MD5=[c280f77a5f6db6e252f8c12aedbb84e9]
cluster c2pa--><rect fill="#E6E6FA" filter="url(#f1ldbonrujxz92)" height="1054" style="stroke:#800080;stroke-width:1.5;" width="460" x="7" y="7"/><line style="stroke:#800080;stroke-width:1.5;" x1="7" x2="467" y1="27.2969" y2="27.2969"/><text fill="#000000" font-family="Source Sans Pro" font-size="14" font-weight="bold" lengthAdjust="spacing" textLength="247" x="113.5" y="21.9951">Manifest Store - JUMBF (`c2pa`)</text><!--MD5=[e9caacdb8b520a2dee0a72c863ae5871]
cluster ic2ma--><rect fill="#90EE90" filter="url(#f1ldbonrujxz92)" height="187" style="stroke:#008000;stroke-width:1.5;" width="406" x="34" y="50"/><line style="stroke:#008000;stroke-width:1.5;" x1="34" x2="440" y1="70.2969" y2="70.2969"/><text fill="#000000" font-family="Source Sans Pro" font-size="14" font-weight="bold" lengthAdjust="spacing" textLength="300" x="92" y="64.9951">Ingredient Manifest (`urn:uuid:ABCD`)</text><!--MD5=[3b347f6dd8c057f98c92a5cf15085a16]
cluster c2ma--><rect fill="#90EE90" filter="url(#f1ldbonrujxz92)" height="776" style="stroke:#008000;stroke-width:1.5;" width="412" x="31" y="261"/><line style="stroke:#008000;stroke-width:1.5;" x1="31" x2="443" y1="281.2969" y2="281.2969"/><text fill="#000000" font-family="Source Sans Pro" font-size="14" font-weight="bold" lengthAdjust="spacing" textLength="271" x="101.5" y="275.9951">Active Manifest (`urn:uuid:WXYZ`)</text><!--MD5=[5496e38eb3ab2c934e61ff45ec539389]
cluster c2as--><rect fill="#ADD8E6" filter="url(#f1ldbonrujxz92)" height="487" style="stroke:#0000FF;stroke-width:1.5;" width="364" x="55" y="304"/><line style="stroke:#0000FF;stroke-width:1.5;" x1="55" x2="419" y1="324.2969" y2="324.2969"/><text fill="#000000" font-family="Source Sans Pro" font-size="14" font-weight="bold" lengthAdjust="spacing" textLength="348" x="63" y="318.9951">Assertion Store (`c2as` : `c2pa.assertions`)</text><!--MD5=[f7d24e1e59c9a17863751969b78bc9f1]
cluster stds.schema-org.CreativeWork --><rect fill="#E0FFFF" filter="url(#f1ldbonrujxz92)" height="87" style="stroke:#0000FF;stroke-width:1.5;" width="266" x="104" y="347"/><line style="stroke:#0000FF;stroke-width:1.5;" x1="104" x2="370" y1="367.2969" y2="367.2969"/><text fill="#000000" font-family="Source Sans Pro" font-size="14" font-weight="bold" lengthAdjust="spacing" textLength="245" x="112" y="361.9951">stds.schema-org.CreativeWork</text><!--MD5=[70f87615663b30dd39dd6b12c90674fe]
cluster c2pa.thumbnail.claim.png        --><rect fill="#E0FFFF" filter="url(#f1ldbonrujxz92)" height="87" style="stroke:#0000FF;stroke-width:1.5;" width="256" x="108.5" y="458"/><line style="stroke:#0000FF;stroke-width:1.5;" x1="108.5" x2="364.5" y1="478.2969" y2="478.2969"/><text fill="#000000" font-family="Source Sans Pro" font-size="14" font-weight="bold" lengthAdjust="spacing" textLength="200" x="116.5" y="472.9951">c2pa.thumbnail.claim.png</text><!--MD5=[309505ef1831be67ebd9701ced8f7caf]
cluster c2pa.actions                           --><rect fill="#E0FFFF" filter="url(#f1ldbonrujxz92)" height="87" style="stroke:#0000FF;stroke-width:1.5;" width="251" x="111.5" y="569"/><line style="stroke:#0000FF;stroke-width:1.5;" x1="111.5" x2="362.5" y1="589.2969" y2="589.2969"/><text fill="#000000" font-family="Source Sans Pro" font-size="14" font-weight="bold" lengthAdjust="spacing" textLength="100" x="119.5" y="583.9951">c2pa.actions</text><!--MD5=[772112dcdcfcf722e8f867fbfc73b43d]
cluster c2pa.hash.data                        --><rect fill="#E0FFFF" filter="url(#f1ldbonrujxz92)" height="87" style="stroke:#0000FF;stroke-width:1.5;" width="256" x="108.5" y="680"/><line style="stroke:#0000FF;stroke-width:1.5;" x1="108.5" x2="364.5" y1="700.2969" y2="700.2969"/><text fill="#000000" font-family="Source Sans Pro" font-size="14" font-weight="bold" lengthAdjust="spacing" textLength="120" x="116.5" y="694.9951">c2pa.hash.data</text><!--MD5=[2a0893eea9f2cd7010a518f9a4c7c49c]
cluster c2cl--><rect fill="#FFB6C1" filter="url(#f1ldbonrujxz92)" height="87" style="stroke:#FF0000;stroke-width:1.5;" width="339" x="67.5" y="815"/><line style="stroke:#FF0000;stroke-width:1.5;" x1="67.5" x2="406.5" y1="835.2969" y2="835.2969"/><text fill="#000000" font-family="Source Sans Pro" font-size="14" font-weight="bold" lengthAdjust="spacing" textLength="218" x="75.5" y="829.9951">Claim (`c2cl` : `c2pa.claim`)</text><!--MD5=[3e49f57d6a96ac62d1222a0286a1e0c4]
cluster c2cs--><rect fill="#FFE4B5" filter="url(#f1ldbonrujxz92)" height="87" style="stroke:#FF4500;stroke-width:1.5;" width="355" x="59.5" y="926"/><line style="stroke:#FF4500;stroke-width:1.5;" x1="59.5" x2="414.5" y1="946.2969" y2="946.2969"/><text fill="#000000" font-family="Source Sans Pro" font-size="14" font-weight="bold" lengthAdjust="spacing" textLength="339" x="67.5" y="940.9951">Claim Signature (`c2cs` : `c2pa.signature`)</text><!--MD5=[e8a1662923f6409fe5785a01bc3f0d87]
entity ic2as--><rect fill="#ADD8E6" filter="url(#f1ldbonrujxz92)" height="22.2969" style="stroke:#0000FF;stroke-width:1.5;" width="126" x="173.5" y="85"/><text fill="#000000" font-family="Source Sans Pro" font-size="14" lengthAdjust="spacing" textLength="106" x="183.5" y="100.9951">Assertion Store</text><!--MD5=[3b31c4d614f481f38aa7600a554db41f]
entity ic2cl--><rect fill="#FFB6C1" filter="url(#f1ldbonrujxz92)" height="22.2969" style="stroke:#FF0000;stroke-width:1.5;" width="121" x="176" y="142"/><text fill="#000000" font-family="Source Sans Pro" font-size="14" lengthAdjust="spacing" textLength="37" x="218" y="157.9951">Claim</text><!--MD5=[1be72627d1a1bf74a94b40c5768ada93]
entity ic2cs--><rect fill="#FFE4B5" filter="url(#f1ldbonrujxz92)" height="22.2969" style="stroke:#FF4500;stroke-width:1.5;" width="127" x="173" y="199"/><text fill="#000000" font-family="Source Sans Pro" font-size="14" lengthAdjust="spacing" textLength="107" x="183" y="214.9951">Claim Signature</text><!--MD5=[23bc7945312e1f0a2e37cebfe503a03b]
entity A1--><rect fill="#FEFECE" filter="url(#f1ldbonrujxz92)" height="36.2969" style="stroke:#000000;stroke-width:1.5;" width="91.3333" x="191" y="382"/><path d="M207.8333,395.4635 L204.3333,402.4635 L205.5,402.4635 L209,395.4635 L207.8333,395.4635 M203.1667,396.6302 L202,398.9635 L203.1667,401.2969 L204.3333,401.2969 L203.1667,398.9635 L204.3333,396.6302 L203.1667,396.6302 M209,396.6302 L210.1667,398.9635 L209,401.2969 L210.1667,401.2969 L211.3333,398.9635 L210.1667,396.6302 L209,396.6302 " fill="#000000" style="stroke:;stroke-width:0.0;stroke-dasharray:;"/><text fill="#000000" font-family="Source Sans Pro" font-size="14" lengthAdjust="spacing" textLength="56" x="216.3333" y="404.9951">JSON-LD</text><!--MD5=[406a5e0ae180932da9bcb21c819a1904]
entity A2--><rect fill="#FEFECE" filter="url(#f1ldbonrujxz92)" height="36.2969" style="stroke:#000000;stroke-width:1.5;" width="138.3333" x="167.5" y="493"/><path d="M178.5,506.4635 L178.5,515.7969 L187.8333,515.7969 L187.8333,506.4635 L178.5,506.4635 M179.6667,507.6302 L186.6667,507.6302 L186.6667,511.1302 L185.5,509.9635 L184.3333,511.1302 L186.6667,513.4635 L186.6667,514.6302 L185.5,514.6302 L180.8333,509.9635 L179.6667,511.1302 L179.6667,507.6302 " fill="#000000" style="stroke:;stroke-width:0.0;stroke-dasharray:;"/><text fill="#000000" font-family="Source Sans Pro" font-size="14" lengthAdjust="spacing" textLength="103" x="192.8333" y="515.9951">Embedded File</text><!--MD5=[305b0bf20d1e87c4314d270a9e4e4ae4]
entity A3--><rect fill="#FEFECE" filter="url(#f1ldbonrujxz92)" height="36.2969" style="stroke:#000000;stroke-width:1.5;" width="76.3333" x="198.5" y="604"/><path d="M215.3333,617.4635 L211.8333,624.4635 L213,624.4635 L216.5,617.4635 L215.3333,617.4635 M210.6667,618.6302 L209.5,620.9635 L210.6667,623.2969 L211.8333,623.2969 L210.6667,620.9635 L211.8333,618.6302 L210.6667,618.6302 M216.5,618.6302 L217.6667,620.9635 L216.5,623.2969 L217.6667,623.2969 L218.8333,620.9635 L217.6667,618.6302 L216.5,618.6302 " fill="#000000" style="stroke:;stroke-width:0.0;stroke-dasharray:;"/><text fill="#000000" font-family="Source Sans Pro" font-size="14" lengthAdjust="spacing" textLength="41" x="223.8333" y="626.9951">CBOR</text><!--MD5=[b4296d86aafbbd2074f03a740cb37cff]
entity A4--><rect fill="#FEFECE" filter="url(#f1ldbonrujxz92)" height="36.2969" style="stroke:#000000;stroke-width:1.5;" width="76.3333" x="198.5" y="715"/><path d="M215.3333,728.4635 L211.8333,735.4635 L213,735.4635 L216.5,728.4635 L215.3333,728.4635 M210.6667,729.6302 L209.5,731.9635 L210.6667,734.2969 L211.8333,734.2969 L210.6667,731.9635 L211.8333,729.6302 L210.6667,729.6302 M216.5,729.6302 L217.6667,731.9635 L216.5,734.2969 L217.6667,734.2969 L218.8333,731.9635 L217.6667,729.6302 L216.5,729.6302 " fill="#000000" style="stroke:;stroke-width:0.0;stroke-dasharray:;"/><text fill="#000000" font-family="Source Sans Pro" font-size="14" lengthAdjust="spacing" textLength="41" x="223.8333" y="737.9951">CBOR</text><!--MD5=[16fab723be418f7eaf2ea4bd895a8e51]
entity C--><rect fill="#FEFECE" filter="url(#f1ldbonrujxz92)" height="36.2969" style="stroke:#000000;stroke-width:1.5;" width="76.3333" x="198.5" y="850"/><path d="M215.3333,863.4635 L211.8333,870.4635 L213,870.4635 L216.5,863.4635 L215.3333,863.4635 M210.6667,864.6302 L209.5,866.9635 L210.6667,869.2969 L211.8333,869.2969 L210.6667,866.9635 L211.8333,864.6302 L210.6667,864.6302 M216.5,864.6302 L217.6667,866.9635 L216.5,869.2969 L217.6667,869.2969 L218.8333,866.9635 L217.6667,864.6302 L216.5,864.6302 " fill="#000000" style="stroke:;stroke-width:0.0;stroke-dasharray:;"/><text fill="#000000" font-family="Source Sans Pro" font-size="14" lengthAdjust="spacing" textLength="41" x="223.8333" y="872.9951">CBOR</text><!--MD5=[c3d963de545692ce062b829afe2e18c4]
entity CS--><rect fill="#FEFECE" filter="url(#f1ldbonrujxz92)" height="36.2969" style="stroke:#000000;stroke-width:1.5;" width="190.3333" x="141.5" y="961"/><path d="M158.9167,974.4635 C157.3067,974.4635 156,975.7702 156,977.3802 C156,977.5669 156,977.7535 156.035,977.9285 L152.5,981.4635 L152.5,983.7969 L156,983.7969 L156,981.4635 L158.3333,981.4635 L158.3333,980.2969 L158.3683,980.2619 C158.5433,980.2969 158.73,980.2969 158.9167,980.2969 C160.5267,980.2969 161.8333,978.9902 161.8333,977.3802 C161.8333,975.7702 160.5267,974.4635 158.9167,974.4635 M159.5,975.6302 C160.1417,975.6302 160.6667,976.1552 160.6667,976.7969 C160.6667,977.4385 160.1417,977.9635 159.5,977.9635 C158.8583,977.9635 158.3333,977.4385 158.3333,976.7969 C158.3333,976.1552 158.8583,975.6302 159.5,975.6302 " fill="#000000" style="stroke:;stroke-width:0.0;stroke-dasharray:;"/><text fill="#000000" font-family="Source Sans Pro" font-size="14" lengthAdjust="spacing" textLength="155" x="166.8333" y="983.9951">COSE Digital Signature</text><!--MD5=[0e3379d10f50024ba145068ea75a8692]
@startuml ManifestStore_Ingredient

    ' allows mixing various objects in a single diagram
    allow_mixing

    !include manifest_styling.iuml

	' Diagram!
    card c2pa as "Manifest Store - JUMBF (`c2pa`)" <<c2pa>> {
        card ic2ma as "          Ingredient Manifest (`urn:uuid:ABCD`)        " <<c2ma>> {
            card ic2as as "Assertion Store" <<c2as>> {
            }
            card ic2cl as "        Claim        " <<c2cl>> {
            }
            card ic2cs as "Claim Signature" <<c2cs>> {
            }
        }

        card c2ma as "Active Manifest (`urn:uuid:WXYZ`)" <<c2ma>> {
			!includesub manifest.iuml!ASSERTIONSTORE

			!includesub manifest.iuml!CLAIM

			!includesub manifest.iuml!CLAIMSIGNATURE
        }
    }
    
@enduml

@startuml ManifestStore_Ingredient

    allow_mixing

    hide circle
    hide empty members
	hide stereotype

    skinparam defaultFontName Source Sans Pro
	skinparam componentStyle rectangle
    left to right direction


	skinparam card<<c2pa>> {
    	borderColor Purple
		backgroundColor Lavender
	}

	skinparam card<<c2ma>> {
    	borderColor Green
		backgroundColor LightGreen
	}

	skinparam card<<c2vc>> {
    	borderColor Gold
		backgroundColor LemonChiffon
	}

	skinparam card<<vc>> {
    	borderColor DarkViolet
		backgroundColor LavenderBlush
	}

	skinparam card<<c2as>> {
    	borderColor Blue
		backgroundColor LightBlue
	}

	skinparam card<<as>> {
    	borderColor Blue
		backgroundColor LightCyan
	}

	skinparam card<<c2cl>> {
    	borderColor Red
		backgroundColor LightPink
	}

	skinparam card<<c2cs>> {
    	borderColor OrangeRed
		backgroundColor Moccasin
	}


    card c2pa as "Manifest Store - JUMBF (`c2pa`)" <<c2pa>> {
        card ic2ma as "          Ingredient Manifest (`urn:uuid:ABCD`)        " <<c2ma>> {
            card ic2as as "Assertion Store" <<c2as>> {
            }
            card ic2cl as "        Claim        " <<c2cl>> {
            }
            card ic2cs as "Claim Signature" <<c2cs>> {
            }
        }

        card c2ma as "Active Manifest (`urn:uuid:WXYZ`)" <<c2ma>> {
	card c2as as "Assertion Store (`c2as` : `c2pa.assertions`)" <<c2as>> {
		card "stds.schema-org.CreativeWork " <<as>> {
			rectangle A1 [
				<&code> JSON-LD
			]
		}

		card "c2pa.thumbnail.claim.png        " <<as>> {
			rectangle A2 [
				<&image> Embedded File
			]
		}

		card "c2pa.actions                           " <<as>> {
			rectangle A3 [
				<&code> CBOR
			]
		}

		card "c2pa.hash.data                        " <<as>> {
			rectangle A4 [
				<&code> CBOR
			]
		}
	}

	card c2cl as "Claim (`c2cl` : `c2pa.claim`)                     " <<c2cl>> {
		rectangle C [
			<&code> CBOR
		]
	}

	card c2cs as "Claim Signature (`c2cs` : `c2pa.signature`)" <<c2cs>> {
		rectangle CS [
			<&key> COSE Digital Signature
		]
	}
        }
    }
    
@enduml

PlantUML version 1.2021.15(Tue Nov 30 16:45:34 GMT 2021)
(GPL source distribution)
Java Runtime: OpenJDK Runtime Environment
JVM: OpenJDK 64-Bit Server VM
Default Encoding: UTF-8
Language: en
Country: US
--></g></svg>