<svg xmlns="http://www.w3.org/2000/svg" xmlns:xlink="http://www.w3.org/1999/xlink" contentStyleType="text/css" height="1457px" preserveAspectRatio="none" style="width:804px;height:1457px;background:#FFFFFF;" version="1.1" viewBox="0 0 804 1457" width="804px" zoomAndPan="magnify"><defs/><g><!--class Asset--><g id="elem_Asset"><rect codeLine="35" fill="#F1F1F1" height="109.8125" id="Asset" rx="2.5" ry="2.5" style="stroke:#181818;stroke-width:0.5;" width="290.9766" x="7" y="7"/><text fill="#000000" font-family="sans-serif" font-size="16" font-weight="bold" lengthAdjust="spacing" textLength="284.9766" x="10" y="26.8516">Track #n Initialization Segment</text><line style="stroke:#181818;stroke-width:0.5;" x1="8" x2="296.9766" y1="35.625" y2="35.625"/><text fill="#000000" font-family="sans-serif" font-size="14" lengthAdjust="spacing" textLength="126.7041" x="13" y="52.6201">c2pa_specific_box</text><text fill="#000000" font-family="sans-serif" font-size="14" lengthAdjust="spacing" textLength="199.8486" x="48.6016" y="68.917">box with purpose "manifest"</text><line style="stroke:#181818;stroke-width:1.0;stroke-dasharray:1.0,2.0;" x1="8" x2="296.9766" y1="76.2188" y2="76.2188"/><text fill="#000000" font-family="sans-serif" font-size="14" lengthAdjust="spacing" textLength="55.6787" x="13" y="93.2139">Content</text><text fill="#000000" font-family="sans-serif" font-size="14" lengthAdjust="spacing" textLength="4.4502" x="13" y="109.5107">&#160;</text></g><!--class Assertion--><g id="elem_Assertion"><rect codeLine="42" fill="#F1F1F1" height="77.2188" id="Assertion" rx="2.5" ry="2.5" style="stroke:#181818;stroke-width:0.5;" width="91.6875" x="108.5" y="611"/><text fill="#000000" font-family="sans-serif" font-size="16" font-weight="bold" lengthAdjust="spacing" textLength="85.6875" x="111.5" y="630.8516">Assertion</text><line style="stroke:#181818;stroke-width:0.5;" x1="109.5" x2="199.1875" y1="639.625" y2="639.625"/><text fill="#000000" font-family="sans-serif" font-size="14" lengthAdjust="spacing" textLength="33.4277" x="114.5" y="656.6201">Data</text><line style="stroke:#181818;stroke-width:1.0;stroke-dasharray:1.0,2.0;" x1="109.5" x2="199.1875" y1="663.9219" y2="663.9219"/><text fill="#000000" font-family="sans-serif" font-size="14" font-style="italic" lengthAdjust="spacing" textLength="66.2949" x="114.5" y="680.917">Metadata</text></g><!--class BMFFHash--><g id="elem_BMFFHash"><rect codeLine="48" fill="#F1F1F1" height="150.1094" id="BMFFHash" rx="2.5" ry="2.5" style="stroke:#181818;stroke-width:0.5;" width="146.1719" x="85" y="935"/><text fill="#000000" font-family="sans-serif" font-size="16" font-weight="bold" lengthAdjust="spacing" textLength="140.1719" x="88" y="954.8516">c2pa.hash.bmff</text><line style="stroke:#181818;stroke-width:0.5;" x1="86" x2="230.1719" y1="963.625" y2="963.625"/><text fill="#000000" font-family="sans-serif" font-size="14" lengthAdjust="spacing" textLength="73.2744" x="91" y="980.6201">exclusions</text><line style="stroke:#181818;stroke-width:1.0;stroke-dasharray:1.0,2.0;" x1="86" x2="230.1719" y1="987.9219" y2="987.9219"/><text fill="#000000" font-family="sans-serif" font-size="14" lengthAdjust="spacing" textLength="21.3555" x="91" y="1004.917">alg</text><line style="stroke:#181818;stroke-width:1.0;stroke-dasharray:1.0,2.0;" x1="86" x2="230.1719" y1="1012.2188" y2="1012.2188"/><text fill="#000000" font-family="sans-serif" font-size="14" lengthAdjust="spacing" textLength="33.6191" x="91" y="1029.2139">hash</text><line style="stroke:#181818;stroke-width:1.0;stroke-dasharray:1.0,2.0;" x1="86" x2="230.1719" y1="1036.5156" y2="1036.5156"/><text fill="#000000" font-family="sans-serif" font-size="14" font-style="italic" lengthAdjust="spacing" textLength="59.541" x="91" y="1053.5107">merkle[]</text><line style="stroke:#181818;stroke-width:1.0;stroke-dasharray:1.0,2.0;" x1="86" x2="230.1719" y1="1060.8125" y2="1060.8125"/><text fill="#000000" font-family="sans-serif" font-size="14" lengthAdjust="spacing" textLength="39.7031" x="91" y="1077.8076">name</text></g><!--class MerkleMap--><g id="elem_MerkleMap"><rect codeLine="60" fill="#F1F1F1" height="174.4063" id="MerkleMap" rx="2.5" ry="2.5" style="stroke:#181818;stroke-width:0.5;" width="113.9531" x="203.5" y="1170"/><text fill="#000000" font-family="sans-serif" font-size="16" font-weight="bold" lengthAdjust="spacing" textLength="107.9531" x="206.5" y="1189.8516">merkle-map</text><line style="stroke:#181818;stroke-width:0.5;" x1="204.5" x2="316.4531" y1="1198.625" y2="1198.625"/><text fill="#000000" font-family="sans-serif" font-size="14" lengthAdjust="spacing" textLength="61.0244" x="209.5" y="1215.6201">uniqueId</text><line style="stroke:#181818;stroke-width:1.0;stroke-dasharray:1.0,2.0;" x1="204.5" x2="316.4531" y1="1222.9219" y2="1222.9219"/><text fill="#000000" font-family="sans-serif" font-size="14" lengthAdjust="spacing" textLength="45.6367" x="209.5" y="1239.917">localId</text><line style="stroke:#181818;stroke-width:1.0;stroke-dasharray:1.0,2.0;" x1="204.5" x2="316.4531" y1="1247.2188" y2="1247.2188"/><text fill="#000000" font-family="sans-serif" font-size="14" lengthAdjust="spacing" textLength="39.498" x="209.5" y="1264.2139">count</text><line style="stroke:#181818;stroke-width:1.0;stroke-dasharray:1.0,2.0;" x1="204.5" x2="316.4531" y1="1271.5156" y2="1271.5156"/><text fill="#000000" font-family="sans-serif" font-size="14" lengthAdjust="spacing" textLength="21.3555" x="209.5" y="1288.5107">alg</text><line style="stroke:#181818;stroke-width:1.0;stroke-dasharray:1.0,2.0;" x1="204.5" x2="316.4531" y1="1295.8125" y2="1295.8125"/><text fill="#000000" font-family="sans-serif" font-size="14" lengthAdjust="spacing" textLength="57.415" x="209.5" y="1312.8076">initHash</text><line style="stroke:#181818;stroke-width:1.0;stroke-dasharray:1.0,2.0;" x1="204.5" x2="316.4531" y1="1320.1094" y2="1320.1094"/><text fill="#000000" font-family="sans-serif" font-size="14" lengthAdjust="spacing" textLength="60.4502" x="209.5" y="1337.1045">hashes[]</text></g><!--class ManifestStore--><g id="elem_ManifestStore"><rect codeLine="74" fill="#F1F1F1" height="77.2188" id="ManifestStore" rx="2.5" ry="2.5" style="stroke:#181818;stroke-width:0.5;" width="151.0498" x="76.5" y="263"/><text fill="#000000" font-family="sans-serif" font-size="16" font-weight="bold" lengthAdjust="spacing" textLength="133.0547" x="85.4976" y="282.8516">Manifest Store</text><line style="stroke:#181818;stroke-width:0.5;" x1="77.5" x2="226.5498" y1="291.625" y2="291.625"/><text fill="#000000" font-family="sans-serif" font-size="14" lengthAdjust="spacing" textLength="103.2979" x="82.5" y="308.6201">ActiveManifest</text><line style="stroke:#181818;stroke-width:1.0;stroke-dasharray:1.0,2.0;" x1="77.5" x2="226.5498" y1="315.9219" y2="315.9219"/><text fill="#000000" font-family="sans-serif" font-size="14" font-style="italic" lengthAdjust="spacing" textLength="139.0498" x="82.5" y="332.917">IngredientManifests</text></g><!--class Manifest--><g id="elem_Manifest"><rect codeLine="79" fill="#F1F1F1" height="101.5156" id="Manifest" rx="2.5" ry="2.5" style="stroke:#181818;stroke-width:0.5;" width="119.6182" x="93.5" y="425"/><text fill="#000000" font-family="sans-serif" font-size="16" font-weight="bold" lengthAdjust="spacing" textLength="78.5781" x="114.02" y="444.8516">Manifest</text><line style="stroke:#181818;stroke-width:0.5;" x1="94.5" x2="212.1182" y1="453.625" y2="453.625"/><text fill="#000000" font-family="sans-serif" font-size="14" lengthAdjust="spacing" textLength="102.6621" x="99.5" y="470.6201">AssertionStore</text><line style="stroke:#181818;stroke-width:1.0;stroke-dasharray:1.0,2.0;" x1="94.5" x2="212.1182" y1="477.9219" y2="477.9219"/><text fill="#000000" font-family="sans-serif" font-size="14" lengthAdjust="spacing" textLength="39.7715" x="99.5" y="494.917">Claim</text><line style="stroke:#181818;stroke-width:1.0;stroke-dasharray:1.0,2.0;" x1="94.5" x2="212.1182" y1="502.2188" y2="502.2188"/><text fill="#000000" font-family="sans-serif" font-size="14" lengthAdjust="spacing" textLength="107.6182" x="99.5" y="519.2139">ClaimSignature</text></g><!--class AssetFragment--><g id="elem_AssetFragment"><rect codeLine="88" fill="#F1F1F1" height="93.5156" id="AssetFragment" rx="2.5" ry="2.5" style="stroke:#181818;stroke-width:0.5;" width="234.7627" x="255" y="757"/><text fill="#000000" font-family="sans-serif" font-size="16" font-weight="bold" lengthAdjust="spacing" textLength="208.9453" x="267.9087" y="776.8516">Track #n Fragment #m</text><line style="stroke:#181818;stroke-width:0.5;" x1="256" x2="488.7627" y1="785.625" y2="785.625"/><text fill="#000000" font-family="sans-serif" font-size="14" lengthAdjust="spacing" textLength="126.7041" x="261" y="802.6201">c2pa_specific_box</text><text fill="#000000" font-family="sans-serif" font-size="14" lengthAdjust="spacing" textLength="187.1611" x="296.6016" y="818.917">box with purpose "merkle"</text><line style="stroke:#181818;stroke-width:1.0;stroke-dasharray:1.0,2.0;" x1="256" x2="488.7627" y1="826.2188" y2="826.2188"/><text fill="#000000" font-family="sans-serif" font-size="14" lengthAdjust="spacing" textLength="55.6787" x="261" y="843.2139">Content</text></g><!--class BMFFMerkleMap--><g id="elem_BMFFMerkleMap"><rect codeLine="96" fill="#F1F1F1" height="125.8125" id="BMFFMerkleMap" rx="2.5" ry="2.5" style="stroke:#181818;stroke-width:0.5;" width="162.6406" x="291" y="947.5"/><text fill="#000000" font-family="sans-serif" font-size="16" font-weight="bold" lengthAdjust="spacing" textLength="156.6406" x="294" y="967.3516">bmff-merkle-map</text><line style="stroke:#181818;stroke-width:0.5;" x1="292" x2="452.6406" y1="976.125" y2="976.125"/><text fill="#000000" font-family="sans-serif" font-size="14" lengthAdjust="spacing" textLength="61.0244" x="297" y="993.1201">uniqueId</text><line style="stroke:#181818;stroke-width:1.0;stroke-dasharray:1.0,2.0;" x1="292" x2="452.6406" y1="1000.4219" y2="1000.4219"/><text fill="#000000" font-family="sans-serif" font-size="14" lengthAdjust="spacing" textLength="45.6367" x="297" y="1017.417">localId</text><line style="stroke:#181818;stroke-width:1.0;stroke-dasharray:1.0,2.0;" x1="292" x2="452.6406" y1="1024.7188" y2="1024.7188"/><text fill="#000000" font-family="sans-serif" font-size="14" lengthAdjust="spacing" textLength="55.5488" x="297" y="1041.7139">location</text><line style="stroke:#181818;stroke-width:1.0;stroke-dasharray:1.0,2.0;" x1="292" x2="452.6406" y1="1049.0156" y2="1049.0156"/><text fill="#000000" font-family="sans-serif" font-size="14" font-style="italic" lengthAdjust="spacing" textLength="49.5264" x="297" y="1066.0107">hashes</text></g><g id="elem_GMN10"><path d="M532.5,776 L532.5,831.3984 L789.2773,831.3984 L789.2773,786 L779.2773,776 L532.5,776 " fill="#FEFFDD" style="stroke:#181818;stroke-width:0.5;"/><path d="M779.2773,776 L779.2773,786 L789.2773,786 L779.2773,776 " fill="#FEFFDD" style="stroke:#181818;stroke-width:1.0;"/><text fill="#000000" font-family="sans-serif" font-size="13" lengthAdjust="spacing" textLength="231.645" x="538.5" y="793.0669">Use the uniqueId and localId to find</text><text fill="#000000" font-family="sans-serif" font-size="13" lengthAdjust="spacing" textLength="214.4873" x="538.5" y="808.1997">the correct merkle-map from the</text><text fill="#000000" font-family="sans-serif" font-size="13" font-weight="bold" lengthAdjust="spacing" textLength="169.1079" x="538.5" y="823.3325">c2pa.hash.bmff merkle</text><text fill="#000000" font-family="sans-serif" font-size="13" lengthAdjust="spacing" textLength="38.4478" x="711.7402" y="823.3325">array.</text></g><path d="M496.5,959.5 L496.5,975.6328 L352.5488,1036.8672 L496.5,983.6328 L496.5,999.7656 A0,0 0 0 0 496.5,999.7656 L778.084,999.7656 A0,0 0 0 0 778.084,999.7656 L778.084,969.5 L768.084,959.5 L496.5,959.5 A0,0 0 0 0 496.5,959.5 " fill="#FEFFDD" style="stroke:#181818;stroke-width:0.5;"/><path d="M768.084,959.5 L768.084,969.5 L778.084,969.5 L768.084,959.5 " fill="#FEFFDD" style="stroke:#181818;stroke-width:0.5;"/><text fill="#000000" font-family="sans-serif" font-size="13" lengthAdjust="spacing" textLength="260.584" x="502.5" y="976.5669">The location identifes which Merkle tree</text><text fill="#000000" font-family="sans-serif" font-size="13" lengthAdjust="spacing" textLength="221.7554" x="502.5" y="991.6997">leaf corresponds to this fragment.</text><path d="M496.5,1009.7656 L496.5,1025.8984 L346.5264,1061.1641 L496.5,1033.8984 L496.5,1050.0313 A0,0 0 0 0 496.5,1050.0313 L797.165,1050.0313 A0,0 0 0 0 797.165,1050.0313 L797.165,1019.7656 L787.165,1009.7656 L496.5,1009.7656 A0,0 0 0 0 496.5,1009.7656 " fill="#FEFFDD" style="stroke:#181818;stroke-width:0.5;"/><path d="M787.165,1009.7656 L787.165,1019.7656 L797.165,1019.7656 L787.165,1009.7656 " fill="#FEFFDD" style="stroke:#181818;stroke-width:0.5;"/><text fill="#000000" font-family="sans-serif" font-size="13" lengthAdjust="spacing" textLength="37.3306" x="502.5" y="1026.8325">When</text><text fill="#000000" font-family="sans-serif" font-size="13" font-weight="bold" lengthAdjust="spacing" textLength="51.5747" x="543.9629" y="1026.8325">hashes</text><text fill="#000000" font-family="sans-serif" font-size="13" lengthAdjust="spacing" textLength="182.4951" x="599.6699" y="1026.8325">are present it contains hash</text><text fill="#000000" font-family="sans-serif" font-size="13" lengthAdjust="spacing" textLength="174.5859" x="502.5" y="1041.9653">values of the Merkle proof.</text><!--link GMN10 to BMFFMerkleMap--><g id="link_GMN10_BMFFMerkleMap"><path d="M622.12,831.15 C585.15,856.58 528.06,896.08 479,931 C473.19,935.13 467.23,939.41 461.22,943.73 " fill="none" id="GMN10-BMFFMerkleMap" style="stroke:#181818;stroke-width:1.0;stroke-dasharray:7.0,7.0;"/></g><!--link Asset to ManifestStore--><g id="link_Asset_ManifestStore"><path codeLine="122" d="M152,120.11 C152,162.9 152,214.26 152,252.71 " fill="none" id="Asset-to-ManifestStore" style="stroke:#008000;stroke-width:1.0;"/><polygon fill="#008000" points="152,258.71,156,249.71,152,253.71,148,249.71,152,258.71" style="stroke:#008000;stroke-width:1.0;"/><text fill="#008000" font-family="sans-serif" font-size="13" lengthAdjust="spacing" textLength="55.0278" x="153" y="194.0669">contains</text></g><!--link Assertion to BMFFHash--><g id="link_Assertion_BMFFHash"><path codeLine="124" d="M201,651.5 C219.01,651.5 204.06,674.46 200,692 C193.27,721.06 179.16,724.04 172,753 C157.55,811.44 154.4249,873.5901 154.7249,924.8701 " fill="none" id="Assertion-to-BMFFHash" style="stroke:#008000;stroke-width:1.0;"/><polygon fill="#008000" points="154.76,930.87,158.7073,921.8468,154.7307,925.8701,150.7074,921.8936,154.76,930.87" style="stroke:#008000;stroke-width:1.0;"/><text fill="#008000" font-family="sans-serif" font-size="13" lengthAdjust="spacing" textLength="55.0278" x="173" y="808.0669">contains</text></g><!--link AssetFragment to BMFFMerkleMap--><g id="link_AssetFragment_BMFFMerkleMap"><path codeLine="125" d="M372,854 C372,880.84 372,908.34 372,937.33 " fill="none" id="AssetFragment-to-BMFFMerkleMap" style="stroke:#008000;stroke-width:1.0;"/><polygon fill="#008000" points="372,943.33,376,934.33,372,938.33,368,934.33,372,943.33" style="stroke:#008000;stroke-width:1.0;"/><text fill="#008000" font-family="sans-serif" font-size="13" lengthAdjust="spacing" textLength="55.0278" x="373" y="897.0669">contains</text></g><!--link ManifestStore to Manifest--><g id="link_ManifestStore_Manifest"><path codeLine="128" d="M229,303.5 C281.14,303.5 241.7383,366.0032 202.3183,416.1432 " fill="none" id="ManifestStore-to-Manifest" style="stroke:#008000;stroke-width:1.0;"/><polygon fill="#008000" points="198.61,420.86,207.317,416.257,201.7003,416.9293,201.028,411.3126,198.61,420.86" style="stroke:#008000;stroke-width:1.0;"/><text fill="#008000" font-family="sans-serif" font-size="13" lengthAdjust="spacing" textLength="55.0278" x="231" y="387.0669">contains</text></g><!--link Manifest to Assertion--><g id="link_Manifest_Assertion"><path codeLine="130" d="M214,465.5 C273.18,465.5 225.2517,548.0444 187.9317,602.0344 " fill="none" id="Manifest-to-Assertion" style="stroke:#008000;stroke-width:1.0;"/><polygon fill="#008000" points="184.52,606.97,192.928,601.841,187.3631,602.857,186.3471,597.2921,184.52,606.97" style="stroke:#008000;stroke-width:1.0;"/><text fill="#008000" font-family="sans-serif" font-size="13" lengthAdjust="spacing" textLength="55.0278" x="214" y="573.0669">contains</text></g><!--link BMFFHash to MerkleMap--><g id="link_BMFFHash_MerkleMap"><path codeLine="131" d="M232,1048 C250.23,1048 241.22,1073.91 231,1089 C212.02,1117.03 179.63,1090.74 161,1119 C156.84,1125.31 158.45,1128.89 161,1136 C168.49,1156.84 177.5643,1171.977 191.5643,1189.267 " fill="none" id="BMFFHash-to-MerkleMap" style="stroke:#008000;stroke-width:1.0;"/><polygon fill="#008000" points="195.34,1193.93,192.7851,1184.4183,192.1936,1190.0441,186.5677,1189.4526,195.34,1193.93" style="stroke:#008000;stroke-width:1.0;"/><text fill="#008000" font-family="sans-serif" font-size="13" lengthAdjust="spacing" textLength="55.0278" x="162" y="1132.0669">contains</text></g><!--link BMFFMerkleMap to MerkleMap--><g id="link_BMFFMerkleMap_MerkleMap"><path codeLine="132" d="M290,988 C273.18,988 249.2,1121.66 258,1136 C273.38,1161.08 301.34,1141.1 317,1166 C327.42,1182.56 343.56,1210 324,1210 " fill="none" id="BMFFMerkleMap-to-MerkleMap" style="stroke:#0000FF;stroke-width:1.0;"/><polygon fill="#0000FF" points="318,1210,327,1214,323,1210,327,1206,318,1210" style="stroke:#0000FF;stroke-width:1.0;"/><text fill="#0000FF" font-family="sans-serif" font-size="13" lengthAdjust="spacing" textLength="69.418" x="259" y="1132.0669">references</text></g><!--link BMFFMerkleMap to MerkleMap--><g id="link_BMFFMerkleMap_MerkleMap"><path codeLine="133" d="M454,1012 C511.85,1012 381.85,1234 324,1234 " fill="none" id="BMFFMerkleMap-to-MerkleMap-1" style="stroke:#0000FF;stroke-width:1.0;"/><polygon fill="#0000FF" points="318,1234,327,1238,323,1234,327,1230,318,1234" style="stroke:#0000FF;stroke-width:1.0;"/><text fill="#0000FF" font-family="sans-serif" font-size="13" lengthAdjust="spacing" textLength="69.418" x="431" y="1132.0669">references</text></g><rect fill="#DDDDDD" height="75.1875" id="_legend" rx="7.5" ry="7.5" style="stroke:#000000;stroke-width:1.0;" width="411.0195" x="189.5728" y="1362.4063"/><ellipse cx="200.0728" cy="1376.2031" fill="#000000" rx="2.5" ry="2.5" style="stroke:#000000;stroke-width:0.0;"/><text fill="#000000" font-family="sans-serif" font-size="14" lengthAdjust="spacing" textLength="389.0195" x="206.5728" y="1380.4014">All relationships are singular unless otherwise specified</text><ellipse cx="200.0728" cy="1392.5" fill="#000000" rx="2.5" ry="2.5" style="stroke:#000000;stroke-width:0.0;"/><text fill="#000000" font-family="sans-serif" font-size="14" lengthAdjust="spacing" textLength="295.5107" x="206.5728" y="1396.6982">Green lines represent embedded/contains</text><ellipse cx="200.0728" cy="1408.7969" fill="#000000" rx="2.5" ry="2.5" style="stroke:#000000;stroke-width:0.0;"/><text fill="#000000" font-family="sans-serif" font-size="14" lengthAdjust="spacing" textLength="266.2529" x="206.5728" y="1412.9951">Blue lines represent linked references</text><ellipse cx="200.0728" cy="1425.0938" fill="#000000" rx="2.5" ry="2.5" style="stroke:#000000;stroke-width:0.0;"/><text fill="#000000" font-family="sans-serif" font-size="14" lengthAdjust="spacing" textLength="48.1523" x="206.5728" y="1429.292">Text in</text><text fill="#000000" font-family="sans-serif" font-size="14" font-style="italic" lengthAdjust="spacing" textLength="40.7285" x="259.1753" y="1429.292">italics</text><text fill="#000000" font-family="sans-serif" font-size="14" lengthAdjust="spacing" textLength="177.6592" x="304.354" y="1429.292">means optional elements</text><!--SRC=[dLR1RkCs43rBNp5m2WGeO0ljeGSr293iDcqERWz9qSDsiQ2baKI48bMIYkDTvDztXfHaAGuIe0OCaCFXcpSpZsEVmvz_tV-M0sel_G6a0w51A2aSLCP2eOHpwONp1uMNQTXzbAAseeLlASJZiEBFEGZlhTpr7XccX1PzOqet7jyOxJyOHR0xrUDelHR5GsrDhyjuTa2bp3wTC6CCBThnHeEYH3j51M3SE_aLuQTV9jiisACq2ltIc_E1dL7bO7vE-VkSNcH3gccYi4PTfado8rmf1HQLyD9eryYEihC8JkgwLy92hnKIHUCRj7lfwAJ3GbOIu-tVBQ869JLLnM9dqL6n0TiTbYMMMK5yXDGk-5vJOKvSQV-09HagjAWBZAxt-EH1QiWowQbXXSioAhZGHAHZea81Acm9WFmfao6VD3c7HfO8n9Q86ZyPX3uGguvKu1jApMqscpG99uMqXS9X4rrQvczTW1EFHfRGMREZU0xsqZS4LYlYN5Yp9oKXSXZt87KdM3kSeJzq2CQIGbBc5-HtvHnw8EsjxYt90iuqt6hf9UNtDLGVxh3cb5RK_eGRL_pSYIz3lOilE_C4qVwlvtMWqlMsCzILLIkqhD3v5TMFSqi-KEa9Z6-aoVE2XGtHA4ZoKNWnNiYoBNfHaYNB-4OwtBZUtjpy8LmJg3EbJKExpQwjgi0qmQT2zOxban8G4nIg7fVio-iiQz4-AFpqcT1f7pH_3B8DXrlHXIZHTTsARZKyXLxB_tgyZP8Ue9KfX5gQ2dfgVcvW9hEjf89pBdCRCqJtwJEp6Qkq7Qfvvmqz1gOqMY2OOk9NXPUFE9uSwtYhQukb9ApnpCMIleIFA6D70lBKFYLakzZSoLeBtxCBCKtdghgn8YXdgQx9UjOEadfTKA_AANJWH4opm2oBPTTO4Ul_tJesSHNcjYoBpQ7gKMHjFBriqu6fNaJ_blxjugCVWuKHFKIXEr19sgViKHXhiV1m90gLDMsudLxiBfSA7zmkijqbpKKh3fk9YPLruq-uvFcO2B6w9ynfI_E5AaTjXtqZYsQGF7YQeAb2KKLcDBLqwPWo3IgQBaCFtmyRAqL1_sbe8bCYqJ0mHnW7hlGmJkNuE1y5pMN7Y5o2WHKDF5E5e46VFi-NJsAzNb- -U2LdDVyM_EffTETX2JaSvtzwr7cUyzY94DDmUVCsB6MUvp-SAdb4EwhYRKocj4WWpvVl6UOflflTw4WeY_SSK8v3zssOiHfv7cKNAKm9lNzvfeVf9ImmPlOp_gCImNX5MFCVuLT4hKx1HlFRMDy1]--></g></svg>