<svg xmlns="http://www.w3.org/2000/svg" xmlns:xlink="http://www.w3.org/1999/xlink" contentStyleType="text/css" height="1034px" preserveAspectRatio="none" style="width:487px;height:1034px;background:#FFFFFF;" version="1.1" viewBox="0 0 487 1034" width="487px" zoomAndPan="magnify"><defs/><g><!--cluster c2pa--><g id="cluster_c2pa"><rect fill="#E6E6FA" height="1021" rx="2.5" ry="2.5" style="stroke:#800080;stroke-width:1.0;" width="473" x="7" y="7"/><line style="stroke:#800080;stroke-width:1.0;" x1="7" x2="480" y1="27.2969" y2="27.2969"/><text fill="#000000" font-family="Source Sans Pro" font-size="14" font-weight="bold" lengthAdjust="spacing" textLength="251.9043" x="117.5479" y="21.9951">Manifest Store - JUMBF (`c2pa`)</text></g><!--cluster c2ma--><g id="cluster_c2ma"><rect fill="#90EE90" height="954" rx="2.5" ry="2.5" style="stroke:#008000;stroke-width:1.0;" width="425" x="31" y="50"/><line style="stroke:#008000;stroke-width:1.0;" x1="31" x2="456" y1="70.2969" y2="70.2969"/><text fill="#000000" font-family="Source Sans Pro" font-size="14" font-weight="bold" lengthAdjust="spacing" textLength="241.7939" x="122.603" y="64.9951">Manifest (`c2ma` : `urn:c2pa`)</text></g><!--cluster c2cs--><g id="cluster_c2cs"><rect fill="#FFE4B5" height="87" rx="2.5" ry="2.5" style="stroke:#FF4500;stroke-width:1.0;" width="356" x="65" y="93"/><line style="stroke:#FF4500;stroke-width:1.0;" x1="65" x2="421" y1="113.2969" y2="113.2969"/><text fill="#000000" font-family="Source Sans Pro" font-size="14" font-weight="bold" lengthAdjust="spacing" textLength="340.2998" x="72.8501" y="107.9951">Claim Signature (`c2cs` : `c2pa.signature`)</text></g><!--cluster c2cl--><g id="cluster_c2cl"><rect fill="#FFB6C1" height="87" rx="2.5" ry="2.5" style="stroke:#FF0000;stroke-width:1.0;" width="377" x="55" y="204"/><line style="stroke:#FF0000;stroke-width:1.0;" x1="55" x2="432" y1="224.2969" y2="224.2969"/><text fill="#000000" font-family="Source Sans Pro" font-size="14" font-weight="bold" lengthAdjust="spacing" textLength="245.0068" x="62.5083" y="218.9951">Claim (`c2cl` : `c2pa.claim.v2`)</text></g><!--cluster c2as--><g id="cluster_c2as"><rect fill="#ADD8E6" height="487" rx="2.5" ry="2.5" style="stroke:#0000FF;stroke-width:1.0;" width="360" x="63" y="315"/><line style="stroke:#0000FF;stroke-width:1.0;" x1="63" x2="423" y1="335.2969" y2="335.2969"/><text fill="#000000" font-family="Source Sans Pro" font-size="14" font-weight="bold" lengthAdjust="spacing" textLength="344.2305" x="70.8848" y="329.9951">Assertion Store (`c2as` : `c2pa.assertions`)</text></g><!--cluster c2pa.metadata --><g id="cluster_c2pa.metadata "><rect fill="#E0FFFF" height="87" rx="2.5" ry="2.5" style="stroke:#0000FF;stroke-width:1.0;" width="139" x="174" y="358"/><line style="stroke:#0000FF;stroke-width:1.0;" x1="174" x2="313" y1="378.2969" y2="378.2969"/><text fill="#000000" font-family="Source Sans Pro" font-size="14" font-weight="bold" lengthAdjust="spacing" textLength="118.6582" x="181.7339" y="372.9951">c2pa.metadata</text></g><!--cluster c2pa.thumbnail.claim        --><g id="cluster_c2pa.thumbnail.claim        "><rect fill="#E0FFFF" height="87" rx="2.5" ry="2.5" style="stroke:#0000FF;stroke-width:1.0;" width="225" x="131" y="469"/><line style="stroke:#0000FF;stroke-width:1.0;" x1="131" x2="356" y1="489.2969" y2="489.2969"/><text fill="#000000" font-family="Source Sans Pro" font-size="14" font-weight="bold" lengthAdjust="spacing" textLength="170.3242" x="138.8418" y="483.9951">c2pa.thumbnail.claim</text></g><!--cluster c2pa.actions                           --><g id="cluster_c2pa.actions                           "><rect fill="#E0FFFF" height="87" rx="2.5" ry="2.5" style="stroke:#0000FF;stroke-width:1.0;" width="247" x="120" y="580"/><line style="stroke:#0000FF;stroke-width:1.0;" x1="120" x2="367" y1="600.2969" y2="600.2969"/><text fill="#000000" font-family="Source Sans Pro" font-size="14" font-weight="bold" lengthAdjust="spacing" textLength="99.9824" x="127.7095" y="594.9951">c2pa.actions</text></g><!--cluster c2pa.hash.data                        --><g id="cluster_c2pa.hash.data                        "><rect fill="#E0FFFF" height="87" rx="2.5" ry="2.5" style="stroke:#0000FF;stroke-width:1.0;" width="254" x="116" y="691"/><line style="stroke:#0000FF;stroke-width:1.0;" x1="116" x2="370" y1="711.2969" y2="711.2969"/><text fill="#000000" font-family="Source Sans Pro" font-size="14" font-weight="bold" lengthAdjust="spacing" textLength="121.4678" x="123.7778" y="705.9951">c2pa.hash.data</text></g><!--cluster c2db--><g id="cluster_c2db"><rect fill="none" height="154" rx="2.5" ry="2.5" style="stroke:#181818;stroke-width:1.0;" width="359" x="64" y="826"/><line style="stroke:#181818;stroke-width:1.0;" x1="64" x2="423" y1="846.2969" y2="846.2969"/><text fill="#000000" font-family="Source Sans Pro" font-size="14" font-weight="bold" lengthAdjust="spacing" textLength="343.1025" x="71.9487" y="840.9951">Data Box Store (`c2db` : `c2pa.databoxes`)</text></g><!--cluster c2pa.data--><g id="cluster_c2pa.data"><rect fill="#FFF0F5" height="87" rx="2.5" ry="2.5" style="stroke:#9400D3;stroke-width:1.0;" width="108" x="189" y="869"/><line style="stroke:#9400D3;stroke-width:1.0;" x1="189" x2="297" y1="889.2969" y2="889.2969"/><text fill="#000000" font-family="Source Sans Pro" font-size="14" font-weight="bold" lengthAdjust="spacing" textLength="78.4355" x="203.7822" y="883.9951">c2pa.data</text></g><!--entity CS--><g id="elem_CS"><rect fill="#F1F1F1" height="36.2969" rx="2.5" ry="2.5" style="stroke:#181818;stroke-width:0.5;" width="196.4622" x="145" y="128"/><path d="M162.4167,141.4635 C160.8067,141.4635 159.5,142.7702 159.5,144.3802 C159.5,144.5669 159.5,144.7535 159.535,144.9285 L156,148.4635 L156,150.7969 L159.5,150.7969 L159.5,148.4635 L161.8333,148.4635 L161.8333,147.2969 L161.8683,147.2619 C162.0433,147.2969 162.23,147.2969 162.4167,147.2969 C164.0267,147.2969 165.3333,145.9902 165.3333,144.3802 C165.3333,142.7702 164.0267,141.4635 162.4167,141.4635 M163,142.6302 C163.6417,142.6302 164.1667,143.1552 164.1667,143.7969 C164.1667,144.4385 163.6417,144.9635 163,144.9635 C162.3583,144.9635 161.8333,144.4385 161.8333,143.7969 C161.8333,143.1552 162.3583,142.6302 163,142.6302 " fill="#000000" style="stroke:;stroke-width:0.0;stroke-dasharray:;"/><text fill="#000000" font-family="Source Sans Pro" font-size="14" lengthAdjust="spacing" textLength="160.6787" x="170.7835" y="150.9951">COSE Digital Signature</text></g><!--entity C--><g id="elem_C"><rect fill="#F1F1F1" height="36.2969" rx="2.5" ry="2.5" style="stroke:#181818;stroke-width:0.5;" width="75.9105" x="205" y="239"/><path d="M221.8333,252.4635 L218.3333,259.4635 L219.5,259.4635 L223,252.4635 L221.8333,252.4635 M217.1667,253.6302 L216,255.9635 L217.1667,258.2969 L218.3333,258.2969 L217.1667,255.9635 L218.3333,253.6302 L217.1667,253.6302 M223,253.6302 L224.1667,255.9635 L223,258.2969 L224.1667,258.2969 L225.3333,255.9635 L224.1667,253.6302 L223,253.6302 " fill="#000000" style="stroke:;stroke-width:0.0;stroke-dasharray:;"/><text fill="#000000" font-family="Source Sans Pro" font-size="14" lengthAdjust="spacing" textLength="40.127" x="230.7835" y="261.9951">CBOR</text></g><!--entity A1--><g id="elem_A1"><rect fill="#F1F1F1" height="36.2969" rx="2.5" ry="2.5" style="stroke:#181818;stroke-width:0.5;" width="93.9232" x="196" y="393"/><path d="M212.8333,406.4635 L209.3333,413.4635 L210.5,413.4635 L214,406.4635 L212.8333,406.4635 M208.1667,407.6302 L207,409.9635 L208.1667,412.2969 L209.3333,412.2969 L208.1667,409.9635 L209.3333,407.6302 L208.1667,407.6302 M214,407.6302 L215.1667,409.9635 L214,412.2969 L215.1667,412.2969 L216.3333,409.9635 L215.1667,407.6302 L214,407.6302 " fill="#000000" style="stroke:;stroke-width:0.0;stroke-dasharray:;"/><text fill="#000000" font-family="Source Sans Pro" font-size="14" lengthAdjust="spacing" textLength="58.1396" x="221.7835" y="415.9951">JSON-LD</text></g><!--entity A2--><g id="elem_A2"><rect fill="#F1F1F1" height="36.2969" rx="2.5" ry="2.5" style="stroke:#181818;stroke-width:0.5;" width="139.9359" x="173" y="504"/><path d="M184,517.4635 L184,526.7969 L193.3333,526.7969 L193.3333,517.4635 L184,517.4635 M185.1667,518.6302 L192.1667,518.6302 L192.1667,522.1302 L191,520.9635 L189.8333,522.1302 L192.1667,524.4635 L192.1667,525.6302 L191,525.6302 L186.3333,520.9635 L185.1667,522.1302 L185.1667,518.6302 " fill="#000000" style="stroke:;stroke-width:0.0;stroke-dasharray:;"/><text fill="#000000" font-family="Source Sans Pro" font-size="14" lengthAdjust="spacing" textLength="104.1523" x="198.7835" y="526.9951">Embedded File</text></g><!--entity A3--><g id="elem_A3"><rect fill="#F1F1F1" height="36.2969" rx="2.5" ry="2.5" style="stroke:#181818;stroke-width:0.5;" width="75.9105" x="205" y="615"/><path d="M221.8333,628.4635 L218.3333,635.4635 L219.5,635.4635 L223,628.4635 L221.8333,628.4635 M217.1667,629.6302 L216,631.9635 L217.1667,634.2969 L218.3333,634.2969 L217.1667,631.9635 L218.3333,629.6302 L217.1667,629.6302 M223,629.6302 L224.1667,631.9635 L223,634.2969 L224.1667,634.2969 L225.3333,631.9635 L224.1667,629.6302 L223,629.6302 " fill="#000000" style="stroke:;stroke-width:0.0;stroke-dasharray:;"/><text fill="#000000" font-family="Source Sans Pro" font-size="14" lengthAdjust="spacing" textLength="40.127" x="230.7835" y="637.9951">CBOR</text></g><!--entity A4--><g id="elem_A4"><rect fill="#F1F1F1" height="36.2969" rx="2.5" ry="2.5" style="stroke:#181818;stroke-width:0.5;" width="75.9105" x="205" y="726"/><path d="M221.8333,739.4635 L218.3333,746.4635 L219.5,746.4635 L223,739.4635 L221.8333,739.4635 M217.1667,740.6302 L216,742.9635 L217.1667,745.2969 L218.3333,745.2969 L217.1667,742.9635 L218.3333,740.6302 L217.1667,740.6302 M223,740.6302 L224.1667,742.9635 L223,745.2969 L224.1667,745.2969 L225.3333,742.9635 L224.1667,740.6302 L223,740.6302 " fill="#000000" style="stroke:;stroke-width:0.0;stroke-dasharray:;"/><text fill="#000000" font-family="Source Sans Pro" font-size="14" lengthAdjust="spacing" textLength="40.127" x="230.7835" y="748.9951">CBOR</text></g><!--entity VC--><g id="elem_VC"><rect fill="#F1F1F1" height="36.2969" rx="2.5" ry="2.5" style="stroke:#181818;stroke-width:0.5;" width="75.9105" x="205" y="904"/><path d="M221.8333,917.4635 L218.3333,924.4635 L219.5,924.4635 L223,917.4635 L221.8333,917.4635 M217.1667,918.6302 L216,920.9635 L217.1667,923.2969 L218.3333,923.2969 L217.1667,920.9635 L218.3333,918.6302 L217.1667,918.6302 M223,918.6302 L224.1667,920.9635 L223,923.2969 L224.1667,923.2969 L225.3333,920.9635 L224.1667,918.6302 L223,918.6302 " fill="#000000" style="stroke:;stroke-width:0.0;stroke-dasharray:;"/><text fill="#000000" font-family="Source Sans Pro" font-size="14" lengthAdjust="spacing" textLength="40.127" x="230.7835" y="926.9951">CBOR</text></g><!--SRC=[ZP9VJy8m5CMVjqznuC7fWppuI0W9_pGOWOI1ByR0tLQmPbt9sY74yDrjEq1G4hqFosvxVgVtD0M009IcyaD1y0tFbbXJpcMX8ADt5ci5de6Wp4xAa71QvYHyWvNKh8Hyjn90lt45NUIPmHSBqp9GeQKWpMCiSrcix0dH5a4jA8qp4ip1YcdNg1N5B6GhoadB79dCMEbUuLcS5Wc3e8mlcD8pfRUfyQlnGgI-xmNebkDLd3wcF45yjoAGGdMmXn0QLuPRF4u7xNjSpwrYVbD5es7_caryElh4GVnmi8oWEUgOcwJrKmDH6dYUTvXM5T5nO3TefVFKwW_2_iEmDPcEU_u_n7zeMc7O6q_wes4u6Lb3dDG-GXAv25tIXBRSx2_11aaY5yI6g2LcEv8RfWvnakZiFivCgqV4QjVnHQMjtBmYSg_dkOCN6yLKuogM2MkYqnwDBrAllrPt5jtvtstv_G80]--></g></svg>