<svg xmlns="http://www.w3.org/2000/svg" xmlns:xlink="http://www.w3.org/1999/xlink" contentStyleType="text/css" height="847px" preserveAspectRatio="none" style="width:573px;height:847px;background:#FFFFFF;" version="1.1" viewBox="0 0 573 847" width="573px" zoomAndPan="magnify"><defs/><g><!--cluster c2pa--><g id="cluster_c2pa"><rect fill="#E6E6FA" height="834" rx="2.5" ry="2.5" style="stroke:#800080;stroke-width:1.0;" width="559" x="7" y="7"/><line style="stroke:#800080;stroke-width:1.0;" x1="7" x2="566" y1="27.2969" y2="27.2969"/><text fill="#000000" font-family="Source Sans Pro" font-size="14" font-weight="bold" lengthAdjust="spacing" textLength="116.4229" x="228.2886" y="21.9951">Manifest Store</text></g><!--cluster c2ma--><g id="cluster_c2ma"><rect fill="#90EE90" height="767" rx="2.5" ry="2.5" style="stroke:#008000;stroke-width:1.0;" width="511" x="31" y="50"/><line style="stroke:#008000;stroke-width:1.0;" x1="31" x2="542" y1="70.2969" y2="70.2969"/><text fill="#000000" font-family="Source Sans Pro" font-size="14" font-weight="bold" lengthAdjust="spacing" textLength="68.7559" x="252.1221" y="64.9951">Manifest</text></g><!--cluster c2cs--><g id="cluster_c2cs"><rect fill="#FFE4B5" height="87" rx="2.5" ry="2.5" style="stroke:#FF4500;stroke-width:1.0;" width="463" x="55" y="93"/><line style="stroke:#FF4500;stroke-width:1.0;" x1="55" x2="518" y1="113.2969" y2="113.2969"/><text fill="#000000" font-family="Source Sans Pro" font-size="14" font-weight="bold" lengthAdjust="spacing" textLength="126.1572" x="223.4214" y="107.9951">Claim Signature</text></g><!--cluster c2cl--><g id="cluster_c2cl"><rect fill="#FFB6C1" height="105" rx="2.5" ry="2.5" style="stroke:#FF0000;stroke-width:1.0;" width="359" x="106.5" y="204"/><line style="stroke:#FF0000;stroke-width:1.0;" x1="106.5" x2="465.5" y1="224.2969" y2="224.2969"/><text fill="#000000" font-family="Source Sans Pro" font-size="14" font-weight="bold" lengthAdjust="spacing" textLength="43.9072" x="246.9873" y="218.9951">Claim</text></g><!--cluster c2as--><g id="cluster_c2as"><rect fill="#ADD8E6" height="460" rx="2.5" ry="2.5" style="stroke:#0000FF;stroke-width:1.0;" width="380" x="96.5" y="333"/><line style="stroke:#0000FF;stroke-width:1.0;" x1="96.5" x2="476.5" y1="353.2969" y2="353.2969"/><text fill="#000000" font-family="Source Sans Pro" font-size="14" font-weight="bold" lengthAdjust="spacing" textLength="122.6436" x="225.1782" y="347.9951">Assertion Store</text></g><!--cluster c2pa.metadata--><g id="cluster_c2pa.metadata"><rect fill="#E0FFFF" height="121" rx="2.5" ry="2.5" style="stroke:#0000FF;stroke-width:1.0;" width="302" x="135" y="376"/><line style="stroke:#0000FF;stroke-width:1.0;" x1="135" x2="437" y1="396.2969" y2="396.2969"/><text fill="#000000" font-family="Source Sans Pro" font-size="14" font-weight="bold" lengthAdjust="spacing" textLength="118.6582" x="226.6709" y="390.9951">c2pa.metadata</text></g><!--cluster               c2pa.thumbnail.claim                --><g id="cluster_              c2pa.thumbnail.claim                "><rect fill="#E0FFFF" height="87" rx="2.5" ry="2.5" style="stroke:#0000FF;stroke-width:1.0;" width="332" x="120.5" y="521"/><line style="stroke:#0000FF;stroke-width:1.0;" x1="120.5" x2="452.5" y1="541.2969" y2="541.2969"/><text fill="#000000" font-family="Source Sans Pro" font-size="14" font-weight="bold" lengthAdjust="spacing" textLength="170.3242" x="196.4639" y="535.9951">c2pa.thumbnail.claim</text></g><!--cluster               c2pa.hash.data                       --><g id="cluster_              c2pa.hash.data                       "><rect fill="#E0FFFF" height="137" rx="2.5" ry="2.5" style="stroke:#0000FF;stroke-width:1.0;" width="317" x="128" y="632"/><line style="stroke:#0000FF;stroke-width:1.0;" x1="128" x2="445" y1="652.2969" y2="652.2969"/><text fill="#000000" font-family="Source Sans Pro" font-size="14" font-weight="bold" lengthAdjust="spacing" textLength="121.4678" x="203.833" y="646.9951">c2pa.hash.data</text></g><!--entity CS--><g id="elem_CS"><rect fill="#F1F1F1" height="36.2969" rx="2.5" ry="2.5" style="stroke:#181818;stroke-width:0.5;" width="196.4622" x="188" y="128"/><path d="M205.4167,141.4635 C203.8067,141.4635 202.5,142.7702 202.5,144.3802 C202.5,144.5669 202.5,144.7535 202.535,144.9285 L199,148.4635 L199,150.7969 L202.5,150.7969 L202.5,148.4635 L204.8333,148.4635 L204.8333,147.2969 L204.8683,147.2619 C205.0433,147.2969 205.23,147.2969 205.4167,147.2969 C207.0267,147.2969 208.3333,145.9902 208.3333,144.3802 C208.3333,142.7702 207.0267,141.4635 205.4167,141.4635 M206,142.6302 C206.6417,142.6302 207.1667,143.1552 207.1667,143.7969 C207.1667,144.4385 206.6417,144.9635 206,144.9635 C205.3583,144.9635 204.8333,144.4385 204.8333,143.7969 C204.8333,143.1552 205.3583,142.6302 206,142.6302 " fill="#000000" style="stroke:;stroke-width:0.0;stroke-dasharray:;"/><text fill="#000000" font-family="Source Sans Pro" font-size="14" lengthAdjust="spacing" textLength="160.6787" x="213.7835" y="150.9951">COSE Digital Signature</text></g><!--entity C--><g id="elem_C"><rect fill="#F1F1F1" height="52.5938" rx="2.5" ry="2.5" style="stroke:#181818;stroke-width:0.5;" width="326.6602" x="122.5" y="239.5"/><path d="M139.3333,252.9635 L135.8333,259.9635 L137,259.9635 L140.5,252.9635 L139.3333,252.9635 M134.6667,254.1302 L133.5,256.4635 L134.6667,258.7969 L135.8333,258.7969 L134.6667,256.4635 L135.8333,254.1302 L134.6667,254.1302 M140.5,254.1302 L141.6667,256.4635 L140.5,258.7969 L141.6667,258.7969 L142.8333,256.4635 L141.6667,254.1302 L140.5,254.1302 " fill="#000000" style="stroke:;stroke-width:0.0;stroke-dasharray:;"/><text fill="#000000" font-family="Source Sans Pro" font-size="14" lengthAdjust="spacing" textLength="221.7783" x="148.2835" y="262.4951">CBOR structure with references</text><text fill="#000000" font-family="Source Sans Pro" font-size="14" lengthAdjust="spacing" textLength="293.3096" x="132.5" y="278.792">to the Assertions and the Claim Signature</text></g><!--entity A1--><g id="elem_A1"><rect fill="#F1F1F1" height="68.8906" rx="2.5" ry="2.5" style="stroke:#181818;stroke-width:0.5;" width="269.8529" x="151" y="411.5"/><path d="M167.8333,424.9635 L164.3333,431.9635 L165.5,431.9635 L169,424.9635 L167.8333,424.9635 M163.1667,426.1302 L162,428.4635 L163.1667,430.7969 L164.3333,430.7969 L163.1667,428.4635 L164.3333,426.1302 L163.1667,426.1302 M169,426.1302 L170.1667,428.4635 L169,430.7969 L170.1667,430.7969 L171.3333,428.4635 L170.1667,426.1302 L169,426.1302 " fill="#000000" style="stroke:;stroke-width:0.0;stroke-dasharray:;"/><text fill="#000000" font-family="Source Sans Pro" font-size="14" lengthAdjust="spacing" textLength="229.6191" x="176.7835" y="434.4951">JSON-LD structure with details of</text><text fill="#000000" font-family="Source Sans Pro" font-size="14" lengthAdjust="spacing" textLength="244.4053" x="161" y="450.792">the camera used to take the photo</text><text fill="#000000" font-family="Source Sans Pro" font-size="14" lengthAdjust="spacing" textLength="148.3877" x="161" y="467.0889">and it's GPS location.</text></g><!--entity A2--><g id="elem_A2"><rect fill="#F1F1F1" height="36.2969" rx="2.5" ry="2.5" style="stroke:#181818;stroke-width:0.5;" width="166.9447" x="202.5" y="556"/><path d="M213.5,569.4635 L213.5,578.7969 L222.8333,578.7969 L222.8333,569.4635 L213.5,569.4635 M214.6667,570.6302 L221.6667,570.6302 L221.6667,574.1302 L220.5,572.9635 L219.3333,574.1302 L221.6667,576.4635 L221.6667,577.6302 L220.5,577.6302 L215.8333,572.9635 L214.6667,574.1302 L214.6667,570.6302 " fill="#000000" style="stroke:;stroke-width:0.0;stroke-dasharray:;"/><text fill="#000000" font-family="Source Sans Pro" font-size="14" lengthAdjust="spacing" textLength="131.1611" x="228.2835" y="578.9951">Binary Image Data</text></g><!--entity A4--><g id="elem_A4"><rect fill="#F1F1F1" height="85.1875" rx="2.5" ry="2.5" style="stroke:#181818;stroke-width:0.5;" width="272.3623" x="150" y="667.5"/><path d="M166.8333,680.9635 L163.3333,687.9635 L164.5,687.9635 L168,680.9635 L166.8333,680.9635 M162.1667,682.1302 L161,684.4635 L162.1667,686.7969 L163.3333,686.7969 L162.1667,684.4635 L163.3333,682.1302 L162.1667,682.1302 M168,682.1302 L169.1667,684.4635 L168,686.7969 L169.1667,686.7969 L170.3333,684.4635 L169.1667,682.1302 L168,682.1302 " fill="#000000" style="stroke:;stroke-width:0.0;stroke-dasharray:;"/><text fill="#000000" font-family="Source Sans Pro" font-size="14" lengthAdjust="spacing" textLength="186.4844" x="175.7835" y="690.4951">CBOR structure containing</text><text fill="#000000" font-family="Source Sans Pro" font-size="14" lengthAdjust="spacing" textLength="153.3164" x="160" y="706.792">information about the</text><text fill="#000000" font-family="Source Sans Pro" font-size="14" lengthAdjust="spacing" textLength="207.8604" x="160" y="723.0889">cryptographic hashes binding</text><text fill="#000000" font-family="Source Sans Pro" font-size="14" lengthAdjust="spacing" textLength="103.9814" x="160" y="739.3857">to the content.</text></g><!--SRC=[jLN9Rjim43rRNp7n8JfPG8CU3GE9NHGjshgeZe4HZCcnn8QBG59DZIB_Nf9o4Y_oWWBboHozDyDvinW080UKqZmvKEAtq1NyGYjCwy0iVnBp3eG611U-I08kiBAeia3hM0yTAKkM77mj7FZMwa1VhSAL05jl57h1eBAcRMA4vHho8kySQrIKo8vykhW66PNKe4LlB6YZgVD-9JIJBITGgCMAd7zmVYs3lqAqIcRP88TPzxohX6TeER2R1W4T3BzkI506hpI4yJX-capWJm9l4TGkeOEgNUWMdBa4XtDdAb4eA4MbCGX4P_5TNEOEuiPZGsKmLMHQmdqsY6Ty_KZh2KpdvOSWH2KyohTm1nuMEvRdh3SrsPjQbyd9LyjphmwFxgEFhvdX59Auc_y0vstBabPFmjU1lI9Bcf7hfNgJsktMER9UcD21g7ao7Ih_JsfWL-ZN0DkTXFrbIinXRBH2aKUE7YF-27fNejjtHpJQrkbpEVys-ZBRbug7O4B66OIZBg8oBCoRHMWTyQGVFbAoDxNnvYWpwYfyxk3ZznAaOHZLA7hXYmFhdhPlAktPecQ-RjLIXqmArjTobqjvSr9AeR0AMju9ZNODd-8DPg5K_o6Z6brTn3OuCJwNfVJ-WkxOco9cT6WB7JSmT2jZ8FJAM9KA2BWqhO_bttnZTjru4_PfKuVb7LzE3fP2y-JWvMp0c-cB8KZxovkX_zRzUdxvLqcpDxgl1UUa5rPKjHzDqdvw1OHLrGTmsLy0]--></g></svg>