<?xml version="1.0" encoding="us-ascii" standalone="no"?><svg xmlns="http://www.w3.org/2000/svg" xmlns:xlink="http://www.w3.org/1999/xlink" contentStyleType="text/css" height="1570px" preserveAspectRatio="none" style="width:1231px;height:1570px;background:#FFFFFF;" version="1.1" viewBox="0 0 1231 1570" width="1231px" zoomAndPan="magnify"><defs/><g><!--class Asset--><g id="elem_Asset"><rect codeLine="35" fill="#F1F1F1" height="101.5156" id="Asset" rx="2.5" ry="2.5" style="stroke:#181818;stroke-width:0.5;" width="107" x="960" y="7"/><text fill="#000000" font-family="sans-serif" font-size="16" font-weight="bold" lengthAdjust="spacing" textLength="51" x="988" y="26.8516">Asset</text><line style="stroke:#181818;stroke-width:0.5;" x1="961" x2="1066" y1="35.625" y2="35.625"/><text fill="#000000" font-family="sans-serif" font-size="14" lengthAdjust="spacing" textLength="56" x="966" y="52.6201">Content</text><line style="stroke:#181818;stroke-width:1.0;stroke-dasharray:1.0,2.0;" x1="961" x2="1066" y1="59.9219" y2="59.9219"/><text fill="#000000" font-family="sans-serif" font-size="14" lengthAdjust="spacing" textLength="64" x="966" y="76.917">Metadata</text><line style="stroke:#181818;stroke-width:1.0;stroke-dasharray:1.0,2.0;" x1="961" x2="1066" y1="84.2188" y2="84.2188"/><text fill="#000000" font-family="sans-serif" font-size="14" lengthAdjust="spacing" textLength="95" x="966" y="101.2139">ManifestStore</text></g><!--class Assertion--><g id="elem_Assertion"><rect codeLine="42" fill="#F1F1F1" height="77.2188" id="Assertion" rx="2.5" ry="2.5" style="stroke:#181818;stroke-width:0.5;" width="91" x="693" y="973"/><text fill="#000000" font-family="sans-serif" font-size="16" font-weight="bold" lengthAdjust="spacing" textLength="85" x="696" y="992.8516">Assertion</text><line style="stroke:#181818;stroke-width:0.5;" x1="694" x2="783" y1="1001.625" y2="1001.625"/><text fill="#000000" font-family="sans-serif" font-size="14" lengthAdjust="spacing" textLength="32" x="699" y="1018.6201">Data</text><line style="stroke:#181818;stroke-width:1.0;stroke-dasharray:1.0,2.0;" x1="694" x2="783" y1="1025.9219" y2="1025.9219"/><text fill="#000000" font-family="sans-serif" font-size="14" font-style="italic" lengthAdjust="spacing" textLength="64" x="699" y="1042.917">Metadata</text></g><!--class Credential--><g id="elem_Credential"><rect codeLine="47" fill="#F1F1F1" height="28.625" id="Credential" rx="2.5" ry="2.5" style="stroke:#181818;stroke-width:0.5;" width="96" x="547.5" y="1130"/><text fill="#000000" font-family="sans-serif" font-size="16" font-weight="bold" lengthAdjust="spacing" textLength="90" x="550.5" y="1149.8516">Credential</text></g><!--class Binding--><g id="elem_Binding"><rect codeLine="49" fill="#F1F1F1" height="28.625" id="Binding" rx="2.5" ry="2.5" style="stroke:#181818;stroke-width:0.5;" width="70" x="979.5" y="604"/><text fill="#000000" font-family="sans-serif" font-size="16" font-weight="bold" lengthAdjust="spacing" textLength="64" x="982.5" y="623.8516">Binding</text></g><!--class Ingredient--><g id="elem_Ingredient"><rect codeLine="51" fill="#F1F1F1" height="125.8125" id="Ingredient" rx="2.5" ry="2.5" style="stroke:#181818;stroke-width:0.5;" width="98" x="680.5" y="1224"/><text fill="#000000" font-family="sans-serif" font-size="16" font-weight="bold" lengthAdjust="spacing" textLength="92" x="683.5" y="1243.8516">Ingredient</text><line style="stroke:#181818;stroke-width:0.5;" x1="681.5" x2="777.5" y1="1252.625" y2="1252.625"/><text fill="#000000" font-family="sans-serif" font-size="14" lengthAdjust="spacing" textLength="77" x="686.5" y="1269.6201">Information</text><line style="stroke:#181818;stroke-width:1.0;stroke-dasharray:1.0,2.0;" x1="681.5" x2="777.5" y1="1276.9219" y2="1276.9219"/><text fill="#000000" font-family="sans-serif" font-size="14" font-style="italic" lengthAdjust="spacing" textLength="32" x="686.5" y="1293.917">Data</text><line style="stroke:#181818;stroke-width:1.0;stroke-dasharray:1.0,2.0;" x1="681.5" x2="777.5" y1="1301.2188" y2="1301.2188"/><text fill="#000000" font-family="sans-serif" font-size="14" font-style="italic" lengthAdjust="spacing" textLength="72" x="686.5" y="1318.2139">Thumbnail</text><line style="stroke:#181818;stroke-width:1.0;stroke-dasharray:1.0,2.0;" x1="681.5" x2="777.5" y1="1325.5156" y2="1325.5156"/><text fill="#000000" font-family="sans-serif" font-size="14" font-style="italic" lengthAdjust="spacing" textLength="57" x="686.5" y="1342.5107">Manifest</text></g><!--class Claim--><g id="elem_Claim"><rect codeLine="60" fill="#F1F1F1" height="101.5156" id="Claim" rx="2.5" ry="2.5" style="stroke:#181818;stroke-width:0.5;" width="115" x="414" y="698"/><text fill="#000000" font-family="sans-serif" font-size="16" font-weight="bold" lengthAdjust="spacing" textLength="46" x="448.5" y="717.8516">Claim</text><line style="stroke:#181818;stroke-width:0.5;" x1="415" x2="528" y1="726.625" y2="726.625"/><text fill="#000000" font-family="sans-serif" font-size="14" lengthAdjust="spacing" textLength="73" x="420" y="743.6201">Assertions</text><line style="stroke:#181818;stroke-width:1.0;stroke-dasharray:1.0,2.0;" x1="415" x2="528" y1="750.9219" y2="750.9219"/><text fill="#000000" font-family="sans-serif" font-size="14" font-style="italic" lengthAdjust="spacing" textLength="77" x="420" y="767.917">Redactions</text><line style="stroke:#181818;stroke-width:1.0;stroke-dasharray:1.0,2.0;" x1="415" x2="528" y1="775.2188" y2="775.2188"/><text fill="#000000" font-family="sans-serif" font-size="14" lengthAdjust="spacing" textLength="103" x="420" y="792.2139">ClaimSignature</text></g><!--class ClaimSignature--><g id="elem_ClaimSignature"><rect codeLine="68" fill="#F1F1F1" height="77.2188" id="ClaimSignature" rx="2.5" ry="2.5" style="stroke:#181818;stroke-width:0.5;" width="147" x="154" y="972.5"/><text fill="#000000" font-family="sans-serif" font-size="16" font-weight="bold" lengthAdjust="spacing" textLength="131" x="162" y="992.3516">ClaimSignature</text><line style="stroke:#181818;stroke-width:0.5;" x1="155" x2="300" y1="1001.125" y2="1001.125"/><text fill="#000000" font-family="sans-serif" font-size="14" lengthAdjust="spacing" textLength="124" x="160" y="1018.1201">Identity Credential</text><line style="stroke:#181818;stroke-width:1.0;stroke-dasharray:1.0,2.0;" x1="155" x2="300" y1="1025.4219" y2="1025.4219"/><text fill="#000000" font-family="sans-serif" font-size="14" font-style="italic" lengthAdjust="spacing" textLength="135" x="160" y="1042.417">Trusted TimeStamp</text></g><!--class ManifestStore--><g id="elem_ManifestStore"><rect codeLine="73" fill="#F1F1F1" height="77.2188" id="ManifestStore" rx="2.5" ry="2.5" style="stroke:#181818;stroke-width:0.5;" width="147" x="631" y="238"/><text fill="#000000" font-family="sans-serif" font-size="16" font-weight="bold" lengthAdjust="spacing" textLength="126" x="641.5" y="257.8516">ManifestStore</text><line style="stroke:#181818;stroke-width:0.5;" x1="632" x2="777" y1="266.625" y2="266.625"/><text fill="#000000" font-family="sans-serif" font-size="14" lengthAdjust="spacing" textLength="99" x="637" y="283.6201">ActiveManifest</text><line style="stroke:#181818;stroke-width:1.0;stroke-dasharray:1.0,2.0;" x1="632" x2="777" y1="290.9219" y2="290.9219"/><text fill="#000000" font-family="sans-serif" font-size="14" font-style="italic" lengthAdjust="spacing" textLength="135" x="637" y="307.917">IngredientManifests</text></g><!--class Manifest--><g id="elem_Manifest"><rect codeLine="78" fill="#F1F1F1" height="125.8125" id="Manifest" rx="2.5" ry="2.5" style="stroke:#181818;stroke-width:0.5;" width="119" x="646" y="399"/><text fill="#000000" font-family="sans-serif" font-size="16" font-weight="bold" lengthAdjust="spacing" textLength="77" x="667" y="418.8516">Manifest</text><line style="stroke:#181818;stroke-width:0.5;" x1="647" x2="764" y1="427.625" y2="427.625"/><text fill="#000000" font-family="sans-serif" font-size="14" lengthAdjust="spacing" textLength="102" x="652" y="444.6201">AssertionStore</text><line style="stroke:#181818;stroke-width:1.0;stroke-dasharray:1.0,2.0;" x1="647" x2="764" y1="451.9219" y2="451.9219"/><text fill="#000000" font-family="sans-serif" font-size="14" font-style="italic" lengthAdjust="spacing" textLength="107" x="652" y="468.917">CredentialStore</text><line style="stroke:#181818;stroke-width:1.0;stroke-dasharray:1.0,2.0;" x1="647" x2="764" y1="476.2188" y2="476.2188"/><text fill="#000000" font-family="sans-serif" font-size="14" lengthAdjust="spacing" textLength="37" x="652" y="493.2139">Claim</text><line style="stroke:#181818;stroke-width:1.0;stroke-dasharray:1.0,2.0;" x1="647" x2="764" y1="500.5156" y2="500.5156"/><text fill="#000000" font-family="sans-serif" font-size="14" lengthAdjust="spacing" textLength="103" x="652" y="517.5107">ClaimSignature</text></g><!--class IngredientManifest--><g id="elem_IngredientManifest"><rect codeLine="87" fill="#F1F1F1" height="28.625" id="IngredientManifest" rx="2.5" ry="2.5" style="stroke:#181818;stroke-width:0.5;" width="175" x="7" y="1430"/><text fill="#000000" font-family="sans-serif" font-size="16" font-weight="bold" lengthAdjust="spacing" textLength="169" x="10" y="1449.8516">IngredientManifest</text></g><!--class Redaction--><g id="elem_Redaction"><rect codeLine="89" fill="#F1F1F1" height="28.625" id="Redaction" rx="2.5" ry="2.5" style="stroke:#181818;stroke-width:0.5;" width="94" x="367.5" y="879"/><text fill="#000000" font-family="sans-serif" font-size="16" font-weight="bold" lengthAdjust="spacing" textLength="88" x="370.5" y="898.8516">Redaction</text></g><!--link Asset to ManifestStore--><g id="link_Asset_ManifestStore"><path codeLine="92" d="M959.5,95 C866.28,95 783.2,176.27 738.73,229.6 " fill="none" id="Asset-to-ManifestStore" style="stroke:#181818;stroke-width:1.0;"/><polygon fill="#181818" points="735.33,233.7,744.1454,229.308,738.514,229.8449,737.9772,224.2136,735.33,233.7" style="stroke:#181818;stroke-width:1.0;"/></g><!--link Assertion to Ingredient--><g id="link_Assertion_Ingredient"><path codeLine="94" d="M785.5,1013 C803.28,1013 787.8,1035.53 784.5,1053 C777.73,1088.78 765.87,1094.81 756.5,1130 C749.2,1157.42 743.38,1188.1 739.05,1214.92 " fill="none" id="Assertion-to-Ingredient" style="stroke:#0000FF;stroke-width:1.0;"/><polygon fill="#0000FF" points="738.26,1219.88,743.6503,1211.6372,739.0611,1214.9446,735.7537,1210.3554,738.26,1219.88" style="stroke:#0000FF;stroke-width:1.0;"/><text fill="#0000FF" font-family="sans-serif" font-size="13" lengthAdjust="spacing" textLength="93" x="757.5" y="1149.0669">may reference</text></g><!--link Assertion to Credential--><g id="link_Assertion_Credential"><path codeLine="95" d="M692.5,1013 C637.61,1013 610.14,1088.28 600.11,1124.49 " fill="none" id="Assertion-to-Credential" style="stroke:#0000FF;stroke-width:1.0;"/><polygon fill="#0000FF" points="598.75,1129.53,604.9522,1121.8794,600.0499,1124.7019,597.2273,1119.7996,598.75,1129.53" style="stroke:#0000FF;stroke-width:1.0;"/><text fill="#0000FF" font-family="sans-serif" font-size="13" lengthAdjust="spacing" textLength="93" x="614.5" y="1096.0669">may reference</text></g><!--link Binding to Asset--><g id="link_Binding_Asset"><path codeLine="97" d="M1040.5,603.95 C1080.99,580.76 1154.5,529.38 1154.5,462 C1154.5,172 1154.5,172 1154.5,172 C1154.5,106.28 1136.86,49.93 1073.54,47.11 " fill="none" id="Binding-to-Asset" style="stroke:#0000FF;stroke-width:1.0;"/><polygon fill="#0000FF" points="1068.5,47,1077.4062,51.2046,1073.4987,47.1143,1077.5891,43.2067,1068.5,47" style="stroke:#0000FF;stroke-width:1.0;"/><text fill="#0000FF" font-family="sans-serif" font-size="13" lengthAdjust="spacing" textLength="68" x="1155.5" y="280.5669">references</text></g><!--link Binding to Asset--><g id="link_Binding_Asset"><path codeLine="98" d="M1014.5,603.77 C1014.5,576.67 1014.5,514.37 1014.5,462 C1014.5,172 1014.5,172 1014.5,172 C1014.5,136.09 1054.51,144.48 1067.5,111 C1073.18,96.36 1083.47,76.4 1073.57,71.92 " fill="none" id="Binding-to-Asset-1" style="stroke:#0000FF;stroke-width:1.0;"/><polygon fill="#0000FF" points="1068.5,71,1076.6478,76.5329,1073.4207,71.8869,1078.0668,68.6598,1068.5,71" style="stroke:#0000FF;stroke-width:1.0;"/><text fill="#0000FF" font-family="sans-serif" font-size="13" lengthAdjust="spacing" textLength="68" x="1015.5" y="280.5669">references</text></g><!--link ManifestStore to Manifest--><g id="link_ManifestStore_Manifest"><path codeLine="100" d="M779.5,278 C830.09,278 797.21,339.1 760.61,390.5 " fill="none" id="ManifestStore-to-Manifest" style="stroke:#008000;stroke-width:1.0;"/><polygon fill="#008000" points="757.51,394.81,766.0093,389.8339,760.427,390.7491,759.5119,385.1667,757.51,394.81" style="stroke:#008000;stroke-width:1.0;"/><text fill="#008000" font-family="sans-serif" font-size="13" lengthAdjust="spacing" textLength="54" x="786.5" y="361.0669">contains</text></g><!--link ManifestStore to IngredientManifest--><g id="link_ManifestStore_IngredientManifest"><path codeLine="101" d="M630.5,302 C500.13,302 65.5,329.63 65.5,460 C65.5,460 65.5,460 65.5,1287.5 C65.5,1337.81 80.26,1395.73 88.72,1424.8 " fill="none" id="ManifestStore-to-IngredientManifest" style="stroke:#008000;stroke-width:1.0;"/><polygon fill="#008000" points="90.22,1429.89,91.4786,1420.1219,88.7898,1425.0989,83.8128,1422.4102,90.22,1429.89" style="stroke:#008000;stroke-width:1.0;"/><text fill="#008000" font-family="sans-serif" font-size="13" lengthAdjust="spacing" textLength="54" x="66.5" y="898.0669">contains</text><text fill="#008000" font-family="sans-serif" font-size="13" lengthAdjust="spacing" textLength="36" x="46.0043" y="1418.8975">many</text></g><!--link Manifest to Assertion--><g id="link_Manifest_Assertion"><path codeLine="103" d="M766.5,439 C776.68,439 758.5,614.54 758.5,617.5 C758.5,617.5 758.5,617.5 758.5,894.5 C758.5,917.58 754.58,942.88 750.2,963.9 " fill="none" id="Manifest-to-Assertion" style="stroke:#008000;stroke-width:1.0;"/><polygon fill="#008000" points="749.14,968.87,754.9259,960.8998,750.1808,963.9795,747.1011,959.2345,749.14,968.87" style="stroke:#008000;stroke-width:1.0;"/><text fill="#008000" font-family="sans-serif" font-size="13" lengthAdjust="spacing" textLength="54" x="759.5" y="752.5669">contains</text><text fill="#008000" font-family="sans-serif" font-size="13" lengthAdjust="spacing" textLength="36" x="712.5535" y="961.9387">many</text></g><!--link Manifest to Binding--><g id="link_Manifest_Binding"><path codeLine="104" d="M766.5,439 C861.6,439 853.23,521.47 932.5,574 C947.84,584.17 965.81,593.92 981.01,601.6 " fill="none" id="Manifest-to-Binding" style="stroke:#008000;stroke-width:1.0;"/><polygon fill="#008000" points="985.63,603.92,979.3787,596.3094,981.1607,601.6782,975.7919,603.4602,985.63,603.92" style="stroke:#008000;stroke-width:1.0;"/><text fill="#008000" font-family="sans-serif" font-size="13" lengthAdjust="spacing" textLength="54" x="933.5" y="570.0669">contains</text></g><!--link Manifest to Ingredient--><g id="link_Manifest_Ingredient"><path codeLine="105" d="M766.5,439 C859.92,439 877.5,524.08 877.5,617.5 C877.5,617.5 877.5,617.5 877.5,1145.5 C877.5,1195.84 831.76,1233.47 791.14,1256.97 " fill="none" id="Manifest-to-Ingredient" style="stroke:#008000;stroke-width:1.0;"/><polygon fill="#008000" points="786.72,1259.49,796.5219,1258.5289,791.0691,1257.0231,792.5749,1251.5704,786.72,1259.49" style="stroke:#008000;stroke-width:1.0;"/><text fill="#008000" font-family="sans-serif" font-size="13" lengthAdjust="spacing" textLength="79" x="878.5" y="898.0669">may contain</text><text fill="#008000" font-family="sans-serif" font-size="13" lengthAdjust="spacing" textLength="36" x="786.72" y="1256.5569">many</text></g><!--link Manifest to Credential--><g id="link_Manifest_Credential"><path codeLine="106" d="M645.5,463 C617.05,463 645.02,498.59 646.5,527 C648.59,567.32 654.5,577.12 654.5,617.5 C654.5,617.5 654.5,617.5 651.5,841.5 C651.5,951.02 619.7,974.84 602.5,1083 C600.28,1096.95 598.47,1112.81 597.25,1124.79 " fill="none" id="Manifest-to-Credential" style="stroke:#008000;stroke-width:1.0;"/><polygon fill="#008000" points="596.73,1130,601.6106,1121.4455,597.2303,1125.0251,593.6507,1120.6449,596.73,1130" style="stroke:#008000;stroke-width:1.0;"/><text fill="#008000" font-family="sans-serif" font-size="13" lengthAdjust="spacing" textLength="79" x="655.5" y="845.0669">may contain</text><text fill="#008000" font-family="sans-serif" font-size="13" lengthAdjust="spacing" textLength="36" x="554.5461" y="1119.048">many</text></g><!--link Manifest to Claim--><g id="link_Manifest_Claim"><path codeLine="107" d="M645.5,487 C549.04,487 502.67,612.14 483.32,688.78 " fill="none" id="Manifest-to-Claim" style="stroke:#181818;stroke-width:1.0;"/><polygon fill="#181818" points="482.08,693.76,488.1434,685.9989,483.2927,688.9093,480.3823,684.0586,482.08,693.76" style="stroke:#181818;stroke-width:1.0;"/></g><!--link Manifest to ClaimSignature--><g id="link_Manifest_ClaimSignature"><path codeLine="108" d="M645.5,511 C591.85,511 174.5,563.85 174.5,617.5 C174.5,617.5 174.5,617.5 174.5,894.5 C174.5,920.45 185.69,946.94 197.79,967.99 " fill="none" id="Manifest-to-ClaimSignature" style="stroke:#181818;stroke-width:1.0;"/><polygon fill="#181818" points="200.38,972.4,199.266,962.6143,197.8455,968.09,192.3699,966.6695,200.38,972.4" style="stroke:#181818;stroke-width:1.0;"/></g><!--link Ingredient to IngredientManifest--><g id="link_Ingredient_IngredientManifest"><path codeLine="110" d="M679.5,1337.5 C477.76,1337.5 243.07,1399.29 143.34,1428.52 " fill="none" id="Ingredient-to-IngredientManifest" style="stroke:#0000FF;stroke-width:1.0;"/><polygon fill="#0000FF" points="138.41,1429.97,148.1746,1431.2553,143.205,1428.553,145.9074,1423.5833,138.41,1429.97" style="stroke:#0000FF;stroke-width:1.0;"/><text fill="#0000FF" font-family="sans-serif" font-size="13" lengthAdjust="spacing" textLength="93" x="317.5" y="1396.0669">may reference</text></g><!--link Claim to Assertion--><g id="link_Claim_Assertion"><path codeLine="112" d="M530.5,738 C591.57,738 574.58,800.35 611.5,849 C641.47,888.49 676.41,932.65 702.05,964.72 " fill="none" id="Claim-to-Assertion" style="stroke:#0000FF;stroke-width:1.0;"/><polygon fill="#0000FF" points="705.44,968.97,702.9455,959.4423,702.3183,965.0643,696.6963,964.4371,705.44,968.97" style="stroke:#0000FF;stroke-width:1.0;"/><text fill="#0000FF" font-family="sans-serif" font-size="13" lengthAdjust="spacing" textLength="68" x="658.5" y="898.0669">references</text><text fill="#0000FF" font-family="sans-serif" font-size="13" lengthAdjust="spacing" textLength="36" x="665.2116" y="961.8902">many</text></g><!--link Claim to Redaction--><g id="link_Claim_Redaction"><path codeLine="113" d="M413.5,762 C369.45,762 392.89,837.28 406.71,873.49 " fill="none" id="Claim-to-Redaction" style="stroke:#0000FF;stroke-width:1.0;"/><polygon fill="#0000FF" points="408.67,878.53,409.1302,868.6919,406.855,873.8711,401.6759,871.5959,408.67,878.53" style="stroke:#0000FF;stroke-width:1.0;"/><text fill="#0000FF" font-family="sans-serif" font-size="13" lengthAdjust="spacing" textLength="93" x="398.5" y="845.0669">may reference</text><text fill="#0000FF" font-family="sans-serif" font-size="13" lengthAdjust="spacing" textLength="36" x="364.4784" y="867.9601">many</text></g><!--link Claim to ClaimSignature--><g id="link_Claim_ClaimSignature"><path codeLine="114" d="M413.5,786 C341.01,786 324.57,822.22 279.5,879 C258.95,904.89 245.61,939.94 237.59,967.26 " fill="none" id="Claim-to-ClaimSignature" style="stroke:#0000FF;stroke-width:1.0;"/><polygon fill="#0000FF" points="236.15,972.27,242.4893,964.7326,237.5368,967.4662,234.8032,962.5137,236.15,972.27" style="stroke:#0000FF;stroke-width:1.0;"/><text fill="#0000FF" font-family="sans-serif" font-size="13" lengthAdjust="spacing" textLength="68" x="280.5" y="898.0669">references</text></g><rect fill="#DDDDDD" height="75.1875" id="_legend" rx="7.5" ry="7.5" style="stroke:#000000;stroke-width:1.0;" width="401" x="408.25" y="1475.625"/><ellipse cx="418.75" cy="1489.4219" fill="#000000" rx="2.5" ry="2.5" style="stroke:#000000;stroke-width:0.0;"/><text fill="#000000" font-family="sans-serif" font-size="14" lengthAdjust="spacing" textLength="379" x="425.25" y="1493.6201">All relationships are singular unless otherwise specified</text><ellipse cx="418.75" cy="1505.7188" fill="#000000" rx="2.5" ry="2.5" style="stroke:#000000;stroke-width:0.0;"/><text fill="#000000" font-family="sans-serif" font-size="14" lengthAdjust="spacing" textLength="295" x="425.25" y="1509.917">Green lines represent embedded/contains</text><ellipse cx="418.75" cy="1522.0156" fill="#000000" rx="2.5" ry="2.5" style="stroke:#000000;stroke-width:0.0;"/><text fill="#000000" font-family="sans-serif" font-size="14" lengthAdjust="spacing" textLength="263" x="425.25" y="1526.2139">Blue lines represent linked references</text><ellipse cx="418.75" cy="1538.3125" fill="#000000" rx="2.5" ry="2.5" style="stroke:#000000;stroke-width:0.0;"/><text fill="#000000" font-family="sans-serif" font-size="14" lengthAdjust="spacing" textLength="46" x="425.25" y="1542.5107">Text in</text><text fill="#000000" font-family="sans-serif" font-size="14" font-style="italic" lengthAdjust="spacing" textLength="37" x="475.25" y="1542.5107">italics</text><text fill="#000000" font-family="sans-serif" font-size="14" lengthAdjust="spacing" textLength="175" x="516.25" y="1542.5107">means optional elements</text><!--SRC=[fLJ9Rjim43sBNp583W4A948lFQY1WInjaKDReF4FqE9O8a9H0ad5TOFyUuVKGibMunOrO42SvSsRzGA-VLz_oW2rasuFqWBNm9Na5hQrWLnnQzcrTNk5AnPUzv8NXbVmmg1JXo__km3kd96Rrg674L2XAsjX1_NdMhkxMX7iHhKuI6zv_bIOkjMYq-rHgNh7HimkXkRLu54Y5sZ6g00Uzr7-GdZ_OPHDWZtBMg6RM_jyO5ChqOjVcV-_ikkqJvKb2WlKWYN9ExXH2WmgxcIjRIaRoiuWMAcBLd43hLP856jNejb9Ive6SxcLs7b_COWQbDHK5OEDGKl51gmsA0IAD2S-N6eRR6-fC4Ucz7v2GO8j6jGvTgPh_Eb0QaXJwQXXkKrJAZZNHAJnHBa2L5WH0DbJ9dq-BBc0KWe4Oaj4QpSAkDuJguQcm9MKchswkc99qEJIv0hxHsTIUVx61ZZ-N4i1ZQat5C_2JhgIm0f5d7DJxsYI47qO-oHrm_ti-0pTla6e3Kq8y_p2-DrOYuuwcoHtL1KIqfTdaNn5nmLtV7npBRTegP6r8MAlCmJZqmyeznEND1r0qdJgSMTG-4-gryjKVYkre3BCXG-w87Ffk-Bn7pGjIHNc8eQvxqCCxtNPLXlDfPeAXmGEk2Wkgu0yvc6ZpmyKF0-oY1Gy7cMXkMkxIip1HbN7LnmbFU5fMkkePsjPuQFZLJFdDYjvnv78FECWZq2nI8FEBaFDC-rxEQ14Ya5naFAVypzkrJHSr8_LxCGi475PDi_pyl9IhE1Wt5WadMM-tTviDHsESt_XFZfQqSn_GGOLtySDNW9OJIVnb3zBXl4CaNlg_T8iU4zlnvBdi1flkxBvtcNPV0924kFZlF1thuCAduGLRzq1qCB81BIpYgxIsL8ltuIF-CHnDbzJr7Wh_exh8jPGpV-0E4fo4SmFG0yunJjOaodWRA3-0J4SeJ0T_QeTwE9DYKPn1LaI4udR1FC5YMqyEUW1Vb8tsqKzxk4RamiZJBoXqqh5Mt1oSNkSquLuUvL-0m00]--></g></svg>