<?xml version="1.0" encoding="us-ascii" standalone="no"?><svg xmlns="http://www.w3.org/2000/svg" xmlns:xlink="http://www.w3.org/1999/xlink" contentStyleType="text/css" height="1402px" preserveAspectRatio="none" style="width:520px;height:1402px;background:#FFFFFF;" version="1.1" viewBox="0 0 520 1402" width="520px" zoomAndPan="magnify"><defs/><g><!--cluster c2pa--><g id="cluster_c2pa"><rect fill="#E6E6FA" height="1389" rx="2.5" ry="2.5" style="stroke:#800080;stroke-width:1.0;" width="506" x="7" y="7"/><line style="stroke:#800080;stroke-width:1.0;" x1="7" x2="513" y1="27.2969" y2="27.2969"/><text fill="#000000" font-family="Source Sans Pro" font-size="14" font-weight="bold" lengthAdjust="spacing" textLength="247" x="136.5" y="21.9951">Manifest Store - JUMBF (`c2pa`)</text></g><!--cluster ic2ma--><g id="cluster_ic2ma"><rect fill="#90EE90" height="187" rx="2.5" ry="2.5" style="stroke:#008000;stroke-width:1.0;" width="406" x="57" y="50"/><line style="stroke:#008000;stroke-width:1.0;" x1="57" x2="463" y1="70.2969" y2="70.2969"/><text fill="#000000" font-family="Source Sans Pro" font-size="14" font-weight="bold" lengthAdjust="spacing" textLength="300" x="115" y="64.9951">Ingredient Manifest (`urn:uuid:ABCD`)</text></g><!--cluster c2ma--><g id="cluster_c2ma"><rect fill="#90EE90" height="577" rx="2.5" ry="2.5" style="stroke:#008000;stroke-width:1.0;" width="458" x="31" y="261"/><line style="stroke:#008000;stroke-width:1.0;" x1="31" x2="489" y1="281.2969" y2="281.2969"/><text fill="#000000" font-family="Source Sans Pro" font-size="14" font-weight="bold" lengthAdjust="spacing" textLength="271" x="124.5" y="275.9951">Active Manifest (`urn:uuid:WXYZ`)</text></g><!--cluster c2cs--><g id="cluster_c2cs"><rect fill="#FFE4B5" height="87" rx="2.5" ry="2.5" style="stroke:#FF4500;stroke-width:1.0;" width="355" x="82.5" y="304"/><line style="stroke:#FF4500;stroke-width:1.0;" x1="82.5" x2="437.5" y1="324.2969" y2="324.2969"/><text fill="#000000" font-family="Source Sans Pro" font-size="14" font-weight="bold" lengthAdjust="spacing" textLength="339" x="90.5" y="318.9951">Claim Signature (`c2cs` : `c2pa.signature`)</text></g><!--cluster c2cl--><g id="cluster_c2cl"><rect fill="#FFB6C1" height="87" rx="2.5" ry="2.5" style="stroke:#FF0000;stroke-width:1.0;" width="354" x="82.5" y="415"/><line style="stroke:#FF0000;stroke-width:1.0;" x1="82.5" x2="436.5" y1="435.2969" y2="435.2969"/><text fill="#000000" font-family="Source Sans Pro" font-size="14" font-weight="bold" lengthAdjust="spacing" textLength="218" x="90.5" y="429.9951">Claim (`c2cl` : `c2pa.claim`)</text></g><!--cluster c2as--><g id="cluster_c2as"><rect fill="#ADD8E6" height="288" rx="2.5" ry="2.5" style="stroke:#0000FF;stroke-width:1.0;" width="410" x="55" y="526"/><line style="stroke:#0000FF;stroke-width:1.0;" x1="55" x2="465" y1="546.2969" y2="546.2969"/><text fill="#000000" font-family="Source Sans Pro" font-size="14" font-weight="bold" lengthAdjust="spacing" textLength="348" x="86" y="540.9951">Assertion Store (`c2as` : `c2pa.assertions`)</text></g><!--cluster stds--><g id="cluster_stds"><path d="M81.5,569 L116.5,569 A3.75,3.75 0 0 1 119,571.5 L126,591.2969 L438.5,591.2969 A2.5,2.5 0 0 1 441,593.7969 L441,787.5 A2.5,2.5 0 0 1 438.5,790 L81.5,790 A2.5,2.5 0 0 1 79,787.5 L79,571.5 A2.5,2.5 0 0 1 81.5,569 " fill="none" style="stroke:#000000;stroke-width:1.5;"/><line style="stroke:#000000;stroke-width:1.5;" x1="79" x2="126" y1="591.2969" y2="591.2969"/><text fill="#000000" font-family="Source Sans Pro" font-size="14" font-weight="bold" lengthAdjust="spacing" textLength="34" x="83" y="583.9951">stds</text></g><!--cluster schema-org--><g id="cluster_schema-org"><path d="M105.5,612 L200.5,612 A3.75,3.75 0 0 1 203,614.5 L210,634.2969 L414.5,634.2969 A2.5,2.5 0 0 1 417,636.7969 L417,763.5 A2.5,2.5 0 0 1 414.5,766 L105.5,766 A2.5,2.5 0 0 1 103,763.5 L103,614.5 A2.5,2.5 0 0 1 105.5,612 " fill="none" style="stroke:#000000;stroke-width:1.5;"/><line style="stroke:#000000;stroke-width:1.5;" x1="103" x2="210" y1="634.2969" y2="634.2969"/><text fill="#000000" font-family="Source Sans Pro" font-size="14" font-weight="bold" lengthAdjust="spacing" textLength="94" x="107" y="626.9951">schema-org</text></g><!--cluster CreativeWork --><g id="cluster_CreativeWork "><rect fill="#E0FFFF" height="87" rx="2.5" ry="2.5" style="stroke:#0000FF;stroke-width:1.0;" width="266" x="127" y="655"/><line style="stroke:#0000FF;stroke-width:1.0;" x1="127" x2="393" y1="675.2969" y2="675.2969"/><text fill="#000000" font-family="Source Sans Pro" font-size="14" font-weight="bold" lengthAdjust="spacing" textLength="245" x="135" y="669.9951">stds.schema-org.CreativeWork</text></g><!--cluster thumbnail--><g id="cluster_thumbnail"><path d="M86,862 L164,862 A3.75,3.75 0 0 1 166.5,864.5 L173.5,884.2969 L433,884.2969 A2.5,2.5 0 0 1 435.5,886.7969 L435.5,1080.5 A2.5,2.5 0 0 1 433,1083 L86,1083 A2.5,2.5 0 0 1 83.5,1080.5 L83.5,864.5 A2.5,2.5 0 0 1 86,862 " fill="none" style="stroke:#000000;stroke-width:1.5;"/><line style="stroke:#000000;stroke-width:1.5;" x1="83.5" x2="173.5" y1="884.2969" y2="884.2969"/><text fill="#000000" font-family="Source Sans Pro" font-size="14" font-weight="bold" lengthAdjust="spacing" textLength="77" x="87.5" y="876.9951">thumbnail</text></g><!--cluster claim--><g id="cluster_claim"><path d="M110,905 L151,905 A3.75,3.75 0 0 1 153.5,907.5 L160.5,927.2969 L409,927.2969 A2.5,2.5 0 0 1 411.5,929.7969 L411.5,1056.5 A2.5,2.5 0 0 1 409,1059 L110,1059 A2.5,2.5 0 0 1 107.5,1056.5 L107.5,907.5 A2.5,2.5 0 0 1 110,905 " fill="none" style="stroke:#000000;stroke-width:1.5;"/><line style="stroke:#000000;stroke-width:1.5;" x1="107.5" x2="160.5" y1="927.2969" y2="927.2969"/><text fill="#000000" font-family="Source Sans Pro" font-size="14" font-weight="bold" lengthAdjust="spacing" textLength="40" x="111.5" y="919.9951">claim</text></g><!--cluster png        --><g id="cluster_png        "><rect fill="#E0FFFF" height="87" rx="2.5" ry="2.5" style="stroke:#0000FF;stroke-width:1.0;" width="256" x="131.5" y="948"/><line style="stroke:#0000FF;stroke-width:1.0;" x1="131.5" x2="387.5" y1="968.2969" y2="968.2969"/><text fill="#000000" font-family="Source Sans Pro" font-size="14" font-weight="bold" lengthAdjust="spacing" textLength="200" x="139.5" y="962.9951">c2pa.thumbnail.claim.png</text></g><!--cluster actions                           --><g id="cluster_actions                           "><rect fill="#E0FFFF" height="87" rx="2.5" ry="2.5" style="stroke:#0000FF;stroke-width:1.0;" width="251" x="134.5" y="1107"/><line style="stroke:#0000FF;stroke-width:1.0;" x1="134.5" x2="385.5" y1="1127.2969" y2="1127.2969"/><text fill="#000000" font-family="Source Sans Pro" font-size="14" font-weight="bold" lengthAdjust="spacing" textLength="100" x="142.5" y="1121.9951">c2pa.actions</text></g><!--cluster hash--><g id="cluster_hash"><path d="M110,1218 L149,1218 A3.75,3.75 0 0 1 151.5,1220.5 L158.5,1240.2969 L409,1240.2969 A2.5,2.5 0 0 1 411.5,1242.7969 L411.5,1369.5 A2.5,2.5 0 0 1 409,1372 L110,1372 A2.5,2.5 0 0 1 107.5,1369.5 L107.5,1220.5 A2.5,2.5 0 0 1 110,1218 " fill="none" style="stroke:#000000;stroke-width:1.5;"/><line style="stroke:#000000;stroke-width:1.5;" x1="107.5" x2="158.5" y1="1240.2969" y2="1240.2969"/><text fill="#000000" font-family="Source Sans Pro" font-size="14" font-weight="bold" lengthAdjust="spacing" textLength="38" x="111.5" y="1232.9951">hash</text></g><!--cluster data                        --><g id="cluster_data                        "><rect fill="#E0FFFF" height="87" rx="2.5" ry="2.5" style="stroke:#0000FF;stroke-width:1.0;" width="256" x="131.5" y="1261"/><line style="stroke:#0000FF;stroke-width:1.0;" x1="131.5" x2="387.5" y1="1281.2969" y2="1281.2969"/><text fill="#000000" font-family="Source Sans Pro" font-size="14" font-weight="bold" lengthAdjust="spacing" textLength="120" x="139.5" y="1275.9951">c2pa.hash.data</text></g><!--entity ic2cs--><g id="elem_ic2cs"><rect fill="#FFE4B5" height="22.2969" rx="2.5" ry="2.5" style="stroke:#FF4500;stroke-width:0.5;" width="127" x="196" y="85"/><text fill="#000000" font-family="Source Sans Pro" font-size="14" lengthAdjust="spacing" textLength="107" x="206" y="100.9951">Claim Signature</text></g><!--entity ic2cl--><g id="elem_ic2cl"><rect fill="#FFB6C1" height="22.2969" rx="2.5" ry="2.5" style="stroke:#FF0000;stroke-width:0.5;" width="121" x="199" y="142"/><text fill="#000000" font-family="Source Sans Pro" font-size="14" lengthAdjust="spacing" textLength="37" x="241" y="157.9951">Claim</text></g><!--entity ic2as--><g id="elem_ic2as"><rect fill="#ADD8E6" height="22.2969" rx="2.5" ry="2.5" style="stroke:#0000FF;stroke-width:0.5;" width="126" x="196.5" y="199"/><text fill="#000000" font-family="Source Sans Pro" font-size="14" lengthAdjust="spacing" textLength="106" x="206.5" y="214.9951">Assertion Store</text></g><!--entity CS--><g id="elem_CS"><rect fill="#F1F1F1" height="36.2969" rx="2.5" ry="2.5" style="stroke:#181818;stroke-width:0.5;" width="190.3333" x="164.5" y="339"/><path d="M181.9167,352.4635 C180.3067,352.4635 179,353.7702 179,355.3802 C179,355.5669 179,355.7535 179.035,355.9285 L175.5,359.4635 L175.5,361.7969 L179,361.7969 L179,359.4635 L181.3333,359.4635 L181.3333,358.2969 L181.3683,358.2619 C181.5433,358.2969 181.73,358.2969 181.9167,358.2969 C183.5267,358.2969 184.8333,356.9902 184.8333,355.3802 C184.8333,353.7702 183.5267,352.4635 181.9167,352.4635 M182.5,353.6302 C183.1417,353.6302 183.6667,354.1552 183.6667,354.7969 C183.6667,355.4385 183.1417,355.9635 182.5,355.9635 C181.8583,355.9635 181.3333,355.4385 181.3333,354.7969 C181.3333,354.1552 181.8583,353.6302 182.5,353.6302 " fill="#000000" style="stroke:;stroke-width:0.0;stroke-dasharray:;"/><text fill="#000000" font-family="Source Sans Pro" font-size="14" lengthAdjust="spacing" textLength="155" x="189.8333" y="361.9951">COSE Digital Signature</text></g><!--entity C--><g id="elem_C"><rect fill="#F1F1F1" height="36.2969" rx="2.5" ry="2.5" style="stroke:#181818;stroke-width:0.5;" width="76.3333" x="221.5" y="450"/><path d="M238.3333,463.4635 L234.8333,470.4635 L236,470.4635 L239.5,463.4635 L238.3333,463.4635 M233.6667,464.6302 L232.5,466.9635 L233.6667,469.2969 L234.8333,469.2969 L233.6667,466.9635 L234.8333,464.6302 L233.6667,464.6302 M239.5,464.6302 L240.6667,466.9635 L239.5,469.2969 L240.6667,469.2969 L241.8333,466.9635 L240.6667,464.6302 L239.5,464.6302 " fill="#000000" style="stroke:;stroke-width:0.0;stroke-dasharray:;"/><text fill="#000000" font-family="Source Sans Pro" font-size="14" lengthAdjust="spacing" textLength="41" x="246.8333" y="472.9951">CBOR</text></g><!--entity A1--><g id="elem_A1"><rect fill="#F1F1F1" height="36.2969" rx="2.5" ry="2.5" style="stroke:#181818;stroke-width:0.5;" width="91.3333" x="214" y="690"/><path d="M230.8333,703.4635 L227.3333,710.4635 L228.5,710.4635 L232,703.4635 L230.8333,703.4635 M226.1667,704.6302 L225,706.9635 L226.1667,709.2969 L227.3333,709.2969 L226.1667,706.9635 L227.3333,704.6302 L226.1667,704.6302 M232,704.6302 L233.1667,706.9635 L232,709.2969 L233.1667,709.2969 L234.3333,706.9635 L233.1667,704.6302 L232,704.6302 " fill="#000000" style="stroke:;stroke-width:0.0;stroke-dasharray:;"/><text fill="#000000" font-family="Source Sans Pro" font-size="14" lengthAdjust="spacing" textLength="56" x="239.3333" y="712.9951">JSON-LD</text></g><!--entity A2--><g id="elem_A2"><rect fill="#F1F1F1" height="36.2969" rx="2.5" ry="2.5" style="stroke:#181818;stroke-width:0.5;" width="138.3333" x="190.5" y="983"/><path d="M201.5,996.4635 L201.5,1005.7969 L210.8333,1005.7969 L210.8333,996.4635 L201.5,996.4635 M202.6667,997.6302 L209.6667,997.6302 L209.6667,1001.1302 L208.5,999.9635 L207.3333,1001.1302 L209.6667,1003.4635 L209.6667,1004.6302 L208.5,1004.6302 L203.8333,999.9635 L202.6667,1001.1302 L202.6667,997.6302 " fill="#000000" style="stroke:;stroke-width:0.0;stroke-dasharray:;"/><text fill="#000000" font-family="Source Sans Pro" font-size="14" lengthAdjust="spacing" textLength="103" x="215.8333" y="1005.9951">Embedded File</text></g><!--entity A3--><g id="elem_A3"><rect fill="#F1F1F1" height="36.2969" rx="2.5" ry="2.5" style="stroke:#181818;stroke-width:0.5;" width="76.3333" x="221.5" y="1142"/><path d="M238.3333,1155.4635 L234.8333,1162.4635 L236,1162.4635 L239.5,1155.4635 L238.3333,1155.4635 M233.6667,1156.6302 L232.5,1158.9635 L233.6667,1161.2969 L234.8333,1161.2969 L233.6667,1158.9635 L234.8333,1156.6302 L233.6667,1156.6302 M239.5,1156.6302 L240.6667,1158.9635 L239.5,1161.2969 L240.6667,1161.2969 L241.8333,1158.9635 L240.6667,1156.6302 L239.5,1156.6302 " fill="#000000" style="stroke:;stroke-width:0.0;stroke-dasharray:;"/><text fill="#000000" font-family="Source Sans Pro" font-size="14" lengthAdjust="spacing" textLength="41" x="246.8333" y="1164.9951">CBOR</text></g><!--entity A4--><g id="elem_A4"><rect fill="#F1F1F1" height="36.2969" rx="2.5" ry="2.5" style="stroke:#181818;stroke-width:0.5;" width="76.3333" x="221.5" y="1296"/><path d="M238.3333,1309.4635 L234.8333,1316.4635 L236,1316.4635 L239.5,1309.4635 L238.3333,1309.4635 M233.6667,1310.6302 L232.5,1312.9635 L233.6667,1315.2969 L234.8333,1315.2969 L233.6667,1312.9635 L234.8333,1310.6302 L233.6667,1310.6302 M239.5,1310.6302 L240.6667,1312.9635 L239.5,1315.2969 L240.6667,1315.2969 L241.8333,1312.9635 L240.6667,1310.6302 L239.5,1310.6302 " fill="#000000" style="stroke:;stroke-width:0.0;stroke-dasharray:;"/><text fill="#000000" font-family="Source Sans Pro" font-size="14" lengthAdjust="spacing" textLength="41" x="246.8333" y="1318.9951">CBOR</text></g><!--SRC=[ZP7BRi8m54JNoLVSi04MxO8bGaZXqIfL0Oa4zR4Xnd6ZMzbEvGTjLV7l3J696XMrU65PzipHU2u0G1S8vyMx1e4VA7FO4uM5rL3iNXar6b020Ls-S0OPabmHuPSsvzewar_T12Wfjna3GII-C6sssdpoylaQhU2-xtLXvW11fQT4PK07RmI8XixYP8BO58h15Tnj5fCRwAL7HThlm6XqF8t7y5Mv6mBIWN08Q5OaSyKoPD90m-sbLicXjPWDmybqblPhiKEBDleddkeAF-K41SIOIsAiOiv6zI_RuJo4jp8wM2i1vHUYYCiJQisKmKAwoXo4_9NduBUhQveBgS4zEzlLm-FJSrt_gIFFy-fPQxjhnbsDEPZUXz4YZcwNOR9Pp_qBnFzemZYUhvDejOoJLGbi_yhjtm00]--></g></svg>