<?xml version="1.0" encoding="us-ascii" standalone="no"?><svg xmlns="http://www.w3.org/2000/svg" xmlns:xlink="http://www.w3.org/1999/xlink" contentStyleType="text/css" height="1369px" preserveAspectRatio="none" style="width:520px;height:1369px;background:#FFFFFF;" version="1.1" viewBox="0 0 520 1369" width="520px" zoomAndPan="magnify"><defs/><g><!--cluster c2pa--><g id="cluster_c2pa"><rect fill="#E6E6FA" height="1356" rx="2.5" ry="2.5" style="stroke:#800080;stroke-width:1.0;" width="506" x="7" y="7"/><line style="stroke:#800080;stroke-width:1.0;" x1="7" x2="513" y1="27.2969" y2="27.2969"/><text fill="#000000" font-family="Source Sans Pro" font-size="14" font-weight="bold" lengthAdjust="spacing" textLength="247" x="136.5" y="21.9951">Manifest Store - JUMBF (`c2pa`)</text></g><!--cluster c2ma--><g id="cluster_c2ma"><rect fill="#90EE90" height="755" rx="2.5" ry="2.5" style="stroke:#008000;stroke-width:1.0;" width="458" x="31" y="50"/><line style="stroke:#008000;stroke-width:1.0;" x1="31" x2="489" y1="70.2969" y2="70.2969"/><text fill="#000000" font-family="Source Sans Pro" font-size="14" font-weight="bold" lengthAdjust="spacing" textLength="237" x="141.5" y="64.9951">Manifest (`c2ma` : `urn:uuid`)</text></g><!--cluster c2cs--><g id="cluster_c2cs"><rect fill="#FFE4B5" height="87" rx="2.5" ry="2.5" style="stroke:#FF4500;stroke-width:1.0;" width="355" x="82.5" y="93"/><line style="stroke:#FF4500;stroke-width:1.0;" x1="82.5" x2="437.5" y1="113.2969" y2="113.2969"/><text fill="#000000" font-family="Source Sans Pro" font-size="14" font-weight="bold" lengthAdjust="spacing" textLength="339" x="90.5" y="107.9951">Claim Signature (`c2cs` : `c2pa.signature`)</text></g><!--cluster c2cl--><g id="cluster_c2cl"><rect fill="#FFB6C1" height="87" rx="2.5" ry="2.5" style="stroke:#FF0000;stroke-width:1.0;" width="354" x="82.5" y="204"/><line style="stroke:#FF0000;stroke-width:1.0;" x1="82.5" x2="436.5" y1="224.2969" y2="224.2969"/><text fill="#000000" font-family="Source Sans Pro" font-size="14" font-weight="bold" lengthAdjust="spacing" textLength="218" x="90.5" y="218.9951">Claim (`c2cl` : `c2pa.claim`)</text></g><!--cluster c2as--><g id="cluster_c2as"><rect fill="#ADD8E6" height="288" rx="2.5" ry="2.5" style="stroke:#0000FF;stroke-width:1.0;" width="410" x="55" y="315"/><line style="stroke:#0000FF;stroke-width:1.0;" x1="55" x2="465" y1="335.2969" y2="335.2969"/><text fill="#000000" font-family="Source Sans Pro" font-size="14" font-weight="bold" lengthAdjust="spacing" textLength="348" x="86" y="329.9951">Assertion Store (`c2as` : `c2pa.assertions`)</text></g><!--cluster stds--><g id="cluster_stds"><path d="M81.5,358 L116.5,358 A3.75,3.75 0 0 1 119,360.5 L126,380.2969 L438.5,380.2969 A2.5,2.5 0 0 1 441,382.7969 L441,576.5 A2.5,2.5 0 0 1 438.5,579 L81.5,579 A2.5,2.5 0 0 1 79,576.5 L79,360.5 A2.5,2.5 0 0 1 81.5,358 " fill="none" style="stroke:#000000;stroke-width:1.5;"/><line style="stroke:#000000;stroke-width:1.5;" x1="79" x2="126" y1="380.2969" y2="380.2969"/><text fill="#000000" font-family="Source Sans Pro" font-size="14" font-weight="bold" lengthAdjust="spacing" textLength="34" x="83" y="372.9951">stds</text></g><!--cluster schema-org--><g id="cluster_schema-org"><path d="M105.5,401 L200.5,401 A3.75,3.75 0 0 1 203,403.5 L210,423.2969 L414.5,423.2969 A2.5,2.5 0 0 1 417,425.7969 L417,552.5 A2.5,2.5 0 0 1 414.5,555 L105.5,555 A2.5,2.5 0 0 1 103,552.5 L103,403.5 A2.5,2.5 0 0 1 105.5,401 " fill="none" style="stroke:#000000;stroke-width:1.5;"/><line style="stroke:#000000;stroke-width:1.5;" x1="103" x2="210" y1="423.2969" y2="423.2969"/><text fill="#000000" font-family="Source Sans Pro" font-size="14" font-weight="bold" lengthAdjust="spacing" textLength="94" x="107" y="415.9951">schema-org</text></g><!--cluster CreativeWork --><g id="cluster_CreativeWork "><rect fill="#E0FFFF" height="87" rx="2.5" ry="2.5" style="stroke:#0000FF;stroke-width:1.0;" width="266" x="127" y="444"/><line style="stroke:#0000FF;stroke-width:1.0;" x1="127" x2="393" y1="464.2969" y2="464.2969"/><text fill="#000000" font-family="Source Sans Pro" font-size="14" font-weight="bold" lengthAdjust="spacing" textLength="245" x="135" y="458.9951">stds.schema-org.CreativeWork</text></g><!--cluster c2vc--><g id="cluster_c2vc"><rect fill="#FFFACD" height="154" rx="2.5" ry="2.5" style="stroke:#FFD700;stroke-width:1.0;" width="374" x="73" y="627"/><line style="stroke:#FFD700;stroke-width:1.0;" x1="73" x2="447" y1="647.2969" y2="647.2969"/><text fill="#000000" font-family="Source Sans Pro" font-size="14" font-weight="bold" lengthAdjust="spacing" textLength="358" x="81" y="641.9951">Credential Store (`c2vc` : `c2pa.credentials`)</text></g><!--cluster did:example:c276e12ec21e2ebc6f1--><g id="cluster_did:example:c276e12ec21e2ebc6f1"><rect fill="#FFF0F5" height="87" rx="2.5" ry="2.5" style="stroke:#9400D3;stroke-width:1.0;" width="301" x="109" y="670"/><line style="stroke:#9400D3;stroke-width:1.0;" x1="109" x2="410" y1="690.2969" y2="690.2969"/><text fill="#000000" font-family="Source Sans Pro" font-size="14" font-weight="bold" lengthAdjust="spacing" textLength="285" x="117" y="684.9951">did:example:c276e12ec21e2ebc6f1</text></g><!--cluster thumbnail--><g id="cluster_thumbnail"><path d="M86,829 L164,829 A3.75,3.75 0 0 1 166.5,831.5 L173.5,851.2969 L433,851.2969 A2.5,2.5 0 0 1 435.5,853.7969 L435.5,1047.5 A2.5,2.5 0 0 1 433,1050 L86,1050 A2.5,2.5 0 0 1 83.5,1047.5 L83.5,831.5 A2.5,2.5 0 0 1 86,829 " fill="none" style="stroke:#000000;stroke-width:1.5;"/><line style="stroke:#000000;stroke-width:1.5;" x1="83.5" x2="173.5" y1="851.2969" y2="851.2969"/><text fill="#000000" font-family="Source Sans Pro" font-size="14" font-weight="bold" lengthAdjust="spacing" textLength="77" x="87.5" y="843.9951">thumbnail</text></g><!--cluster claim--><g id="cluster_claim"><path d="M110,872 L151,872 A3.75,3.75 0 0 1 153.5,874.5 L160.5,894.2969 L409,894.2969 A2.5,2.5 0 0 1 411.5,896.7969 L411.5,1023.5 A2.5,2.5 0 0 1 409,1026 L110,1026 A2.5,2.5 0 0 1 107.5,1023.5 L107.5,874.5 A2.5,2.5 0 0 1 110,872 " fill="none" style="stroke:#000000;stroke-width:1.5;"/><line style="stroke:#000000;stroke-width:1.5;" x1="107.5" x2="160.5" y1="894.2969" y2="894.2969"/><text fill="#000000" font-family="Source Sans Pro" font-size="14" font-weight="bold" lengthAdjust="spacing" textLength="40" x="111.5" y="886.9951">claim</text></g><!--cluster png        --><g id="cluster_png        "><rect fill="#E0FFFF" height="87" rx="2.5" ry="2.5" style="stroke:#0000FF;stroke-width:1.0;" width="256" x="131.5" y="915"/><line style="stroke:#0000FF;stroke-width:1.0;" x1="131.5" x2="387.5" y1="935.2969" y2="935.2969"/><text fill="#000000" font-family="Source Sans Pro" font-size="14" font-weight="bold" lengthAdjust="spacing" textLength="200" x="139.5" y="929.9951">c2pa.thumbnail.claim.png</text></g><!--cluster actions                           --><g id="cluster_actions                           "><rect fill="#E0FFFF" height="87" rx="2.5" ry="2.5" style="stroke:#0000FF;stroke-width:1.0;" width="251" x="134.5" y="1074"/><line style="stroke:#0000FF;stroke-width:1.0;" x1="134.5" x2="385.5" y1="1094.2969" y2="1094.2969"/><text fill="#000000" font-family="Source Sans Pro" font-size="14" font-weight="bold" lengthAdjust="spacing" textLength="100" x="142.5" y="1088.9951">c2pa.actions</text></g><!--cluster hash--><g id="cluster_hash"><path d="M110,1185 L149,1185 A3.75,3.75 0 0 1 151.5,1187.5 L158.5,1207.2969 L409,1207.2969 A2.5,2.5 0 0 1 411.5,1209.7969 L411.5,1336.5 A2.5,2.5 0 0 1 409,1339 L110,1339 A2.5,2.5 0 0 1 107.5,1336.5 L107.5,1187.5 A2.5,2.5 0 0 1 110,1185 " fill="none" style="stroke:#000000;stroke-width:1.5;"/><line style="stroke:#000000;stroke-width:1.5;" x1="107.5" x2="158.5" y1="1207.2969" y2="1207.2969"/><text fill="#000000" font-family="Source Sans Pro" font-size="14" font-weight="bold" lengthAdjust="spacing" textLength="38" x="111.5" y="1199.9951">hash</text></g><!--cluster data                        --><g id="cluster_data                        "><rect fill="#E0FFFF" height="87" rx="2.5" ry="2.5" style="stroke:#0000FF;stroke-width:1.0;" width="256" x="131.5" y="1228"/><line style="stroke:#0000FF;stroke-width:1.0;" x1="131.5" x2="387.5" y1="1248.2969" y2="1248.2969"/><text fill="#000000" font-family="Source Sans Pro" font-size="14" font-weight="bold" lengthAdjust="spacing" textLength="120" x="139.5" y="1242.9951">c2pa.hash.data</text></g><!--entity CS--><g id="elem_CS"><rect fill="#F1F1F1" height="36.2969" rx="2.5" ry="2.5" style="stroke:#181818;stroke-width:0.5;" width="190.3333" x="164.5" y="128"/><path d="M181.9167,141.4635 C180.3067,141.4635 179,142.7702 179,144.3802 C179,144.5669 179,144.7535 179.035,144.9285 L175.5,148.4635 L175.5,150.7969 L179,150.7969 L179,148.4635 L181.3333,148.4635 L181.3333,147.2969 L181.3683,147.2619 C181.5433,147.2969 181.73,147.2969 181.9167,147.2969 C183.5267,147.2969 184.8333,145.9902 184.8333,144.3802 C184.8333,142.7702 183.5267,141.4635 181.9167,141.4635 M182.5,142.6302 C183.1417,142.6302 183.6667,143.1552 183.6667,143.7969 C183.6667,144.4385 183.1417,144.9635 182.5,144.9635 C181.8583,144.9635 181.3333,144.4385 181.3333,143.7969 C181.3333,143.1552 181.8583,142.6302 182.5,142.6302 " fill="#000000" style="stroke:;stroke-width:0.0;stroke-dasharray:;"/><text fill="#000000" font-family="Source Sans Pro" font-size="14" lengthAdjust="spacing" textLength="155" x="189.8333" y="150.9951">COSE Digital Signature</text></g><!--entity C--><g id="elem_C"><rect fill="#F1F1F1" height="36.2969" rx="2.5" ry="2.5" style="stroke:#181818;stroke-width:0.5;" width="76.3333" x="221.5" y="239"/><path d="M238.3333,252.4635 L234.8333,259.4635 L236,259.4635 L239.5,252.4635 L238.3333,252.4635 M233.6667,253.6302 L232.5,255.9635 L233.6667,258.2969 L234.8333,258.2969 L233.6667,255.9635 L234.8333,253.6302 L233.6667,253.6302 M239.5,253.6302 L240.6667,255.9635 L239.5,258.2969 L240.6667,258.2969 L241.8333,255.9635 L240.6667,253.6302 L239.5,253.6302 " fill="#000000" style="stroke:;stroke-width:0.0;stroke-dasharray:;"/><text fill="#000000" font-family="Source Sans Pro" font-size="14" lengthAdjust="spacing" textLength="41" x="246.8333" y="261.9951">CBOR</text></g><!--entity A1--><g id="elem_A1"><rect fill="#F1F1F1" height="36.2969" rx="2.5" ry="2.5" style="stroke:#181818;stroke-width:0.5;" width="91.3333" x="214" y="479"/><path d="M230.8333,492.4635 L227.3333,499.4635 L228.5,499.4635 L232,492.4635 L230.8333,492.4635 M226.1667,493.6302 L225,495.9635 L226.1667,498.2969 L227.3333,498.2969 L226.1667,495.9635 L227.3333,493.6302 L226.1667,493.6302 M232,493.6302 L233.1667,495.9635 L232,498.2969 L233.1667,498.2969 L234.3333,495.9635 L233.1667,493.6302 L232,493.6302 " fill="#000000" style="stroke:;stroke-width:0.0;stroke-dasharray:;"/><text fill="#000000" font-family="Source Sans Pro" font-size="14" lengthAdjust="spacing" textLength="56" x="239.3333" y="501.9951">JSON-LD</text></g><!--entity VC--><g id="elem_VC"><rect fill="#F1F1F1" height="36.2969" rx="2.5" ry="2.5" style="stroke:#181818;stroke-width:0.5;" width="91.3333" x="214" y="705"/><path d="M230.8333,718.4635 L227.3333,725.4635 L228.5,725.4635 L232,718.4635 L230.8333,718.4635 M226.1667,719.6302 L225,721.9635 L226.1667,724.2969 L227.3333,724.2969 L226.1667,721.9635 L227.3333,719.6302 L226.1667,719.6302 M232,719.6302 L233.1667,721.9635 L232,724.2969 L233.1667,724.2969 L234.3333,721.9635 L233.1667,719.6302 L232,719.6302 " fill="#000000" style="stroke:;stroke-width:0.0;stroke-dasharray:;"/><text fill="#000000" font-family="Source Sans Pro" font-size="14" lengthAdjust="spacing" textLength="56" x="239.3333" y="727.9951">JSON-LD</text></g><!--entity A2--><g id="elem_A2"><rect fill="#F1F1F1" height="36.2969" rx="2.5" ry="2.5" style="stroke:#181818;stroke-width:0.5;" width="138.3333" x="190.5" y="950"/><path d="M201.5,963.4635 L201.5,972.7969 L210.8333,972.7969 L210.8333,963.4635 L201.5,963.4635 M202.6667,964.6302 L209.6667,964.6302 L209.6667,968.1302 L208.5,966.9635 L207.3333,968.1302 L209.6667,970.4635 L209.6667,971.6302 L208.5,971.6302 L203.8333,966.9635 L202.6667,968.1302 L202.6667,964.6302 " fill="#000000" style="stroke:;stroke-width:0.0;stroke-dasharray:;"/><text fill="#000000" font-family="Source Sans Pro" font-size="14" lengthAdjust="spacing" textLength="103" x="215.8333" y="972.9951">Embedded File</text></g><!--entity A3--><g id="elem_A3"><rect fill="#F1F1F1" height="36.2969" rx="2.5" ry="2.5" style="stroke:#181818;stroke-width:0.5;" width="76.3333" x="221.5" y="1109"/><path d="M238.3333,1122.4635 L234.8333,1129.4635 L236,1129.4635 L239.5,1122.4635 L238.3333,1122.4635 M233.6667,1123.6302 L232.5,1125.9635 L233.6667,1128.2969 L234.8333,1128.2969 L233.6667,1125.9635 L234.8333,1123.6302 L233.6667,1123.6302 M239.5,1123.6302 L240.6667,1125.9635 L239.5,1128.2969 L240.6667,1128.2969 L241.8333,1125.9635 L240.6667,1123.6302 L239.5,1123.6302 " fill="#000000" style="stroke:;stroke-width:0.0;stroke-dasharray:;"/><text fill="#000000" font-family="Source Sans Pro" font-size="14" lengthAdjust="spacing" textLength="41" x="246.8333" y="1131.9951">CBOR</text></g><!--entity A4--><g id="elem_A4"><rect fill="#F1F1F1" height="36.2969" rx="2.5" ry="2.5" style="stroke:#181818;stroke-width:0.5;" width="76.3333" x="221.5" y="1263"/><path d="M238.3333,1276.4635 L234.8333,1283.4635 L236,1283.4635 L239.5,1276.4635 L238.3333,1276.4635 M233.6667,1277.6302 L232.5,1279.9635 L233.6667,1282.2969 L234.8333,1282.2969 L233.6667,1279.9635 L234.8333,1277.6302 L233.6667,1277.6302 M239.5,1277.6302 L240.6667,1279.9635 L239.5,1282.2969 L240.6667,1282.2969 L241.8333,1279.9635 L240.6667,1277.6302 L239.5,1277.6302 " fill="#000000" style="stroke:;stroke-width:0.0;stroke-dasharray:;"/><text fill="#000000" font-family="Source Sans Pro" font-size="14" lengthAdjust="spacing" textLength="41" x="246.8333" y="1285.9951">CBOR</text></g><!--SRC=[ZP9TQy8m58Qlsrznz69k5mhsma4HmQaRYXzWwsx6i34vIaRIIjDqZk5_NvEgqtsmdOkGZ_TvEMyI080Q426ILmMIxtYyWPoaFD4AajKBqam1Zu60Aau40kDaanBf5bX9BKl8jJiL7bEX6O8aCL-ZofOgUnF5SODhALpNgK6_DAXOFIKf0-fj2H05rSa1WY1BKeGwZ1QJktkuZemYkgb2ksrcdGwyM_hCGNvnC8ma4VWGwJJsjURiQ21B0yTnZjqglJerR1kjzCRTuIGOFaoxuM8-SFyX_aFJ3OB1F1pEfa4uCuPmLeS8ERKHUYaoZ3DEnE4QJ9ISsYWcVOEU1EeOAQSNTt9XN6MS-RWZSYlGfzvj2viUKg-97gveQzqq3h_mfjBY1n3xyeyzU38XYsfVqOHX1qR1R5eVzty4dx_jxWszTp-NvVW1]--></g></svg>