<?xml version="1.0" encoding="us-ascii" standalone="no"?><svg xmlns="http://www.w3.org/2000/svg" xmlns:xlink="http://www.w3.org/1999/xlink" contentStyleType="text/css" height="1067px" preserveAspectRatio="none" style="width:474px;height:1067px;background:#FFFFFF;" version="1.1" viewBox="0 0 474 1067" width="474px" zoomAndPan="magnify"><defs/><g><!--cluster c2pa--><g id="cluster_c2pa"><rect fill="#E6E6FA" height="1054" rx="2.5" ry="2.5" style="stroke:#800080;stroke-width:1.0;" width="460" x="7" y="7"/><line style="stroke:#800080;stroke-width:1.0;" x1="7" x2="467" y1="27.2969" y2="27.2969"/><text fill="#000000" font-family="Source Sans Pro" font-size="14" font-weight="bold" lengthAdjust="spacing" textLength="247" x="113.5" y="21.9951">Manifest Store - JUMBF (`c2pa`)</text></g><!--cluster ic2ma--><g id="cluster_ic2ma"><rect fill="#90EE90" height="187" rx="2.5" ry="2.5" style="stroke:#008000;stroke-width:1.0;" width="406" x="34" y="50"/><line style="stroke:#008000;stroke-width:1.0;" x1="34" x2="440" y1="70.2969" y2="70.2969"/><text fill="#000000" font-family="Source Sans Pro" font-size="14" font-weight="bold" lengthAdjust="spacing" textLength="300" x="92" y="64.9951">Ingredient Manifest (`urn:uuid:ABCD`)</text></g><!--cluster c2ma--><g id="cluster_c2ma"><rect fill="#90EE90" height="776" rx="2.5" ry="2.5" style="stroke:#008000;stroke-width:1.0;" width="412" x="31" y="261"/><line style="stroke:#008000;stroke-width:1.0;" x1="31" x2="443" y1="281.2969" y2="281.2969"/><text fill="#000000" font-family="Source Sans Pro" font-size="14" font-weight="bold" lengthAdjust="spacing" textLength="271" x="101.5" y="275.9951">Active Manifest (`urn:uuid:WXYZ`)</text></g><!--cluster c2cs--><g id="cluster_c2cs"><rect fill="#FFE4B5" height="87" rx="2.5" ry="2.5" style="stroke:#FF4500;stroke-width:1.0;" width="355" x="59.5" y="304"/><line style="stroke:#FF4500;stroke-width:1.0;" x1="59.5" x2="414.5" y1="324.2969" y2="324.2969"/><text fill="#000000" font-family="Source Sans Pro" font-size="14" font-weight="bold" lengthAdjust="spacing" textLength="339" x="67.5" y="318.9951">Claim Signature (`c2cs` : `c2pa.signature`)</text></g><!--cluster c2cl--><g id="cluster_c2cl"><rect fill="#FFB6C1" height="87" rx="2.5" ry="2.5" style="stroke:#FF0000;stroke-width:1.0;" width="354" x="59.5" y="415"/><line style="stroke:#FF0000;stroke-width:1.0;" x1="59.5" x2="413.5" y1="435.2969" y2="435.2969"/><text fill="#000000" font-family="Source Sans Pro" font-size="14" font-weight="bold" lengthAdjust="spacing" textLength="218" x="67.5" y="429.9951">Claim (`c2cl` : `c2pa.claim`)</text></g><!--cluster c2as--><g id="cluster_c2as"><rect fill="#ADD8E6" height="487" rx="2.5" ry="2.5" style="stroke:#0000FF;stroke-width:1.0;" width="364" x="55" y="526"/><line style="stroke:#0000FF;stroke-width:1.0;" x1="55" x2="419" y1="546.2969" y2="546.2969"/><text fill="#000000" font-family="Source Sans Pro" font-size="14" font-weight="bold" lengthAdjust="spacing" textLength="348" x="63" y="540.9951">Assertion Store (`c2as` : `c2pa.assertions`)</text></g><!--cluster stds.schema-org.CreativeWork --><g id="cluster_stds.schema-org.CreativeWork "><rect fill="#E0FFFF" height="87" rx="2.5" ry="2.5" style="stroke:#0000FF;stroke-width:1.0;" width="266" x="104" y="569"/><line style="stroke:#0000FF;stroke-width:1.0;" x1="104" x2="370" y1="589.2969" y2="589.2969"/><text fill="#000000" font-family="Source Sans Pro" font-size="14" font-weight="bold" lengthAdjust="spacing" textLength="245" x="112" y="583.9951">stds.schema-org.CreativeWork</text></g><!--cluster c2pa.thumbnail.claim.png        --><g id="cluster_c2pa.thumbnail.claim.png        "><rect fill="#E0FFFF" height="87" rx="2.5" ry="2.5" style="stroke:#0000FF;stroke-width:1.0;" width="256" x="108.5" y="680"/><line style="stroke:#0000FF;stroke-width:1.0;" x1="108.5" x2="364.5" y1="700.2969" y2="700.2969"/><text fill="#000000" font-family="Source Sans Pro" font-size="14" font-weight="bold" lengthAdjust="spacing" textLength="200" x="116.5" y="694.9951">c2pa.thumbnail.claim.png</text></g><!--cluster c2pa.actions                           --><g id="cluster_c2pa.actions                           "><rect fill="#E0FFFF" height="87" rx="2.5" ry="2.5" style="stroke:#0000FF;stroke-width:1.0;" width="251" x="111.5" y="791"/><line style="stroke:#0000FF;stroke-width:1.0;" x1="111.5" x2="362.5" y1="811.2969" y2="811.2969"/><text fill="#000000" font-family="Source Sans Pro" font-size="14" font-weight="bold" lengthAdjust="spacing" textLength="100" x="119.5" y="805.9951">c2pa.actions</text></g><!--cluster c2pa.hash.data                        --><g id="cluster_c2pa.hash.data                        "><rect fill="#E0FFFF" height="87" rx="2.5" ry="2.5" style="stroke:#0000FF;stroke-width:1.0;" width="256" x="108.5" y="902"/><line style="stroke:#0000FF;stroke-width:1.0;" x1="108.5" x2="364.5" y1="922.2969" y2="922.2969"/><text fill="#000000" font-family="Source Sans Pro" font-size="14" font-weight="bold" lengthAdjust="spacing" textLength="120" x="116.5" y="916.9951">c2pa.hash.data</text></g><!--entity ic2cs--><g id="elem_ic2cs"><rect fill="#FFE4B5" height="22.2969" rx="2.5" ry="2.5" style="stroke:#FF4500;stroke-width:0.5;" width="127" x="173" y="85"/><text fill="#000000" font-family="Source Sans Pro" font-size="14" lengthAdjust="spacing" textLength="107" x="183" y="100.9951">Claim Signature</text></g><!--entity ic2cl--><g id="elem_ic2cl"><rect fill="#FFB6C1" height="22.2969" rx="2.5" ry="2.5" style="stroke:#FF0000;stroke-width:0.5;" width="121" x="176" y="142"/><text fill="#000000" font-family="Source Sans Pro" font-size="14" lengthAdjust="spacing" textLength="37" x="218" y="157.9951">Claim</text></g><!--entity ic2as--><g id="elem_ic2as"><rect fill="#ADD8E6" height="22.2969" rx="2.5" ry="2.5" style="stroke:#0000FF;stroke-width:0.5;" width="126" x="173.5" y="199"/><text fill="#000000" font-family="Source Sans Pro" font-size="14" lengthAdjust="spacing" textLength="106" x="183.5" y="214.9951">Assertion Store</text></g><!--entity CS--><g id="elem_CS"><rect fill="#F1F1F1" height="36.2969" rx="2.5" ry="2.5" style="stroke:#181818;stroke-width:0.5;" width="190.3333" x="141.5" y="339"/><path d="M158.9167,352.4635 C157.3067,352.4635 156,353.7702 156,355.3802 C156,355.5669 156,355.7535 156.035,355.9285 L152.5,359.4635 L152.5,361.7969 L156,361.7969 L156,359.4635 L158.3333,359.4635 L158.3333,358.2969 L158.3683,358.2619 C158.5433,358.2969 158.73,358.2969 158.9167,358.2969 C160.5267,358.2969 161.8333,356.9902 161.8333,355.3802 C161.8333,353.7702 160.5267,352.4635 158.9167,352.4635 M159.5,353.6302 C160.1417,353.6302 160.6667,354.1552 160.6667,354.7969 C160.6667,355.4385 160.1417,355.9635 159.5,355.9635 C158.8583,355.9635 158.3333,355.4385 158.3333,354.7969 C158.3333,354.1552 158.8583,353.6302 159.5,353.6302 " fill="#000000" style="stroke:;stroke-width:0.0;stroke-dasharray:;"/><text fill="#000000" font-family="Source Sans Pro" font-size="14" lengthAdjust="spacing" textLength="155" x="166.8333" y="361.9951">COSE Digital Signature</text></g><!--entity C--><g id="elem_C"><rect fill="#F1F1F1" height="36.2969" rx="2.5" ry="2.5" style="stroke:#181818;stroke-width:0.5;" width="76.3333" x="198.5" y="450"/><path d="M215.3333,463.4635 L211.8333,470.4635 L213,470.4635 L216.5,463.4635 L215.3333,463.4635 M210.6667,464.6302 L209.5,466.9635 L210.6667,469.2969 L211.8333,469.2969 L210.6667,466.9635 L211.8333,464.6302 L210.6667,464.6302 M216.5,464.6302 L217.6667,466.9635 L216.5,469.2969 L217.6667,469.2969 L218.8333,466.9635 L217.6667,464.6302 L216.5,464.6302 " fill="#000000" style="stroke:;stroke-width:0.0;stroke-dasharray:;"/><text fill="#000000" font-family="Source Sans Pro" font-size="14" lengthAdjust="spacing" textLength="41" x="223.8333" y="472.9951">CBOR</text></g><!--entity A1--><g id="elem_A1"><rect fill="#F1F1F1" height="36.2969" rx="2.5" ry="2.5" style="stroke:#181818;stroke-width:0.5;" width="91.3333" x="191" y="604"/><path d="M207.8333,617.4635 L204.3333,624.4635 L205.5,624.4635 L209,617.4635 L207.8333,617.4635 M203.1667,618.6302 L202,620.9635 L203.1667,623.2969 L204.3333,623.2969 L203.1667,620.9635 L204.3333,618.6302 L203.1667,618.6302 M209,618.6302 L210.1667,620.9635 L209,623.2969 L210.1667,623.2969 L211.3333,620.9635 L210.1667,618.6302 L209,618.6302 " fill="#000000" style="stroke:;stroke-width:0.0;stroke-dasharray:;"/><text fill="#000000" font-family="Source Sans Pro" font-size="14" lengthAdjust="spacing" textLength="56" x="216.3333" y="626.9951">JSON-LD</text></g><!--entity A2--><g id="elem_A2"><rect fill="#F1F1F1" height="36.2969" rx="2.5" ry="2.5" style="stroke:#181818;stroke-width:0.5;" width="138.3333" x="167.5" y="715"/><path d="M178.5,728.4635 L178.5,737.7969 L187.8333,737.7969 L187.8333,728.4635 L178.5,728.4635 M179.6667,729.6302 L186.6667,729.6302 L186.6667,733.1302 L185.5,731.9635 L184.3333,733.1302 L186.6667,735.4635 L186.6667,736.6302 L185.5,736.6302 L180.8333,731.9635 L179.6667,733.1302 L179.6667,729.6302 " fill="#000000" style="stroke:;stroke-width:0.0;stroke-dasharray:;"/><text fill="#000000" font-family="Source Sans Pro" font-size="14" lengthAdjust="spacing" textLength="103" x="192.8333" y="737.9951">Embedded File</text></g><!--entity A3--><g id="elem_A3"><rect fill="#F1F1F1" height="36.2969" rx="2.5" ry="2.5" style="stroke:#181818;stroke-width:0.5;" width="76.3333" x="198.5" y="826"/><path d="M215.3333,839.4635 L211.8333,846.4635 L213,846.4635 L216.5,839.4635 L215.3333,839.4635 M210.6667,840.6302 L209.5,842.9635 L210.6667,845.2969 L211.8333,845.2969 L210.6667,842.9635 L211.8333,840.6302 L210.6667,840.6302 M216.5,840.6302 L217.6667,842.9635 L216.5,845.2969 L217.6667,845.2969 L218.8333,842.9635 L217.6667,840.6302 L216.5,840.6302 " fill="#000000" style="stroke:;stroke-width:0.0;stroke-dasharray:;"/><text fill="#000000" font-family="Source Sans Pro" font-size="14" lengthAdjust="spacing" textLength="41" x="223.8333" y="848.9951">CBOR</text></g><!--entity A4--><g id="elem_A4"><rect fill="#F1F1F1" height="36.2969" rx="2.5" ry="2.5" style="stroke:#181818;stroke-width:0.5;" width="76.3333" x="198.5" y="937"/><path d="M215.3333,950.4635 L211.8333,957.4635 L213,957.4635 L216.5,950.4635 L215.3333,950.4635 M210.6667,951.6302 L209.5,953.9635 L210.6667,956.2969 L211.8333,956.2969 L210.6667,953.9635 L211.8333,951.6302 L210.6667,951.6302 M216.5,951.6302 L217.6667,953.9635 L216.5,956.2969 L217.6667,956.2969 L218.8333,953.9635 L217.6667,951.6302 L216.5,951.6302 " fill="#000000" style="stroke:;stroke-width:0.0;stroke-dasharray:;"/><text fill="#000000" font-family="Source Sans Pro" font-size="14" lengthAdjust="spacing" textLength="41" x="223.8333" y="959.9951">CBOR</text></g><!--SRC=[ZP5BJy9058NNz5TSt5GNid1924bvQ3022SNusC1bEjHhPgPa7YWn_dU7ZZGs4gMBIQTppjSpvm80n81256y69BsJoc6BcWfde5YzScODa084uqy4XummroWZRmkkHJ15vPSOx0iPi4uhRr-l_PO3Ebj8jCGWruNRxF-msa7SYWDOeUIbsN1RRim66K_v1ZNQGeCg50_q9YacNCP1eg8rDtPXx4vuNekS557KY64GuZLBFKET0RlQ8A21i_6t2L9FvN09j_VZtZMSB_UAvSKPT3hxjsuNFaftHI1s9GC2gcUaSiqpuif2nJrV-cktdQEidVJwW-N5GHpGiex-YMUcnFS5aeIKSeM-GHvipFooVHw7Y5h60AibOE9458OyYJ5SMofKg2n0yAyydr6zkggvX5dQygDTFJm-FH_g_-weqMWSPctSgXftEUPc_ouPZTFHpIIPty-6qGdYVpH9cWvdyz5qaiwd7bY_LLY_0000]--></g></svg>