<?xml version="1.0" encoding="us-ascii" standalone="no"?><svg xmlns="http://www.w3.org/2000/svg" xmlns:xlink="http://www.w3.org/1999/xlink" contentStyleType="text/css" height="847px" preserveAspectRatio="none" style="width:579px;height:847px;background:#FFFFFF;" version="1.1" viewBox="0 0 579 847" width="579px" zoomAndPan="magnify"><defs/><g><!--cluster c2pa--><g id="cluster_c2pa"><rect fill="#E6E6FA" height="834" rx="2.5" ry="2.5" style="stroke:#800080;stroke-width:1.0;" width="565" x="7" y="7"/><line style="stroke:#800080;stroke-width:1.0;" x1="7" x2="572" y1="27.2969" y2="27.2969"/><text fill="#000000" font-family="Source Sans Pro" font-size="14" font-weight="bold" lengthAdjust="spacing" textLength="115" x="232" y="21.9951">Manifest Store</text></g><!--cluster c2ma--><g id="cluster_c2ma"><rect fill="#90EE90" height="767" rx="2.5" ry="2.5" style="stroke:#008000;stroke-width:1.0;" width="517" x="31" y="50"/><line style="stroke:#008000;stroke-width:1.0;" x1="31" x2="548" y1="70.2969" y2="70.2969"/><text fill="#000000" font-family="Source Sans Pro" font-size="14" font-weight="bold" lengthAdjust="spacing" textLength="67" x="256" y="64.9951">Manifest</text></g><!--cluster c2cs--><g id="cluster_c2cs"><rect fill="#FFE4B5" height="87" rx="2.5" ry="2.5" style="stroke:#FF4500;stroke-width:1.0;" width="469" x="55" y="93"/><line style="stroke:#FF4500;stroke-width:1.0;" x1="55" x2="524" y1="113.2969" y2="113.2969"/><text fill="#000000" font-family="Source Sans Pro" font-size="14" font-weight="bold" lengthAdjust="spacing" textLength="123" x="228" y="107.9951">Claim Signature</text></g><!--cluster c2cl--><g id="cluster_c2cl"><rect fill="#FFB6C1" height="105" rx="2.5" ry="2.5" style="stroke:#FF0000;stroke-width:1.0;" width="350" x="114" y="204"/><line style="stroke:#FF0000;stroke-width:1.0;" x1="114" x2="464" y1="224.2969" y2="224.2969"/><text fill="#000000" font-family="Source Sans Pro" font-size="14" font-weight="bold" lengthAdjust="spacing" textLength="42" x="250.5" y="218.9951">Claim</text></g><!--cluster c2as--><g id="cluster_c2as"><rect fill="#ADD8E6" height="460" rx="2.5" ry="2.5" style="stroke:#0000FF;stroke-width:1.0;" width="408" x="85.5" y="333"/><line style="stroke:#0000FF;stroke-width:1.0;" x1="85.5" x2="493.5" y1="353.2969" y2="353.2969"/><text fill="#000000" font-family="Source Sans Pro" font-size="14" font-weight="bold" lengthAdjust="spacing" textLength="124" x="227.5" y="347.9951">Assertion Store</text></g><!--cluster stds.exif--><g id="cluster_stds.exif"><rect fill="#E0FFFF" height="121" rx="2.5" ry="2.5" style="stroke:#0000FF;stroke-width:1.0;" width="293" x="142.5" y="376"/><line style="stroke:#0000FF;stroke-width:1.0;" x1="142.5" x2="435.5" y1="396.2969" y2="396.2969"/><text fill="#000000" font-family="Source Sans Pro" font-size="14" font-weight="bold" lengthAdjust="spacing" textLength="68" x="255" y="390.9951">stds.exif</text></g><!--cluster               c2pa.thumbnail.claim.jpg                --><g id="cluster_              c2pa.thumbnail.claim.jpg                "><rect fill="#E0FFFF" height="87" rx="2.5" ry="2.5" style="stroke:#0000FF;stroke-width:1.0;" width="360" x="109.5" y="521"/><line style="stroke:#0000FF;stroke-width:1.0;" x1="109.5" x2="469.5" y1="541.2969" y2="541.2969"/><text fill="#000000" font-family="Source Sans Pro" font-size="14" font-weight="bold" lengthAdjust="spacing" textLength="194" x="187.5" y="535.9951">c2pa.thumbnail.claim.jpg</text></g><!--cluster               c2pa.hash.data                       --><g id="cluster_              c2pa.hash.data                       "><rect fill="#E0FFFF" height="137" rx="2.5" ry="2.5" style="stroke:#0000FF;stroke-width:1.0;" width="321" x="129" y="632"/><line style="stroke:#0000FF;stroke-width:1.0;" x1="129" x2="450" y1="652.2969" y2="652.2969"/><text fill="#000000" font-family="Source Sans Pro" font-size="14" font-weight="bold" lengthAdjust="spacing" textLength="120" x="207" y="646.9951">c2pa.hash.data</text></g><!--entity CS--><g id="elem_CS"><rect fill="#F1F1F1" height="36.2969" rx="2.5" ry="2.5" style="stroke:#181818;stroke-width:0.5;" width="190.3333" x="194" y="128"/><path d="M211.4167,141.4635 C209.8067,141.4635 208.5,142.7702 208.5,144.3802 C208.5,144.5669 208.5,144.7535 208.535,144.9285 L205,148.4635 L205,150.7969 L208.5,150.7969 L208.5,148.4635 L210.8333,148.4635 L210.8333,147.2969 L210.8683,147.2619 C211.0433,147.2969 211.23,147.2969 211.4167,147.2969 C213.0267,147.2969 214.3333,145.9902 214.3333,144.3802 C214.3333,142.7702 213.0267,141.4635 211.4167,141.4635 M212,142.6302 C212.6417,142.6302 213.1667,143.1552 213.1667,143.7969 C213.1667,144.4385 212.6417,144.9635 212,144.9635 C211.3583,144.9635 210.8333,144.4385 210.8333,143.7969 C210.8333,143.1552 211.3583,142.6302 212,142.6302 " fill="#000000" style="stroke:;stroke-width:0.0;stroke-dasharray:;"/><text fill="#000000" font-family="Source Sans Pro" font-size="14" lengthAdjust="spacing" textLength="155" x="219.3333" y="150.9951">COSE Digital Signature</text></g><!--entity C--><g id="elem_C"><rect fill="#F1F1F1" height="52.5938" rx="2.5" ry="2.5" style="stroke:#181818;stroke-width:0.5;" width="318" x="130" y="239.5"/><path d="M146.8333,252.9635 L143.3333,259.9635 L144.5,259.9635 L148,252.9635 L146.8333,252.9635 M142.1667,254.1302 L141,256.4635 L142.1667,258.7969 L143.3333,258.7969 L142.1667,256.4635 L143.3333,254.1302 L142.1667,254.1302 M148,254.1302 L149.1667,256.4635 L148,258.7969 L149.1667,258.7969 L150.3333,256.4635 L149.1667,254.1302 L148,254.1302 " fill="#000000" style="stroke:;stroke-width:0.0;stroke-dasharray:;"/><text fill="#000000" font-family="Source Sans Pro" font-size="14" lengthAdjust="spacing" textLength="219" x="155.3333" y="262.4951">CBOR structure with references</text><text fill="#000000" font-family="Source Sans Pro" font-size="14" lengthAdjust="spacing" textLength="286" x="140" y="278.792">to the Assertions and the Claim Signature</text></g><!--entity A1--><g id="elem_A1"><rect fill="#F1F1F1" height="68.8906" rx="2.5" ry="2.5" style="stroke:#181818;stroke-width:0.5;" width="261" x="158.5" y="411.5"/><path d="M175.3333,424.9635 L171.8333,431.9635 L173,431.9635 L176.5,424.9635 L175.3333,424.9635 M170.6667,426.1302 L169.5,428.4635 L170.6667,430.7969 L171.8333,430.7969 L170.6667,428.4635 L171.8333,426.1302 L170.6667,426.1302 M176.5,426.1302 L177.6667,428.4635 L176.5,430.7969 L177.6667,430.7969 L178.8333,428.4635 L177.6667,426.1302 L176.5,426.1302 " fill="#000000" style="stroke:;stroke-width:0.0;stroke-dasharray:;"/><text fill="#000000" font-family="Source Sans Pro" font-size="14" lengthAdjust="spacing" textLength="221" x="183.8333" y="434.4951">JSON-LD structure with details of</text><text fill="#000000" font-family="Source Sans Pro" font-size="14" lengthAdjust="spacing" textLength="241" x="168.5" y="450.792">the camera used to take the photo</text><text fill="#000000" font-family="Source Sans Pro" font-size="14" lengthAdjust="spacing" textLength="144" x="168.5" y="467.0889">and it's GPS location.</text></g><!--entity A2--><g id="elem_A2"><rect fill="#F1F1F1" height="36.2969" rx="2.5" ry="2.5" style="stroke:#181818;stroke-width:0.5;" width="159.3333" x="209.5" y="556"/><path d="M220.5,569.4635 L220.5,578.7969 L229.8333,578.7969 L229.8333,569.4635 L220.5,569.4635 M221.6667,570.6302 L228.6667,570.6302 L228.6667,574.1302 L227.5,572.9635 L226.3333,574.1302 L228.6667,576.4635 L228.6667,577.6302 L227.5,577.6302 L222.8333,572.9635 L221.6667,574.1302 L221.6667,570.6302 " fill="#000000" style="stroke:;stroke-width:0.0;stroke-dasharray:;"/><text fill="#000000" font-family="Source Sans Pro" font-size="14" lengthAdjust="spacing" textLength="124" x="234.8333" y="578.9951">Binary Image Data</text></g><!--entity A4--><g id="elem_A4"><rect fill="#F1F1F1" height="85.1875" rx="2.5" ry="2.5" style="stroke:#181818;stroke-width:0.5;" width="264" x="157" y="667.5"/><path d="M173.8333,680.9635 L170.3333,687.9635 L171.5,687.9635 L175,680.9635 L173.8333,680.9635 M169.1667,682.1302 L168,684.4635 L169.1667,686.7969 L170.3333,686.7969 L169.1667,684.4635 L170.3333,682.1302 L169.1667,682.1302 M175,682.1302 L176.1667,684.4635 L175,686.7969 L176.1667,686.7969 L177.3333,684.4635 L176.1667,682.1302 L175,682.1302 " fill="#000000" style="stroke:;stroke-width:0.0;stroke-dasharray:;"/><text fill="#000000" font-family="Source Sans Pro" font-size="14" lengthAdjust="spacing" textLength="184" x="182.3333" y="690.4951">CBOR structure containing</text><text fill="#000000" font-family="Source Sans Pro" font-size="14" lengthAdjust="spacing" textLength="148" x="167" y="706.792">information about the</text><text fill="#000000" font-family="Source Sans Pro" font-size="14" lengthAdjust="spacing" textLength="204" x="167" y="723.0889">cryptographic hashes binding</text><text fill="#000000" font-family="Source Sans Pro" font-size="14" lengthAdjust="spacing" textLength="103" x="167" y="739.3857">to the content.</text></g><!--SRC=[jLN9Rjim43rRNp7n8JfPG8CU3GE9NHGjshgeZa4GZCcnn8IBG59DZ2B_Nf9o4Y_oWWBboHozDyDvinW080UKqZmvKE9Pw0f-enMcTM0M3yIy0w41mOKlae0Bh2ogBD0wrdr7of8b1ryB1xwrEj2Not0bmDORXLumgAnfcnXXiOAyo3l76XKbiYEVBgv1HYKrQD4R2zfewhnV2CraomaKQh4av- -TNydWhn2jabaso67MFUyYuHbQ3kogGK07m-zh4fJ1AmrXF8wV9XFuay0R1BLDwA1g6xe1Pox1uTIPIXGAIb5f30BHINmNbxczkF7OK1bC5PcMS9iDuXbVFj9g0jDv-Ia8KGcFyZtSdeUxBSjBrfkQx4sjo-Jeg-MfLuT7zz77bynm2adSp7-1yxPbIQiduUl0Nf8bpSZrKhr9xNRj75alJEX0r3oPzfN_9pMmA_HRWCrEmluo9URGUUuAUXRBY3s0t9Rd-iC1VJOr-bhEVuo-pNPbukHHo3X_SD15L8M5MRC8hIEUjCD7IlQcDjuSP4PDXSyTVFvPWZGCen95B_nkpxgZwxj2ExOmc8MlMxNG8PE2nV8L3qtLrsldoNbrL4wXi0fwtWYDTWLVuWrcwF4_P5MZgmiUV1yPd_DI-dX6X-nC4JCwj8QE6nYwbJ4GUcciIaK4N9ZMnnPOVsDsrNWJzcbJX-KTNquE5aBpvE3rhC7hwOiXIFlp6wB_rlrwUVrNIRCtkgq5vwJlhAXgFvga_VG62Akg3-2olm00]--></g></svg>