<?xml version="1.0" encoding="us-ascii" standalone="no"?><svg xmlns="http://www.w3.org/2000/svg" xmlns:xlink="http://www.w3.org/1999/xlink" contentStyleType="text/css" height="1182px" preserveAspectRatio="none" style="width:662px;height:1182px;background:#FFFFFF;" version="1.1" viewBox="0 0 662 1182" width="662px" zoomAndPan="magnify"><defs/><g><!--cluster c2pa--><g id="cluster_c2pa"><rect fill="#E6E6FA" height="1169" rx="2.5" ry="2.5" style="stroke:#800080;stroke-width:1.0;" width="648" x="7" y="7"/><line style="stroke:#800080;stroke-width:1.0;" x1="7" x2="655" y1="27.2969" y2="27.2969"/><text fill="#000000" font-family="Source Sans Pro" font-size="14" font-weight="bold" lengthAdjust="spacing" textLength="115" x="273.5" y="21.9951">Manifest Store</text></g><!--cluster c2ma--><g id="cluster_c2ma"><rect fill="#90EE90" height="1102" rx="2.5" ry="2.5" style="stroke:#008000;stroke-width:1.0;" width="600" x="31" y="50"/><line style="stroke:#008000;stroke-width:1.0;" x1="31" x2="631" y1="70.2969" y2="70.2969"/><text fill="#000000" font-family="Source Sans Pro" font-size="14" font-weight="bold" lengthAdjust="spacing" textLength="67" x="297.5" y="64.9951">Manifest</text></g><!--cluster c2cs--><g id="cluster_c2cs"><rect fill="#FFE4B5" height="87" rx="2.5" ry="2.5" style="stroke:#FF4500;stroke-width:1.0;" width="469" x="96.5" y="93"/><line style="stroke:#FF4500;stroke-width:1.0;" x1="96.5" x2="565.5" y1="113.2969" y2="113.2969"/><text fill="#000000" font-family="Source Sans Pro" font-size="14" font-weight="bold" lengthAdjust="spacing" textLength="123" x="269.5" y="107.9951">Claim Signature</text></g><!--cluster c2cl--><g id="cluster_c2cl"><rect fill="#FFB6C1" height="105" rx="2.5" ry="2.5" style="stroke:#FF0000;stroke-width:1.0;" width="350" x="155.5" y="204"/><line style="stroke:#FF0000;stroke-width:1.0;" x1="155.5" x2="505.5" y1="224.2969" y2="224.2969"/><text fill="#000000" font-family="Source Sans Pro" font-size="14" font-weight="bold" lengthAdjust="spacing" textLength="42" x="292" y="218.9951">Claim</text></g><!--cluster c2as--><g id="cluster_c2as"><rect fill="#ADD8E6" height="795" rx="2.5" ry="2.5" style="stroke:#0000FF;stroke-width:1.0;" width="552" x="55" y="333"/><line style="stroke:#0000FF;stroke-width:1.0;" x1="55" x2="607" y1="353.2969" y2="353.2969"/><text fill="#000000" font-family="Source Sans Pro" font-size="14" font-weight="bold" lengthAdjust="spacing" textLength="124" x="269" y="347.9951">Assertion Store</text></g><!--cluster stds--><g id="cluster_stds"><path d="M162.5,376 L197.5,376 A3.75,3.75 0 0 1 200,378.5 L207,398.2969 L498.5,398.2969 A2.5,2.5 0 0 1 501,400.7969 L501,561.5 A2.5,2.5 0 0 1 498.5,564 L162.5,564 A2.5,2.5 0 0 1 160,561.5 L160,378.5 A2.5,2.5 0 0 1 162.5,376 " fill="none" style="stroke:#000000;stroke-width:1.5;"/><line style="stroke:#000000;stroke-width:1.5;" x1="160" x2="207" y1="398.2969" y2="398.2969"/><text fill="#000000" font-family="Source Sans Pro" font-size="14" font-weight="bold" lengthAdjust="spacing" textLength="34" x="164" y="390.9951">stds</text></g><!--cluster exif--><g id="cluster_exif"><rect fill="#E0FFFF" height="121" rx="2.5" ry="2.5" style="stroke:#0000FF;stroke-width:1.0;" width="293" x="184" y="419"/><line style="stroke:#0000FF;stroke-width:1.0;" x1="184" x2="477" y1="439.2969" y2="439.2969"/><text fill="#000000" font-family="Source Sans Pro" font-size="14" font-weight="bold" lengthAdjust="spacing" textLength="68" x="296.5" y="433.9951">stds.exif</text></g><!--cluster               c2pa--><g id="cluster_              c2pa"><path d="M81.5,588 L190.5,588 A3.75,3.75 0 0 1 193,590.5 L200,610.2969 L580.5,610.2969 A2.5,2.5 0 0 1 583,612.7969 L583,1101.5 A2.5,2.5 0 0 1 580.5,1104 L81.5,1104 A2.5,2.5 0 0 1 79,1101.5 L79,590.5 A2.5,2.5 0 0 1 81.5,588 " fill="none" style="stroke:#000000;stroke-width:1.5;"/><line style="stroke:#000000;stroke-width:1.5;" x1="79" x2="200" y1="610.2969" y2="610.2969"/><text fill="#000000" font-family="Source Sans Pro" font-size="14" font-weight="bold" lengthAdjust="spacing" textLength="38" x="153" y="602.9951">c2pa</text></g><!--cluster thumbnail--><g id="cluster_thumbnail"><path d="M105.5,631 L183.5,631 A3.75,3.75 0 0 1 186,633.5 L193,653.2969 L556.5,653.2969 A2.5,2.5 0 0 1 559,655.7969 L559,849.5 A2.5,2.5 0 0 1 556.5,852 L105.5,852 A2.5,2.5 0 0 1 103,849.5 L103,633.5 A2.5,2.5 0 0 1 105.5,631 " fill="none" style="stroke:#000000;stroke-width:1.5;"/><line style="stroke:#000000;stroke-width:1.5;" x1="103" x2="193" y1="653.2969" y2="653.2969"/><text fill="#000000" font-family="Source Sans Pro" font-size="14" font-weight="bold" lengthAdjust="spacing" textLength="77" x="107" y="645.9951">thumbnail</text></g><!--cluster claim--><g id="cluster_claim"><path d="M129.5,674 L170.5,674 A3.75,3.75 0 0 1 173,676.5 L180,696.2969 L532.5,696.2969 A2.5,2.5 0 0 1 535,698.7969 L535,825.5 A2.5,2.5 0 0 1 532.5,828 L129.5,828 A2.5,2.5 0 0 1 127,825.5 L127,676.5 A2.5,2.5 0 0 1 129.5,674 " fill="none" style="stroke:#000000;stroke-width:1.5;"/><line style="stroke:#000000;stroke-width:1.5;" x1="127" x2="180" y1="696.2969" y2="696.2969"/><text fill="#000000" font-family="Source Sans Pro" font-size="14" font-weight="bold" lengthAdjust="spacing" textLength="40" x="131" y="688.9951">claim</text></g><!--cluster jpg                --><g id="cluster_jpg                "><rect fill="#E0FFFF" height="87" rx="2.5" ry="2.5" style="stroke:#0000FF;stroke-width:1.0;" width="360" x="151" y="717"/><line style="stroke:#0000FF;stroke-width:1.0;" x1="151" x2="511" y1="737.2969" y2="737.2969"/><text fill="#000000" font-family="Source Sans Pro" font-size="14" font-weight="bold" lengthAdjust="spacing" textLength="194" x="229" y="731.9951">c2pa.thumbnail.claim.jpg</text></g><!--cluster hash--><g id="cluster_hash"><path d="M149,876 L188,876 A3.75,3.75 0 0 1 190.5,878.5 L197.5,898.2969 L513,898.2969 A2.5,2.5 0 0 1 515.5,900.7969 L515.5,1077.5 A2.5,2.5 0 0 1 513,1080 L149,1080 A2.5,2.5 0 0 1 146.5,1077.5 L146.5,878.5 A2.5,2.5 0 0 1 149,876 " fill="none" style="stroke:#000000;stroke-width:1.5;"/><line style="stroke:#000000;stroke-width:1.5;" x1="146.5" x2="197.5" y1="898.2969" y2="898.2969"/><text fill="#000000" font-family="Source Sans Pro" font-size="14" font-weight="bold" lengthAdjust="spacing" textLength="38" x="150.5" y="890.9951">hash</text></g><!--cluster data                       --><g id="cluster_data                       "><rect fill="#E0FFFF" height="137" rx="2.5" ry="2.5" style="stroke:#0000FF;stroke-width:1.0;" width="321" x="170.5" y="919"/><line style="stroke:#0000FF;stroke-width:1.0;" x1="170.5" x2="491.5" y1="939.2969" y2="939.2969"/><text fill="#000000" font-family="Source Sans Pro" font-size="14" font-weight="bold" lengthAdjust="spacing" textLength="120" x="248.5" y="933.9951">c2pa.hash.data</text></g><!--entity CS--><g id="elem_CS"><rect fill="#F1F1F1" height="36.2969" rx="2.5" ry="2.5" style="stroke:#181818;stroke-width:0.5;" width="190.3333" x="235.5" y="128"/><path d="M252.9167,141.4635 C251.3067,141.4635 250,142.7702 250,144.3802 C250,144.5669 250,144.7535 250.035,144.9285 L246.5,148.4635 L246.5,150.7969 L250,150.7969 L250,148.4635 L252.3333,148.4635 L252.3333,147.2969 L252.3683,147.2619 C252.5433,147.2969 252.73,147.2969 252.9167,147.2969 C254.5267,147.2969 255.8333,145.9902 255.8333,144.3802 C255.8333,142.7702 254.5267,141.4635 252.9167,141.4635 M253.5,142.6302 C254.1417,142.6302 254.6667,143.1552 254.6667,143.7969 C254.6667,144.4385 254.1417,144.9635 253.5,144.9635 C252.8583,144.9635 252.3333,144.4385 252.3333,143.7969 C252.3333,143.1552 252.8583,142.6302 253.5,142.6302 " fill="#000000" style="stroke:;stroke-width:0.0;stroke-dasharray:;"/><text fill="#000000" font-family="Source Sans Pro" font-size="14" lengthAdjust="spacing" textLength="155" x="260.8333" y="150.9951">COSE Digital Signature</text></g><!--entity C--><g id="elem_C"><rect fill="#F1F1F1" height="52.5938" rx="2.5" ry="2.5" style="stroke:#181818;stroke-width:0.5;" width="318" x="171.5" y="239.5"/><path d="M188.3333,252.9635 L184.8333,259.9635 L186,259.9635 L189.5,252.9635 L188.3333,252.9635 M183.6667,254.1302 L182.5,256.4635 L183.6667,258.7969 L184.8333,258.7969 L183.6667,256.4635 L184.8333,254.1302 L183.6667,254.1302 M189.5,254.1302 L190.6667,256.4635 L189.5,258.7969 L190.6667,258.7969 L191.8333,256.4635 L190.6667,254.1302 L189.5,254.1302 " fill="#000000" style="stroke:;stroke-width:0.0;stroke-dasharray:;"/><text fill="#000000" font-family="Source Sans Pro" font-size="14" lengthAdjust="spacing" textLength="219" x="196.8333" y="262.4951">CBOR structure with references</text><text fill="#000000" font-family="Source Sans Pro" font-size="14" lengthAdjust="spacing" textLength="286" x="181.5" y="278.792">to the Assertions and the Claim Signature</text></g><!--entity A1--><g id="elem_A1"><rect fill="#F1F1F1" height="68.8906" rx="2.5" ry="2.5" style="stroke:#181818;stroke-width:0.5;" width="261" x="200" y="454.5"/><path d="M216.8333,467.9635 L213.3333,474.9635 L214.5,474.9635 L218,467.9635 L216.8333,467.9635 M212.1667,469.1302 L211,471.4635 L212.1667,473.7969 L213.3333,473.7969 L212.1667,471.4635 L213.3333,469.1302 L212.1667,469.1302 M218,469.1302 L219.1667,471.4635 L218,473.7969 L219.1667,473.7969 L220.3333,471.4635 L219.1667,469.1302 L218,469.1302 " fill="#000000" style="stroke:;stroke-width:0.0;stroke-dasharray:;"/><text fill="#000000" font-family="Source Sans Pro" font-size="14" lengthAdjust="spacing" textLength="221" x="225.3333" y="477.4951">JSON-LD structure with details of</text><text fill="#000000" font-family="Source Sans Pro" font-size="14" lengthAdjust="spacing" textLength="241" x="210" y="493.792">the camera used to take the photo</text><text fill="#000000" font-family="Source Sans Pro" font-size="14" lengthAdjust="spacing" textLength="144" x="210" y="510.0889">and it's GPS location.</text></g><!--entity A2--><g id="elem_A2"><rect fill="#F1F1F1" height="36.2969" rx="2.5" ry="2.5" style="stroke:#181818;stroke-width:0.5;" width="159.3333" x="251" y="752"/><path d="M262,765.4635 L262,774.7969 L271.3333,774.7969 L271.3333,765.4635 L262,765.4635 M263.1667,766.6302 L270.1667,766.6302 L270.1667,770.1302 L269,768.9635 L267.8333,770.1302 L270.1667,772.4635 L270.1667,773.6302 L269,773.6302 L264.3333,768.9635 L263.1667,770.1302 L263.1667,766.6302 " fill="#000000" style="stroke:;stroke-width:0.0;stroke-dasharray:;"/><text fill="#000000" font-family="Source Sans Pro" font-size="14" lengthAdjust="spacing" textLength="124" x="276.3333" y="774.9951">Binary Image Data</text></g><!--entity A4--><g id="elem_A4"><rect fill="#F1F1F1" height="85.1875" rx="2.5" ry="2.5" style="stroke:#181818;stroke-width:0.5;" width="264" x="198.5" y="954.5"/><path d="M215.3333,967.9635 L211.8333,974.9635 L213,974.9635 L216.5,967.9635 L215.3333,967.9635 M210.6667,969.1302 L209.5,971.4635 L210.6667,973.7969 L211.8333,973.7969 L210.6667,971.4635 L211.8333,969.1302 L210.6667,969.1302 M216.5,969.1302 L217.6667,971.4635 L216.5,973.7969 L217.6667,973.7969 L218.8333,971.4635 L217.6667,969.1302 L216.5,969.1302 " fill="#000000" style="stroke:;stroke-width:0.0;stroke-dasharray:;"/><text fill="#000000" font-family="Source Sans Pro" font-size="14" lengthAdjust="spacing" textLength="184" x="223.8333" y="977.4951">CBOR structure containing</text><text fill="#000000" font-family="Source Sans Pro" font-size="14" lengthAdjust="spacing" textLength="148" x="208.5" y="993.792">information about the</text><text fill="#000000" font-family="Source Sans Pro" font-size="14" lengthAdjust="spacing" textLength="204" x="208.5" y="1010.0889">cryptographic hashes binding</text><text fill="#000000" font-family="Source Sans Pro" font-size="14" lengthAdjust="spacing" textLength="103" x="208.5" y="1026.3857">to the content.</text></g><!--SRC=[jLJ9Rjim43rRNp7n8JvPG8CU3GE9NHGjshgeZe4HZ4bQceIBG59DZAB_Nf9I4o_oWWBbIHg-DyDvim00Z02bDCyE5BsGBk4dMZAD0xDw5Cmx80q8Bjn80PomjAYoG6jP3oqfIvOhqamsN812JMlX_8Fp6nckSsgKpBB12EQjWwk4PsWvi9iQ0HqCltOaABonOWYJIRoQJk5N0cyHr2wXXQfTw1QSkGI7SsScaHGKL6hqZHLdyMrSvWxYncE3TfWqcnLmdmtYcLm_YSqKPelYGn2Y98_oBTo1X-MEvNVMcvhiJQtDvEIhvRbNXqVtqIVNp70HahXR_03dRSEILi_agy1U2oiq4wwNwWtuIi2jSy9wCZgKHVDaEbJ-dzJ0jj2l0ROx2VlBb9X3vxdBnGkj8_O8SbUUstT7zDdMw7En-3R-Cj-NYGkF9CE0hU6eYwWAGoKiGkC4JzhXaqZskZBU76L6JScF77pyNe0q3ACIUIzyUM3Tq_LDeJrR6CpSLurQwP19pcBvyiUwxEkro-IyEIadAIo3ddUaqMxWK_o3ENhy3rbLwAgS1zydnkUobDvVq25xKyIC3gsXunQ6TcKCIA-DLQc8W2lJ-DW2tHspczgRi4_hYXZ4bmi7Az8yEVXxEd0tVJ64qFxoXkZ_QxywOKVjx8tlA-9SwAMbilBZQTfFhu2mgle0Bli3]--></g></svg>