<?xml version="1.0" encoding="us-ascii" standalone="no"?><svg xmlns="http://www.w3.org/2000/svg" xmlns:xlink="http://www.w3.org/1999/xlink" contentStyleType="text/css" height="1494px" preserveAspectRatio="none" style="width:1063px;height:1494px;background:#FFFFFF;" version="1.1" viewBox="0 0 1063 1494" width="1063px" zoomAndPan="magnify"><defs/><g><!--class Asset--><g id="elem_Asset"><rect codeLine="35" fill="#F1F1F1" height="77.2188" id="Asset" rx="2.5" ry="2.5" style="stroke:#181818;stroke-width:0.5;" width="107" x="852" y="7"/><text fill="#000000" font-family="sans-serif" font-size="16" font-weight="bold" lengthAdjust="spacing" textLength="51" x="880" y="26.8516">Asset</text><line style="stroke:#181818;stroke-width:0.5;" x1="853" x2="958" y1="35.625" y2="35.625"/><text fill="#000000" font-family="sans-serif" font-size="14" lengthAdjust="spacing" textLength="56" x="858" y="52.6201">Content</text><line style="stroke:#181818;stroke-width:1.0;stroke-dasharray:1.0,2.0;" x1="853" x2="958" y1="59.9219" y2="59.9219"/><text fill="#000000" font-family="sans-serif" font-size="14" lengthAdjust="spacing" textLength="95" x="858" y="76.917">ManifestStore</text></g><!--class Assertion--><g id="elem_Assertion"><rect codeLine="42" fill="#F1F1F1" height="77.2188" id="Assertion" rx="2.5" ry="2.5" style="stroke:#181818;stroke-width:0.5;" width="91" x="624" y="925"/><text fill="#000000" font-family="sans-serif" font-size="16" font-weight="bold" lengthAdjust="spacing" textLength="85" x="627" y="944.8516">Assertion</text><line style="stroke:#181818;stroke-width:0.5;" x1="625" x2="714" y1="953.625" y2="953.625"/><text fill="#000000" font-family="sans-serif" font-size="14" lengthAdjust="spacing" textLength="32" x="630" y="970.6201">Data</text><line style="stroke:#181818;stroke-width:1.0;stroke-dasharray:1.0,2.0;" x1="625" x2="714" y1="977.9219" y2="977.9219"/><text fill="#000000" font-family="sans-serif" font-size="14" font-style="italic" lengthAdjust="spacing" textLength="64" x="630" y="994.917">Metadata</text></g><!--class Binding--><g id="elem_Binding"><rect codeLine="49" fill="#F1F1F1" height="28.625" id="Binding" rx="2.5" ry="2.5" style="stroke:#181818;stroke-width:0.5;" width="70" x="927.5" y="556"/><text fill="#000000" font-family="sans-serif" font-size="16" font-weight="bold" lengthAdjust="spacing" textLength="64" x="930.5" y="575.8516">Binding</text></g><!--class Ingredient--><g id="elem_Ingredient"><rect codeLine="51" fill="#F1F1F1" height="125.8125" id="Ingredient" rx="2.5" ry="2.5" style="stroke:#181818;stroke-width:0.5;" width="98" x="621.5" y="1148"/><text fill="#000000" font-family="sans-serif" font-size="16" font-weight="bold" lengthAdjust="spacing" textLength="92" x="624.5" y="1167.8516">Ingredient</text><line style="stroke:#181818;stroke-width:0.5;" x1="622.5" x2="718.5" y1="1176.625" y2="1176.625"/><text fill="#000000" font-family="sans-serif" font-size="14" lengthAdjust="spacing" textLength="77" x="627.5" y="1193.6201">Information</text><line style="stroke:#181818;stroke-width:1.0;stroke-dasharray:1.0,2.0;" x1="622.5" x2="718.5" y1="1200.9219" y2="1200.9219"/><text fill="#000000" font-family="sans-serif" font-size="14" font-style="italic" lengthAdjust="spacing" textLength="32" x="627.5" y="1217.917">Data</text><line style="stroke:#181818;stroke-width:1.0;stroke-dasharray:1.0,2.0;" x1="622.5" x2="718.5" y1="1225.2188" y2="1225.2188"/><text fill="#000000" font-family="sans-serif" font-size="14" font-style="italic" lengthAdjust="spacing" textLength="72" x="627.5" y="1242.2139">Thumbnail</text><line style="stroke:#181818;stroke-width:1.0;stroke-dasharray:1.0,2.0;" x1="622.5" x2="718.5" y1="1249.5156" y2="1249.5156"/><text fill="#000000" font-family="sans-serif" font-size="14" font-style="italic" lengthAdjust="spacing" textLength="57" x="627.5" y="1266.5107">Manifest</text></g><!--class Claim--><g id="elem_Claim"><rect codeLine="61" fill="#F1F1F1" height="101.5156" id="Claim" rx="2.5" ry="2.5" style="stroke:#181818;stroke-width:0.5;" width="115" x="488" y="650"/><text fill="#000000" font-family="sans-serif" font-size="16" font-weight="bold" lengthAdjust="spacing" textLength="46" x="522.5" y="669.8516">Claim</text><line style="stroke:#181818;stroke-width:0.5;" x1="489" x2="602" y1="678.625" y2="678.625"/><text fill="#000000" font-family="sans-serif" font-size="14" lengthAdjust="spacing" textLength="73" x="494" y="695.6201">Assertions</text><line style="stroke:#181818;stroke-width:1.0;stroke-dasharray:1.0,2.0;" x1="489" x2="602" y1="702.9219" y2="702.9219"/><text fill="#000000" font-family="sans-serif" font-size="14" font-style="italic" lengthAdjust="spacing" textLength="77" x="494" y="719.917">Redactions</text><line style="stroke:#181818;stroke-width:1.0;stroke-dasharray:1.0,2.0;" x1="489" x2="602" y1="727.2188" y2="727.2188"/><text fill="#000000" font-family="sans-serif" font-size="14" lengthAdjust="spacing" textLength="103" x="494" y="744.2139">ClaimSignature</text></g><!--class ClaimSignature--><g id="elem_ClaimSignature"><rect codeLine="68" fill="#F1F1F1" height="77.2188" id="ClaimSignature" rx="2.5" ry="2.5" style="stroke:#181818;stroke-width:0.5;" width="147" x="198" y="924.5"/><text fill="#000000" font-family="sans-serif" font-size="16" font-weight="bold" lengthAdjust="spacing" textLength="131" x="206" y="944.3516">ClaimSignature</text><line style="stroke:#181818;stroke-width:0.5;" x1="199" x2="344" y1="953.125" y2="953.125"/><text fill="#000000" font-family="sans-serif" font-size="14" lengthAdjust="spacing" textLength="127" x="204" y="970.1201">Trusted Certificate</text><line style="stroke:#181818;stroke-width:1.0;stroke-dasharray:1.0,2.0;" x1="199" x2="344" y1="977.4219" y2="977.4219"/><text fill="#000000" font-family="sans-serif" font-size="14" font-style="italic" lengthAdjust="spacing" textLength="135" x="204" y="994.417">Trusted TimeStamp</text></g><!--class ManifestStore--><g id="elem_ManifestStore"><rect codeLine="74" fill="#F1F1F1" height="77.2188" id="ManifestStore" rx="2.5" ry="2.5" style="stroke:#181818;stroke-width:0.5;" width="147" x="665" y="214"/><text fill="#000000" font-family="sans-serif" font-size="16" font-weight="bold" lengthAdjust="spacing" textLength="126" x="675.5" y="233.8516">ManifestStore</text><line style="stroke:#181818;stroke-width:0.5;" x1="666" x2="811" y1="242.625" y2="242.625"/><text fill="#000000" font-family="sans-serif" font-size="14" lengthAdjust="spacing" textLength="99" x="671" y="259.6201">ActiveManifest</text><line style="stroke:#181818;stroke-width:1.0;stroke-dasharray:1.0,2.0;" x1="666" x2="811" y1="266.9219" y2="266.9219"/><text fill="#000000" font-family="sans-serif" font-size="14" font-style="italic" lengthAdjust="spacing" textLength="135" x="671" y="283.917">IngredientManifests</text></g><!--class Manifest--><g id="elem_Manifest"><rect codeLine="79" fill="#F1F1F1" height="101.5156" id="Manifest" rx="2.5" ry="2.5" style="stroke:#181818;stroke-width:0.5;" width="115" x="682" y="375"/><text fill="#000000" font-family="sans-serif" font-size="16" font-weight="bold" lengthAdjust="spacing" textLength="77" x="701" y="394.8516">Manifest</text><line style="stroke:#181818;stroke-width:0.5;" x1="683" x2="796" y1="403.625" y2="403.625"/><text fill="#000000" font-family="sans-serif" font-size="14" lengthAdjust="spacing" textLength="102" x="688" y="420.6201">AssertionStore</text><line style="stroke:#181818;stroke-width:1.0;stroke-dasharray:1.0,2.0;" x1="683" x2="796" y1="427.9219" y2="427.9219"/><text fill="#000000" font-family="sans-serif" font-size="14" lengthAdjust="spacing" textLength="37" x="688" y="444.917">Claim</text><line style="stroke:#181818;stroke-width:1.0;stroke-dasharray:1.0,2.0;" x1="683" x2="796" y1="452.2188" y2="452.2188"/><text fill="#000000" font-family="sans-serif" font-size="14" lengthAdjust="spacing" textLength="103" x="688" y="469.2139">ClaimSignature</text></g><!--class IngredientManifest--><g id="elem_IngredientManifest"><rect codeLine="88" fill="#F1F1F1" height="28.625" id="IngredientManifest" rx="2.5" ry="2.5" style="stroke:#181818;stroke-width:0.5;" width="175" x="7" y="1354"/><text fill="#000000" font-family="sans-serif" font-size="16" font-weight="bold" lengthAdjust="spacing" textLength="169" x="10" y="1373.8516">IngredientManifest</text></g><!--class Redaction--><g id="elem_Redaction"><rect codeLine="91" fill="#F1F1F1" height="28.625" id="Redaction" rx="2.5" ry="2.5" style="stroke:#181818;stroke-width:0.5;" width="94" x="324.5" y="831"/><text fill="#000000" font-family="sans-serif" font-size="16" font-weight="bold" lengthAdjust="spacing" textLength="88" x="327.5" y="850.8516">Redaction</text></g><!--class Signer--><g id="elem_Signer"><rect codeLine="94" fill="#F1F1F1" height="28.625" id="Signer" rx="2.5" ry="2.5" style="stroke:#181818;stroke-width:0.5;" width="62" x="156.5" y="831"/><text fill="#000000" font-family="sans-serif" font-size="16" font-weight="bold" lengthAdjust="spacing" textLength="56" x="159.5" y="850.8516">Signer</text></g><!--link Asset to ManifestStore--><g id="link_Asset_ManifestStore"><path codeLine="97" d="M851.5,71 C788.41,71 759.19,151.3 746.74,204.63 " fill="none" id="Asset-to-ManifestStore" style="stroke:#181818;stroke-width:1.0;"/><polygon fill="#181818" points="745.58,209.7,751.4811,201.8148,746.6918,204.8252,743.6814,200.0359,745.58,209.7" style="stroke:#181818;stroke-width:1.0;"/></g><!--link Assertion to Ingredient--><g id="link_Assertion_Ingredient"><path codeLine="99" d="M716.5,965 C752.21,965 722.59,1067.03 697.14,1139.26 " fill="none" id="Assertion-to-Ingredient" style="stroke:#0000FF;stroke-width:1.0;"/><polygon fill="#0000FF" points="695.47,1143.98,702.2475,1136.834,697.1408,1139.2674,694.7074,1134.1607,695.47,1143.98" style="stroke:#0000FF;stroke-width:1.0;"/><text fill="#0000FF" font-family="sans-serif" font-size="13" lengthAdjust="spacing" textLength="93" x="721.5" y="1079.0669">may reference</text></g><!--link Binding to Asset--><g id="link_Binding_Asset"><path codeLine="102" d="M966.36,555.78 C973.14,530.38 986.5,474.25 986.5,426 C986.5,148 986.5,148 986.5,148 C986.5,103.46 1005.29,51.26 965.63,47.25 " fill="none" id="Binding-to-Asset" style="stroke:#0000FF;stroke-width:1.0;"/><polygon fill="#0000FF" points="960.5,47,969.2953,51.4319,965.4941,47.2426,969.6835,43.4413,960.5,47" style="stroke:#0000FF;stroke-width:1.0;"/><text fill="#0000FF" font-family="sans-serif" font-size="13" lengthAdjust="spacing" textLength="68" x="987.5" y="256.5669">references</text></g><!--link ManifestStore to Manifest--><g id="link_ManifestStore_Manifest"><path codeLine="105" d="M813.5,254 C863.75,254 825.2,317.22 787.46,366.55 " fill="none" id="ManifestStore-to-Manifest" style="stroke:#008000;stroke-width:1.0;"/><polygon fill="#008000" points="784.28,370.68,792.9371,365.9837,787.3279,366.7163,786.5952,361.1071,784.28,370.68" style="stroke:#008000;stroke-width:1.0;"/><text fill="#008000" font-family="sans-serif" font-size="13" lengthAdjust="spacing" textLength="54" x="815.5" y="337.0669">contains</text></g><!--link ManifestStore to IngredientManifest--><g id="link_ManifestStore_IngredientManifest"><path codeLine="106" d="M664.5,278 C527.49,278 65.5,286.99 65.5,424 C65.5,424 65.5,424 65.5,1211.5 C65.5,1261.81 80.26,1319.73 88.72,1348.8 " fill="none" id="ManifestStore-to-IngredientManifest" style="stroke:#008000;stroke-width:1.0;"/><polygon fill="#008000" points="90.22,1353.89,91.4786,1344.1219,88.7898,1349.0989,83.8128,1346.4102,90.22,1353.89" style="stroke:#008000;stroke-width:1.0;"/><text fill="#008000" font-family="sans-serif" font-size="13" lengthAdjust="spacing" textLength="54" x="66.5" y="850.0669">contains</text><text fill="#008000" font-family="sans-serif" font-size="13" lengthAdjust="spacing" textLength="36" x="46.0043" y="1342.8975">many</text></g><!--link Manifest to Assertion--><g id="link_Manifest_Assertion"><path codeLine="108" d="M798.5,415 C826.95,415 800.25,450.68 797.5,479 C790.22,554.06 780.76,571.76 767.5,646 C750.52,741.09 762.96,769.38 729.5,860 C722.28,879.54 711.37,899.61 700.82,916.72 " fill="none" id="Manifest-to-Assertion" style="stroke:#008000;stroke-width:1.0;"/><polygon fill="#008000" points="698.15,921,706.3036,915.4757,700.7936,916.756,699.5132,911.2459,698.15,921" style="stroke:#008000;stroke-width:1.0;"/><text fill="#008000" font-family="sans-serif" font-size="13" lengthAdjust="spacing" textLength="54" x="768.5" y="704.5669">contains</text><text fill="#008000" font-family="sans-serif" font-size="13" lengthAdjust="spacing" textLength="36" x="702.0132" y="913.9227">many</text></g><!--link Manifest to Binding--><g id="link_Manifest_Binding"><path codeLine="109" d="M798.5,415 C866.71,415 853.49,480.72 904.5,526 C915.22,535.52 927.88,545.17 938.63,552.96 " fill="none" id="Manifest-to-Binding" style="stroke:#008000;stroke-width:1.0;"/><polygon fill="#008000" points="942.81,555.96,937.8395,547.4574,938.751,553.0404,933.168,553.9519,942.81,555.96" style="stroke:#008000;stroke-width:1.0;"/><text fill="#008000" font-family="sans-serif" font-size="13" lengthAdjust="spacing" textLength="54" x="905.5" y="522.0669">contains</text></g><!--link Manifest to Ingredient--><g id="link_Manifest_Ingredient"><path codeLine="110" d="M798.5,415 C870.81,415 849.5,497.19 849.5,569.5 C849.5,569.5 849.5,569.5 849.5,1075.5 C849.5,1135.48 784.29,1171.87 732.59,1191.3 " fill="none" id="Manifest-to-Ingredient" style="stroke:#008000;stroke-width:1.0;"/><polygon fill="#008000" points="727.63,1193.13,737.4582,1193.7679,732.321,1191.3995,734.6894,1186.2623,727.63,1193.13" style="stroke:#008000;stroke-width:1.0;"/><text fill="#008000" font-family="sans-serif" font-size="13" lengthAdjust="spacing" textLength="79" x="850.5" y="850.0669">may contain</text><text fill="#008000" font-family="sans-serif" font-size="13" lengthAdjust="spacing" textLength="36" x="727.63" y="1190.1969">many</text></g><!--link Manifest to Claim--><g id="link_Manifest_Claim"><path codeLine="112" d="M681.5,439 C591.03,439 560.63,564.14 550.5,640.78 " fill="none" id="Manifest-to-Claim" style="stroke:#181818;stroke-width:1.0;"/><polygon fill="#181818" points="549.86,645.76,554.9604,637.3347,550.489,640.7997,547.0239,636.3283,549.86,645.76" style="stroke:#181818;stroke-width:1.0;"/></g><!--link Manifest to ClaimSignature--><g id="link_Manifest_ClaimSignature"><path codeLine="113" d="M681.5,463 C587.37,463 271.5,475.37 271.5,569.5 C271.5,569.5 271.5,569.5 271.5,846.5 C271.5,870.54 271.5,897.39 271.5,919.16 " fill="none" id="Manifest-to-ClaimSignature" style="stroke:#181818;stroke-width:1.0;"/><polygon fill="#181818" points="271.5,924.29,275.5,915.29,271.5,919.29,267.5,915.29,271.5,924.29" style="stroke:#181818;stroke-width:1.0;"/></g><!--link Ingredient to IngredientManifest--><g id="link_Ingredient_IngredientManifest"><path codeLine="115" d="M620.5,1261.5 C438.79,1261.5 228.6,1323.04 138.84,1352.34 " fill="none" id="Ingredient-to-IngredientManifest" style="stroke:#0000FF;stroke-width:1.0;"/><polygon fill="#0000FF" points="133.87,1353.97,143.6687,1354.963,138.6205,1352.4103,141.1732,1347.3622,133.87,1353.97" style="stroke:#0000FF;stroke-width:1.0;"/><text fill="#0000FF" font-family="sans-serif" font-size="13" lengthAdjust="spacing" textLength="93" x="294.5" y="1320.0669">may reference</text></g><!--link Claim to Assertion--><g id="link_Claim_Assertion"><path codeLine="117" d="M604.5,690 C627.45,690 651.96,838.41 663.21,915.98 " fill="none" id="Claim-to-Assertion" style="stroke:#0000FF;stroke-width:1.0;"/><polygon fill="#0000FF" points="663.93,920.98,666.6055,911.5015,663.2169,916.0311,658.6873,912.6425,663.93,920.98" style="stroke:#0000FF;stroke-width:1.0;"/><text fill="#0000FF" font-family="sans-serif" font-size="13" lengthAdjust="spacing" textLength="68" x="655.5" y="850.0669">references</text><text fill="#0000FF" font-family="sans-serif" font-size="13" lengthAdjust="spacing" textLength="36" x="625.9781" y="913.9011">many</text></g><!--link Claim to Redaction--><g id="link_Claim_Redaction"><path codeLine="118" d="M487.5,714 C425.76,714 398.25,730.46 367.5,784 C360.34,796.46 361.96,812.83 365.02,825.4 " fill="none" id="Claim-to-Redaction" style="stroke:#0000FF;stroke-width:1.0;"/><polygon fill="#0000FF" points="366.4,830.54,367.9227,820.8096,365.1001,825.7119,360.1978,822.8894,366.4,830.54" style="stroke:#0000FF;stroke-width:1.0;"/><text fill="#0000FF" font-family="sans-serif" font-size="13" lengthAdjust="spacing" textLength="93" x="368.5" y="797.0669">may reference</text><text fill="#0000FF" font-family="sans-serif" font-size="13" lengthAdjust="spacing" textLength="36" x="322.4594" y="819.9735">many</text></g><!--link Claim to ClaimSignature--><g id="link_Claim_ClaimSignature"><path codeLine="119" d="M487.5,738 C457.99,738 478.07,773.85 466.5,801 C454.89,828.25 455.67,838.31 435.5,860 C411.44,885.87 379.41,907.72 350.04,924.49 " fill="none" id="Claim-to-ClaimSignature" style="stroke:#0000FF;stroke-width:1.0;"/><polygon fill="#0000FF" points="345.35,927.13,355.1542,926.1933,349.7052,924.6739,351.2245,919.2249,345.35,927.13" style="stroke:#0000FF;stroke-width:1.0;"/><text fill="#0000FF" font-family="sans-serif" font-size="13" lengthAdjust="spacing" textLength="68" x="456.5" y="850.0669">references</text></g><!--link Signer to ClaimSignature--><g id="link_Signer_ClaimSignature"><path codeLine="121" d="M197.47,860.2 C208.18,874.94 225.75,899.09 241.08,920.17 " fill="none" id="Signer-to-ClaimSignature" style="stroke:#181818;stroke-width:1.0;"/><polygon fill="#181818" points="244.11,924.34,242.0474,914.7096,241.1674,920.2976,235.5794,919.4176,244.11,924.34" style="stroke:#181818;stroke-width:1.0;"/></g><rect fill="#DDDDDD" height="75.1875" id="_legend" rx="7.5" ry="7.5" style="stroke:#000000;stroke-width:1.0;" width="401" x="324.25" y="1399.625"/><ellipse cx="334.75" cy="1413.4219" fill="#000000" rx="2.5" ry="2.5" style="stroke:#000000;stroke-width:0.0;"/><text fill="#000000" font-family="sans-serif" font-size="14" lengthAdjust="spacing" textLength="379" x="341.25" y="1417.6201">All relationships are singular unless otherwise specified</text><ellipse cx="334.75" cy="1429.7188" fill="#000000" rx="2.5" ry="2.5" style="stroke:#000000;stroke-width:0.0;"/><text fill="#000000" font-family="sans-serif" font-size="14" lengthAdjust="spacing" textLength="295" x="341.25" y="1433.917">Green lines represent embedded/contains</text><ellipse cx="334.75" cy="1446.0156" fill="#000000" rx="2.5" ry="2.5" style="stroke:#000000;stroke-width:0.0;"/><text fill="#000000" font-family="sans-serif" font-size="14" lengthAdjust="spacing" textLength="263" x="341.25" y="1450.2139">Blue lines represent linked references</text><ellipse cx="334.75" cy="1462.3125" fill="#000000" rx="2.5" ry="2.5" style="stroke:#000000;stroke-width:0.0;"/><text fill="#000000" font-family="sans-serif" font-size="14" lengthAdjust="spacing" textLength="46" x="341.25" y="1466.5107">Text in</text><text fill="#000000" font-family="sans-serif" font-size="14" font-style="italic" lengthAdjust="spacing" textLength="37" x="391.25" y="1466.5107">italics</text><text fill="#000000" font-family="sans-serif" font-size="14" lengthAdjust="spacing" textLength="175" x="432.25" y="1466.5107">means optional elements</text><!--SRC=[fLHDRzim33tRlu9e3m46jCOkEtX3W3RTXXww0Ml-W68njb1PCYIvNLRqlu-IFsGxGJDW1O9QbFZuI3vo1Jz-Rh_cWCe9Tm1XWIbWKZ0BUssWaCpQz8jr1udhD9pk12iDg-4rXUuwVFc_5J3dZDYr3ZqCXnfTfRaThhzfvJPQ4knEjZXORrdnL1hTAjxT7L1A_PAEc5qCnUh1eqB6qOnH0Jpke_Y3yF7JQ9i4UnPQefk_zld0JalUczzI_tjBlsHzgcaYiKJ5qoJv03TIWa79dD3ALgAXx0o25Qfi9JFGAeb4KRiApOkmTDDW8VO2E-_l1b6158ggOh0nQAdOWFKEEKUU5SI72MN3srigpD5JEZyX9yCU3Qe2kwTR_Er0ACWouQXXXSqoAZXJHAJnH9a4b5WJ0BsdJFfyqcG5bU08n9Q8QZSQc3eGguPKu2fApLvVNwT9k2c4AIJsX-v9xVaR6-3OinOS6gDt5C_2Yt0LWPMIE1T6lv2I47qO-oHKmxnsV8Rkq21eGmf9FRyWlnjhqL5dasH3LI4ZVQt0yw1_3-WOPuxH8LWUc19xjDHCROZSsmp5-184fBk9IvOD85aMF5Q3y3S6kV-aghrwSqIx5OfJERmv6kzLIGx2TyV7k5SqB7NGHmnrruSPpjkghNUA2Jar3abqV4RyZMIY3j1ZCZOw_KBEYc2BKC7ZKPIAkNPUZlbD0DsQrZfgpyP3xqN174vuzfTRKUEZOtMpu3QhUyUHo3pZO8z8iKh3dUthle2QPzetD7O-os9xmkKYxVCrE6RIzNDyC9PqOVTeOTa4Oz1ddiyhS7LrnTUmK6CQqybphmJ_R3tLpQLVWfyTJN7klo27cXtYa7iH7aEifq8zXv0cWtP3x9vyFradlASBPWMdV8VfUTyvdOzcdi_r4T8O3vUbNuyTLFWahBWI5q0d11NGBcfQNXUdklmkVCGdZZFrJL7ZElathYUnXch-1yHHaYV1l0HwGD_5YBWOeIdaJ5JdC2U8OKa5VVHZkBYBIoS-YkEP9Z6LE5Cm7vFOoBDY3_2Jojakwd4Ntz4kZ31nnquh5TV4sV7jSSuNujmmzIlesF4l]--></g></svg>