<?xml version="1.0" encoding="us-ascii" standalone="no"?><svg xmlns="http://www.w3.org/2000/svg" xmlns:xlink="http://www.w3.org/1999/xlink" contentStyleType="text/css" height="856px" preserveAspectRatio="none" style="width:488px;height:856px;background:#FFFFFF;" version="1.1" viewBox="0 0 488 856" width="488px" zoomAndPan="magnify"><defs/><g><!--cluster c2pa--><g id="cluster_c2pa"><rect fill="#E6E6FA" height="843" rx="2.5" ry="2.5" style="stroke:#800080;stroke-width:1.0;" width="474" x="7" y="7"/><line style="stroke:#800080;stroke-width:1.0;" x1="7" x2="481" y1="27.2969" y2="27.2969"/><text fill="#000000" font-family="Source Sans Pro" font-size="14" font-weight="bold" lengthAdjust="spacing" textLength="247" x="120.5" y="21.9951">Manifest Store - JUMBF (`c2pa`)</text></g><!--cluster c2ma--><g id="cluster_c2ma"><rect fill="#90EE90" height="776" rx="2.5" ry="2.5" style="stroke:#008000;stroke-width:1.0;" width="426" x="31" y="50"/><line style="stroke:#008000;stroke-width:1.0;" x1="31" x2="457" y1="70.2969" y2="70.2969"/><text fill="#000000" font-family="Source Sans Pro" font-size="14" font-weight="bold" lengthAdjust="spacing" textLength="237" x="125.5" y="64.9951">Manifest (`c2ma` : `urn:c2pa`)</text></g><!--cluster c2cs--><g id="cluster_c2cs"><rect fill="#FFE4B5" height="87" rx="2.5" ry="2.5" style="stroke:#FF4500;stroke-width:1.0;" width="355" x="67" y="93"/><line style="stroke:#FF4500;stroke-width:1.0;" x1="67" x2="422" y1="113.2969" y2="113.2969"/><text fill="#000000" font-family="Source Sans Pro" font-size="14" font-weight="bold" lengthAdjust="spacing" textLength="339" x="75" y="107.9951">Claim Signature (`c2cs` : `c2pa.signature`)</text></g><!--cluster c2cl--><g id="cluster_c2cl"><rect fill="#FFB6C1" height="87" rx="2.5" ry="2.5" style="stroke:#FF0000;stroke-width:1.0;" width="378" x="55" y="204"/><line style="stroke:#FF0000;stroke-width:1.0;" x1="55" x2="433" y1="224.2969" y2="224.2969"/><text fill="#000000" font-family="Source Sans Pro" font-size="14" font-weight="bold" lengthAdjust="spacing" textLength="242" x="63" y="218.9951">Claim (`c2cl` : `c2pa.claim.v2`)</text></g><!--cluster c2as--><g id="cluster_c2as"><rect fill="#ADD8E6" height="487" rx="2.5" ry="2.5" style="stroke:#0000FF;stroke-width:1.0;" width="364" x="62" y="315"/><line style="stroke:#0000FF;stroke-width:1.0;" x1="62" x2="426" y1="335.2969" y2="335.2969"/><text fill="#000000" font-family="Source Sans Pro" font-size="14" font-weight="bold" lengthAdjust="spacing" textLength="348" x="70" y="329.9951">Assertion Store (`c2as` : `c2pa.assertions`)</text></g><!--cluster c2pa.metadata --><g id="cluster_c2pa.metadata "><rect fill="#E0FFFF" height="87" rx="2.5" ry="2.5" style="stroke:#0000FF;stroke-width:1.0;" width="137" x="175.5" y="358"/><line style="stroke:#0000FF;stroke-width:1.0;" x1="175.5" x2="312.5" y1="378.2969" y2="378.2969"/><text fill="#000000" font-family="Source Sans Pro" font-size="14" font-weight="bold" lengthAdjust="spacing" textLength="116" x="183.5" y="372.9951">c2pa.metadata</text></g><!--cluster c2pa.thumbnail.claim.png        --><g id="cluster_c2pa.thumbnail.claim.png        "><rect fill="#E0FFFF" height="87" rx="2.5" ry="2.5" style="stroke:#0000FF;stroke-width:1.0;" width="256" x="116" y="469"/><line style="stroke:#0000FF;stroke-width:1.0;" x1="116" x2="372" y1="489.2969" y2="489.2969"/><text fill="#000000" font-family="Source Sans Pro" font-size="14" font-weight="bold" lengthAdjust="spacing" textLength="200" x="124" y="483.9951">c2pa.thumbnail.claim.png</text></g><!--cluster c2pa.actions                           --><g id="cluster_c2pa.actions                           "><rect fill="#E0FFFF" height="87" rx="2.5" ry="2.5" style="stroke:#0000FF;stroke-width:1.0;" width="251" x="119" y="580"/><line style="stroke:#0000FF;stroke-width:1.0;" x1="119" x2="370" y1="600.2969" y2="600.2969"/><text fill="#000000" font-family="Source Sans Pro" font-size="14" font-weight="bold" lengthAdjust="spacing" textLength="100" x="127" y="594.9951">c2pa.actions</text></g><!--cluster c2pa.hash.data                        --><g id="cluster_c2pa.hash.data                        "><rect fill="#E0FFFF" height="87" rx="2.5" ry="2.5" style="stroke:#0000FF;stroke-width:1.0;" width="256" x="116" y="691"/><line style="stroke:#0000FF;stroke-width:1.0;" x1="116" x2="372" y1="711.2969" y2="711.2969"/><text fill="#000000" font-family="Source Sans Pro" font-size="14" font-weight="bold" lengthAdjust="spacing" textLength="120" x="124" y="705.9951">c2pa.hash.data</text></g><!--entity CS--><g id="elem_CS"><rect fill="#F1F1F1" height="36.2969" rx="2.5" ry="2.5" style="stroke:#181818;stroke-width:0.5;" width="190.3333" x="149" y="128"/><path d="M166.4167,141.4635 C164.8067,141.4635 163.5,142.7702 163.5,144.3802 C163.5,144.5669 163.5,144.7535 163.535,144.9285 L160,148.4635 L160,150.7969 L163.5,150.7969 L163.5,148.4635 L165.8333,148.4635 L165.8333,147.2969 L165.8683,147.2619 C166.0433,147.2969 166.23,147.2969 166.4167,147.2969 C168.0267,147.2969 169.3333,145.9902 169.3333,144.3802 C169.3333,142.7702 168.0267,141.4635 166.4167,141.4635 M167,142.6302 C167.6417,142.6302 168.1667,143.1552 168.1667,143.7969 C168.1667,144.4385 167.6417,144.9635 167,144.9635 C166.3583,144.9635 165.8333,144.4385 165.8333,143.7969 C165.8333,143.1552 166.3583,142.6302 167,142.6302 " fill="#000000" style="stroke:;stroke-width:0.0;stroke-dasharray:;"/><text fill="#000000" font-family="Source Sans Pro" font-size="14" lengthAdjust="spacing" textLength="155" x="174.3333" y="150.9951">COSE Digital Signature</text></g><!--entity C--><g id="elem_C"><rect fill="#F1F1F1" height="36.2969" rx="2.5" ry="2.5" style="stroke:#181818;stroke-width:0.5;" width="76.3333" x="206" y="239"/><path d="M222.8333,252.4635 L219.3333,259.4635 L220.5,259.4635 L224,252.4635 L222.8333,252.4635 M218.1667,253.6302 L217,255.9635 L218.1667,258.2969 L219.3333,258.2969 L218.1667,255.9635 L219.3333,253.6302 L218.1667,253.6302 M224,253.6302 L225.1667,255.9635 L224,258.2969 L225.1667,258.2969 L226.3333,255.9635 L225.1667,253.6302 L224,253.6302 " fill="#000000" style="stroke:;stroke-width:0.0;stroke-dasharray:;"/><text fill="#000000" font-family="Source Sans Pro" font-size="14" lengthAdjust="spacing" textLength="41" x="231.3333" y="261.9951">CBOR</text></g><!--entity A1--><g id="elem_A1"><rect fill="#F1F1F1" height="36.2969" rx="2.5" ry="2.5" style="stroke:#181818;stroke-width:0.5;" width="91.3333" x="198.5" y="393"/><path d="M215.3333,406.4635 L211.8333,413.4635 L213,413.4635 L216.5,406.4635 L215.3333,406.4635 M210.6667,407.6302 L209.5,409.9635 L210.6667,412.2969 L211.8333,412.2969 L210.6667,409.9635 L211.8333,407.6302 L210.6667,407.6302 M216.5,407.6302 L217.6667,409.9635 L216.5,412.2969 L217.6667,412.2969 L218.8333,409.9635 L217.6667,407.6302 L216.5,407.6302 " fill="#000000" style="stroke:;stroke-width:0.0;stroke-dasharray:;"/><text fill="#000000" font-family="Source Sans Pro" font-size="14" lengthAdjust="spacing" textLength="56" x="223.8333" y="415.9951">JSON-LD</text></g><!--entity A2--><g id="elem_A2"><rect fill="#F1F1F1" height="36.2969" rx="2.5" ry="2.5" style="stroke:#181818;stroke-width:0.5;" width="138.3333" x="175" y="504"/><path d="M186,517.4635 L186,526.7969 L195.3333,526.7969 L195.3333,517.4635 L186,517.4635 M187.1667,518.6302 L194.1667,518.6302 L194.1667,522.1302 L193,520.9635 L191.8333,522.1302 L194.1667,524.4635 L194.1667,525.6302 L193,525.6302 L188.3333,520.9635 L187.1667,522.1302 L187.1667,518.6302 " fill="#000000" style="stroke:;stroke-width:0.0;stroke-dasharray:;"/><text fill="#000000" font-family="Source Sans Pro" font-size="14" lengthAdjust="spacing" textLength="103" x="200.3333" y="526.9951">Embedded File</text></g><!--entity A3--><g id="elem_A3"><rect fill="#F1F1F1" height="36.2969" rx="2.5" ry="2.5" style="stroke:#181818;stroke-width:0.5;" width="76.3333" x="206" y="615"/><path d="M222.8333,628.4635 L219.3333,635.4635 L220.5,635.4635 L224,628.4635 L222.8333,628.4635 M218.1667,629.6302 L217,631.9635 L218.1667,634.2969 L219.3333,634.2969 L218.1667,631.9635 L219.3333,629.6302 L218.1667,629.6302 M224,629.6302 L225.1667,631.9635 L224,634.2969 L225.1667,634.2969 L226.3333,631.9635 L225.1667,629.6302 L224,629.6302 " fill="#000000" style="stroke:;stroke-width:0.0;stroke-dasharray:;"/><text fill="#000000" font-family="Source Sans Pro" font-size="14" lengthAdjust="spacing" textLength="41" x="231.3333" y="637.9951">CBOR</text></g><!--entity A4--><g id="elem_A4"><rect fill="#F1F1F1" height="36.2969" rx="2.5" ry="2.5" style="stroke:#181818;stroke-width:0.5;" width="76.3333" x="206" y="726"/><path d="M222.8333,739.4635 L219.3333,746.4635 L220.5,746.4635 L224,739.4635 L222.8333,739.4635 M218.1667,740.6302 L217,742.9635 L218.1667,745.2969 L219.3333,745.2969 L218.1667,742.9635 L219.3333,740.6302 L218.1667,740.6302 M224,740.6302 L225.1667,742.9635 L224,745.2969 L225.1667,745.2969 L226.3333,742.9635 L225.1667,740.6302 L224,740.6302 " fill="#000000" style="stroke:;stroke-width:0.0;stroke-dasharray:;"/><text fill="#000000" font-family="Source Sans Pro" font-size="14" lengthAdjust="spacing" textLength="41" x="231.3333" y="748.9951">CBOR</text></g><!--SRC=[ROwzJWCn48Hh_1IJD8OYAQYZ50XH8AMAKYSRtzvXv9-JrmOYnBlZiodfTdRdcra0q23dugV0soyR9dnGih48ulMTJHRO08BKYsCCbgP4NbMiK-SEgRRHo6zMa4iA5H_7AXbKSlIKhS6KOfcNXkiDUgjxS23F3HREJSXCXeyyKw8S4q8CtDDNDXXN1eQdO4UMV9PySpLlQujtIjrfFFVtLirlA0qmZpE11El37uHZJMLiy7ewFBtW_h8uBWzhx7RBjD_Zkz7_DlQcvVIZVW40]--></g></svg>