<?xml version="1.0" encoding="us-ascii" standalone="no"?><svg xmlns="http://www.w3.org/2000/svg" xmlns:xlink="http://www.w3.org/1999/xlink" contentStyleType="text/css" height="1034px" preserveAspectRatio="none" style="width:484px;height:1034px;background:#FFFFFF;" version="1.1" viewBox="0 0 484 1034" width="484px" zoomAndPan="magnify"><defs/><g><!--cluster c2pa--><g id="cluster_c2pa"><rect fill="#E6E6FA" height="1021" rx="2.5" ry="2.5" style="stroke:#800080;stroke-width:1.0;" width="470" x="7" y="7"/><line style="stroke:#800080;stroke-width:1.0;" x1="7" x2="477" y1="27.2969" y2="27.2969"/><text fill="#000000" font-family="Source Sans Pro" font-size="14" font-weight="bold" lengthAdjust="spacing" textLength="247" x="118.5" y="21.9951">Manifest Store - JUMBF (`c2pa`)</text></g><!--cluster c2ma--><g id="cluster_c2ma"><rect fill="#90EE90" height="954" rx="2.5" ry="2.5" style="stroke:#008000;stroke-width:1.0;" width="422" x="31" y="50"/><line style="stroke:#008000;stroke-width:1.0;" x1="31" x2="453" y1="70.2969" y2="70.2969"/><text fill="#000000" font-family="Source Sans Pro" font-size="14" font-weight="bold" lengthAdjust="spacing" textLength="237" x="123.5" y="64.9951">Manifest (`c2ma` : `urn:uuid`)</text></g><!--cluster c2cs--><g id="cluster_c2cs"><rect fill="#FFE4B5" height="87" rx="2.5" ry="2.5" style="stroke:#FF4500;stroke-width:1.0;" width="355" x="64.5" y="93"/><line style="stroke:#FF4500;stroke-width:1.0;" x1="64.5" x2="419.5" y1="113.2969" y2="113.2969"/><text fill="#000000" font-family="Source Sans Pro" font-size="14" font-weight="bold" lengthAdjust="spacing" textLength="339" x="72.5" y="107.9951">Claim Signature (`c2cs` : `c2pa.signature`)</text></g><!--cluster c2cl--><g id="cluster_c2cl"><rect fill="#FFB6C1" height="87" rx="2.5" ry="2.5" style="stroke:#FF0000;stroke-width:1.0;" width="354" x="64.5" y="204"/><line style="stroke:#FF0000;stroke-width:1.0;" x1="64.5" x2="418.5" y1="224.2969" y2="224.2969"/><text fill="#000000" font-family="Source Sans Pro" font-size="14" font-weight="bold" lengthAdjust="spacing" textLength="218" x="72.5" y="218.9951">Claim (`c2cl` : `c2pa.claim`)</text></g><!--cluster c2as--><g id="cluster_c2as"><rect fill="#ADD8E6" height="487" rx="2.5" ry="2.5" style="stroke:#0000FF;stroke-width:1.0;" width="364" x="60" y="315"/><line style="stroke:#0000FF;stroke-width:1.0;" x1="60" x2="424" y1="335.2969" y2="335.2969"/><text fill="#000000" font-family="Source Sans Pro" font-size="14" font-weight="bold" lengthAdjust="spacing" textLength="348" x="68" y="329.9951">Assertion Store (`c2as` : `c2pa.assertions`)</text></g><!--cluster stds.schema-org.CreativeWork --><g id="cluster_stds.schema-org.CreativeWork "><rect fill="#E0FFFF" height="87" rx="2.5" ry="2.5" style="stroke:#0000FF;stroke-width:1.0;" width="266" x="109" y="358"/><line style="stroke:#0000FF;stroke-width:1.0;" x1="109" x2="375" y1="378.2969" y2="378.2969"/><text fill="#000000" font-family="Source Sans Pro" font-size="14" font-weight="bold" lengthAdjust="spacing" textLength="245" x="117" y="372.9951">stds.schema-org.CreativeWork</text></g><!--cluster c2pa.thumbnail.claim.png        --><g id="cluster_c2pa.thumbnail.claim.png        "><rect fill="#E0FFFF" height="87" rx="2.5" ry="2.5" style="stroke:#0000FF;stroke-width:1.0;" width="256" x="113.5" y="469"/><line style="stroke:#0000FF;stroke-width:1.0;" x1="113.5" x2="369.5" y1="489.2969" y2="489.2969"/><text fill="#000000" font-family="Source Sans Pro" font-size="14" font-weight="bold" lengthAdjust="spacing" textLength="200" x="121.5" y="483.9951">c2pa.thumbnail.claim.png</text></g><!--cluster c2pa.actions                           --><g id="cluster_c2pa.actions                           "><rect fill="#E0FFFF" height="87" rx="2.5" ry="2.5" style="stroke:#0000FF;stroke-width:1.0;" width="251" x="116.5" y="580"/><line style="stroke:#0000FF;stroke-width:1.0;" x1="116.5" x2="367.5" y1="600.2969" y2="600.2969"/><text fill="#000000" font-family="Source Sans Pro" font-size="14" font-weight="bold" lengthAdjust="spacing" textLength="100" x="124.5" y="594.9951">c2pa.actions</text></g><!--cluster c2pa.hash.data                        --><g id="cluster_c2pa.hash.data                        "><rect fill="#E0FFFF" height="87" rx="2.5" ry="2.5" style="stroke:#0000FF;stroke-width:1.0;" width="256" x="113.5" y="691"/><line style="stroke:#0000FF;stroke-width:1.0;" x1="113.5" x2="369.5" y1="711.2969" y2="711.2969"/><text fill="#000000" font-family="Source Sans Pro" font-size="14" font-weight="bold" lengthAdjust="spacing" textLength="120" x="121.5" y="705.9951">c2pa.hash.data</text></g><!--cluster c2vc--><g id="cluster_c2vc"><rect fill="#FFFACD" height="154" rx="2.5" ry="2.5" style="stroke:#FFD700;stroke-width:1.0;" width="374" x="55" y="826"/><line style="stroke:#FFD700;stroke-width:1.0;" x1="55" x2="429" y1="846.2969" y2="846.2969"/><text fill="#000000" font-family="Source Sans Pro" font-size="14" font-weight="bold" lengthAdjust="spacing" textLength="358" x="63" y="840.9951">Credential Store (`c2vc` : `c2pa.credentials`)</text></g><!--cluster did:example:c276e12ec21e2ebc6f1--><g id="cluster_did:example:c276e12ec21e2ebc6f1"><rect fill="#FFF0F5" height="87" rx="2.5" ry="2.5" style="stroke:#9400D3;stroke-width:1.0;" width="301" x="91" y="869"/><line style="stroke:#9400D3;stroke-width:1.0;" x1="91" x2="392" y1="889.2969" y2="889.2969"/><text fill="#000000" font-family="Source Sans Pro" font-size="14" font-weight="bold" lengthAdjust="spacing" textLength="285" x="99" y="883.9951">did:example:c276e12ec21e2ebc6f1</text></g><!--entity CS--><g id="elem_CS"><rect fill="#F1F1F1" height="36.2969" rx="2.5" ry="2.5" style="stroke:#181818;stroke-width:0.5;" width="190.3333" x="146.5" y="128"/><path d="M163.9167,141.4635 C162.3067,141.4635 161,142.7702 161,144.3802 C161,144.5669 161,144.7535 161.035,144.9285 L157.5,148.4635 L157.5,150.7969 L161,150.7969 L161,148.4635 L163.3333,148.4635 L163.3333,147.2969 L163.3683,147.2619 C163.5433,147.2969 163.73,147.2969 163.9167,147.2969 C165.5267,147.2969 166.8333,145.9902 166.8333,144.3802 C166.8333,142.7702 165.5267,141.4635 163.9167,141.4635 M164.5,142.6302 C165.1417,142.6302 165.6667,143.1552 165.6667,143.7969 C165.6667,144.4385 165.1417,144.9635 164.5,144.9635 C163.8583,144.9635 163.3333,144.4385 163.3333,143.7969 C163.3333,143.1552 163.8583,142.6302 164.5,142.6302 " fill="#000000" style="stroke:;stroke-width:0.0;stroke-dasharray:;"/><text fill="#000000" font-family="Source Sans Pro" font-size="14" lengthAdjust="spacing" textLength="155" x="171.8333" y="150.9951">COSE Digital Signature</text></g><!--entity C--><g id="elem_C"><rect fill="#F1F1F1" height="36.2969" rx="2.5" ry="2.5" style="stroke:#181818;stroke-width:0.5;" width="76.3333" x="203.5" y="239"/><path d="M220.3333,252.4635 L216.8333,259.4635 L218,259.4635 L221.5,252.4635 L220.3333,252.4635 M215.6667,253.6302 L214.5,255.9635 L215.6667,258.2969 L216.8333,258.2969 L215.6667,255.9635 L216.8333,253.6302 L215.6667,253.6302 M221.5,253.6302 L222.6667,255.9635 L221.5,258.2969 L222.6667,258.2969 L223.8333,255.9635 L222.6667,253.6302 L221.5,253.6302 " fill="#000000" style="stroke:;stroke-width:0.0;stroke-dasharray:;"/><text fill="#000000" font-family="Source Sans Pro" font-size="14" lengthAdjust="spacing" textLength="41" x="228.8333" y="261.9951">CBOR</text></g><!--entity A1--><g id="elem_A1"><rect fill="#F1F1F1" height="36.2969" rx="2.5" ry="2.5" style="stroke:#181818;stroke-width:0.5;" width="91.3333" x="196" y="393"/><path d="M212.8333,406.4635 L209.3333,413.4635 L210.5,413.4635 L214,406.4635 L212.8333,406.4635 M208.1667,407.6302 L207,409.9635 L208.1667,412.2969 L209.3333,412.2969 L208.1667,409.9635 L209.3333,407.6302 L208.1667,407.6302 M214,407.6302 L215.1667,409.9635 L214,412.2969 L215.1667,412.2969 L216.3333,409.9635 L215.1667,407.6302 L214,407.6302 " fill="#000000" style="stroke:;stroke-width:0.0;stroke-dasharray:;"/><text fill="#000000" font-family="Source Sans Pro" font-size="14" lengthAdjust="spacing" textLength="56" x="221.3333" y="415.9951">JSON-LD</text></g><!--entity A2--><g id="elem_A2"><rect fill="#F1F1F1" height="36.2969" rx="2.5" ry="2.5" style="stroke:#181818;stroke-width:0.5;" width="138.3333" x="172.5" y="504"/><path d="M183.5,517.4635 L183.5,526.7969 L192.8333,526.7969 L192.8333,517.4635 L183.5,517.4635 M184.6667,518.6302 L191.6667,518.6302 L191.6667,522.1302 L190.5,520.9635 L189.3333,522.1302 L191.6667,524.4635 L191.6667,525.6302 L190.5,525.6302 L185.8333,520.9635 L184.6667,522.1302 L184.6667,518.6302 " fill="#000000" style="stroke:;stroke-width:0.0;stroke-dasharray:;"/><text fill="#000000" font-family="Source Sans Pro" font-size="14" lengthAdjust="spacing" textLength="103" x="197.8333" y="526.9951">Embedded File</text></g><!--entity A3--><g id="elem_A3"><rect fill="#F1F1F1" height="36.2969" rx="2.5" ry="2.5" style="stroke:#181818;stroke-width:0.5;" width="76.3333" x="203.5" y="615"/><path d="M220.3333,628.4635 L216.8333,635.4635 L218,635.4635 L221.5,628.4635 L220.3333,628.4635 M215.6667,629.6302 L214.5,631.9635 L215.6667,634.2969 L216.8333,634.2969 L215.6667,631.9635 L216.8333,629.6302 L215.6667,629.6302 M221.5,629.6302 L222.6667,631.9635 L221.5,634.2969 L222.6667,634.2969 L223.8333,631.9635 L222.6667,629.6302 L221.5,629.6302 " fill="#000000" style="stroke:;stroke-width:0.0;stroke-dasharray:;"/><text fill="#000000" font-family="Source Sans Pro" font-size="14" lengthAdjust="spacing" textLength="41" x="228.8333" y="637.9951">CBOR</text></g><!--entity A4--><g id="elem_A4"><rect fill="#F1F1F1" height="36.2969" rx="2.5" ry="2.5" style="stroke:#181818;stroke-width:0.5;" width="76.3333" x="203.5" y="726"/><path d="M220.3333,739.4635 L216.8333,746.4635 L218,746.4635 L221.5,739.4635 L220.3333,739.4635 M215.6667,740.6302 L214.5,742.9635 L215.6667,745.2969 L216.8333,745.2969 L215.6667,742.9635 L216.8333,740.6302 L215.6667,740.6302 M221.5,740.6302 L222.6667,742.9635 L221.5,745.2969 L222.6667,745.2969 L223.8333,742.9635 L222.6667,740.6302 L221.5,740.6302 " fill="#000000" style="stroke:;stroke-width:0.0;stroke-dasharray:;"/><text fill="#000000" font-family="Source Sans Pro" font-size="14" lengthAdjust="spacing" textLength="41" x="228.8333" y="748.9951">CBOR</text></g><!--entity VC--><g id="elem_VC"><rect fill="#F1F1F1" height="36.2969" rx="2.5" ry="2.5" style="stroke:#181818;stroke-width:0.5;" width="91.3333" x="196" y="904"/><path d="M212.8333,917.4635 L209.3333,924.4635 L210.5,924.4635 L214,917.4635 L212.8333,917.4635 M208.1667,918.6302 L207,920.9635 L208.1667,923.2969 L209.3333,923.2969 L208.1667,920.9635 L209.3333,918.6302 L208.1667,918.6302 M214,918.6302 L215.1667,920.9635 L214,923.2969 L215.1667,923.2969 L216.3333,920.9635 L215.1667,918.6302 L214,918.6302 " fill="#000000" style="stroke:;stroke-width:0.0;stroke-dasharray:;"/><text fill="#000000" font-family="Source Sans Pro" font-size="14" lengthAdjust="spacing" textLength="56" x="221.3333" y="926.9951">JSON-LD</text></g><!--SRC=[ZPBHRjem58QloLFySB6q5qKY5vs441AZtKHLG6feRwQf79m3ynGxaUsmLbFVVRO3NRkjsdmHvJZd-t9-om2GWigo-cwXv8FKE-p9oAgng3RVM3WBgK6m_al9A2Jj3Ad4Oorrtq99t4dXlaeBrnZjyUtMbmngNAN8IO6TgPew_67pYBIVjc9DYYDisSN2rYGuvveCkSf0LvfRUrTgKJO5Gv6MMxRkthh7qllwib5badHINBJZTME_85D0P3M1B7hp0uJSMnbdkBgTV_Y8atNeM9_sC1g5j_4OFoBzmg1-CmH6qHf3h7tIOTF8uYXGhQ3JwHodjStcUU0uQ7TwFPdDyzcdnMHrUtEP_4VpFtecUNvvivej5_bg6OHuiGuHzY96c1ekM3j9vU4OGfIzY552-hvuRh37I7lnwanUYNk5B8RyGAekUIYoz-Syo5Xa0yvu8ywtWs1uWm_B-Fj5yLxTJV4vXFHhz4vK1OznbIyNPzSNVmM__B7x5EYdv5VPFdy2]--></g></svg>